STARTFONT 2.1
COMMENT "Copyright by Hugo Chargois"
COMMENT "Licensed under the WTFPL"
FONT -Gohu-GohuFont-Bold-R-Normal--11-80-100-100-C-60-ISO10646-1
SIZE 11 100 100
FONTBOUNDINGBOX 6 11 0 -2
STARTPROPERTIES 30
FOUNDRY "Gohu"
FAMILY_NAME "GohuFont"
WEIGHT_NAME "Bold"
SLANT "R"
SETWIDTH_NAME "Normal"
ADD_STYLE_NAME ""
PIXEL_SIZE 11
POINT_SIZE 80
RESOLUTION_X 100
RESOLUTION_Y 100
SPACING "C"
AVERAGE_WIDTH 60
CHARSET_REGISTRY "ISO10646"
CHARSET_ENCODING "1"
FONTNAME_REGISTRY ""
FONT_NAME "GohuFont"
FACE_NAME "GohuFont"
FONT_VERSION "003.000"
FONT_ASCENT 9
FONT_DESCENT 2
UNDERLINE_POSITION -1
UNDERLINE_THICKNESS 1
X_HEIGHT 4
CAP_HEIGHT 7
RAW_ASCENT 818
RAW_DESCENT 182
NORM_SPACE 6
FIGURE_WIDTH 6
AVG_LOWERCASE_WIDTH 60
AVG_UPPERCASE_WIDTH "60"
ENDPROPERTIES
CHARS 1597
STARTCHAR <control>
ENCODING 0
SWIDTH 392 0
DWIDTH 6 0
BBX 5 8 0 0
BITMAP
A8
00
88
00
00
88
00
A8
ENDCHAR
STARTCHAR SPACE
ENCODING 32
SWIDTH 392 0
DWIDTH 6 0
BBX 0 0 0 0
BITMAP
ENDCHAR
STARTCHAR EXCLAMATION MARK
ENCODING 33
SWIDTH 392 0
DWIDTH 6 0
BBX 2 7 2 0
BITMAP
C0
C0
C0
C0
C0
00
C0
ENDCHAR
STARTCHAR QUOTATION MARK
ENCODING 34
SWIDTH 392 0
DWIDTH 6 0
BBX 5 3 1 5
BITMAP
D8
D8
D8
ENDCHAR
STARTCHAR NUMBER SIGN
ENCODING 35
SWIDTH 392 0
DWIDTH 6 0
BBX 6 5 0 2
BITMAP
68
FC
68
FC
68
ENDCHAR
STARTCHAR DOLLAR SIGN
ENCODING 36
SWIDTH 392 0
DWIDTH 6 0
BBX 6 9 0 -1
BITMAP
30
78
B4
B0
78
34
B4
78
30
ENDCHAR
STARTCHAR PERCENT SIGN
ENCODING 37
SWIDTH 392 0
DWIDTH 6 0
BBX 5 7 0 0
BITMAP
48
A8
50
20
50
A8
90
ENDCHAR
STARTCHAR AMPERSAND
ENCODING 38
SWIDTH 392 0
DWIDTH 6 0
BBX 6 7 0 0
BITMAP
70
C8
D0
60
D4
C8
74
ENDCHAR
STARTCHAR APOSTROPHE
ENCODING 39
SWIDTH 392 0
DWIDTH 6 0
BBX 2 3 2 5
BITMAP
C0
C0
C0
ENDCHAR
STARTCHAR LEFT PARENTHESIS
ENCODING 40
SWIDTH 392 0
DWIDTH 6 0
BBX 4 9 1 -1
BITMAP
30
60
60
C0
C0
C0
60
60
30
ENDCHAR
STARTCHAR RIGHT PARENTHESIS
ENCODING 41
SWIDTH 392 0
DWIDTH 6 0
BBX 4 9 1 -1
BITMAP
C0
60
60
30
30
30
60
60
C0
ENDCHAR
STARTCHAR ASTERISK
ENCODING 42
SWIDTH 392 0
DWIDTH 6 0
BBX 6 5 0 1
BITMAP
30
B4
78
B4
30
ENDCHAR
STARTCHAR PLUS SIGN
ENCODING 43
SWIDTH 392 0
DWIDTH 6 0
BBX 6 5 0 1
BITMAP
30
30
FC
30
30
ENDCHAR
STARTCHAR COMMA
ENCODING 44
SWIDTH 392 0
DWIDTH 6 0
BBX 3 4 1 -2
BITMAP
E0
E0
60
C0
ENDCHAR
STARTCHAR HYPHEN-MINUS
ENCODING 45
SWIDTH 392 0
DWIDTH 6 0
BBX 5 1 0 3
BITMAP
F8
ENDCHAR
STARTCHAR FULL STOP
ENCODING 46
SWIDTH 392 0
DWIDTH 6 0
BBX 3 2 2 0
BITMAP
E0
E0
ENDCHAR
STARTCHAR SOLIDUS
ENCODING 47
SWIDTH 392 0
DWIDTH 6 0
BBX 6 10 0 -2
BITMAP
0C
0C
18
18
30
30
60
60
C0
C0
ENDCHAR
STARTCHAR DIGIT ZERO
ENCODING 48
SWIDTH 392 0
DWIDTH 6 0
BBX 5 7 0 0
BITMAP
70
D8
D8
F8
D8
D8
70
ENDCHAR
STARTCHAR DIGIT ONE
ENCODING 49
SWIDTH 392 0
DWIDTH 6 0
BBX 4 7 0 0
BITMAP
30
70
B0
30
30
30
30
ENDCHAR
STARTCHAR DIGIT TWO
ENCODING 50
SWIDTH 392 0
DWIDTH 6 0
BBX 5 7 0 0
BITMAP
70
D8
18
30
60
C0
F8
ENDCHAR
STARTCHAR DIGIT THREE
ENCODING 51
SWIDTH 392 0
DWIDTH 6 0
BBX 5 7 0 0
BITMAP
70
D8
18
30
18
D8
70
ENDCHAR
STARTCHAR DIGIT FOUR
ENCODING 52
SWIDTH 392 0
DWIDTH 6 0
BBX 5 7 0 0
BITMAP
10
30
70
B0
F8
30
30
ENDCHAR
STARTCHAR DIGIT FIVE
ENCODING 53
SWIDTH 392 0
DWIDTH 6 0
BBX 5 7 0 0
BITMAP
F8
C0
F0
18
18
D8
70
ENDCHAR
STARTCHAR DIGIT SIX
ENCODING 54
SWIDTH 392 0
DWIDTH 6 0
BBX 5 7 0 0
BITMAP
70
C0
F0
D8
D8
D8
70
ENDCHAR
STARTCHAR DIGIT SEVEN
ENCODING 55
SWIDTH 392 0
DWIDTH 6 0
BBX 5 7 0 0
BITMAP
F8
18
30
30
60
60
60
ENDCHAR
STARTCHAR DIGIT EIGHT
ENCODING 56
SWIDTH 392 0
DWIDTH 6 0
BBX 5 7 0 0
BITMAP
70
D8
D8
70
D8
D8
70
ENDCHAR
STARTCHAR DIGIT NINE
ENCODING 57
SWIDTH 392 0
DWIDTH 6 0
BBX 5 7 0 0
BITMAP
70
D8
D8
78
18
18
70
ENDCHAR
STARTCHAR COLON
ENCODING 58
SWIDTH 392 0
DWIDTH 6 0
BBX 3 5 2 0
BITMAP
E0
E0
00
E0
E0
ENDCHAR
STARTCHAR SEMICOLON
ENCODING 59
SWIDTH 392 0
DWIDTH 6 0
BBX 3 7 1 -2
BITMAP
E0
E0
00
E0
E0
60
C0
ENDCHAR
STARTCHAR LESS-THAN SIGN
ENCODING 60
SWIDTH 392 0
DWIDTH 6 0
BBX 5 7 0 0
BITMAP
18
30
60
C0
60
30
18
ENDCHAR
STARTCHAR EQUALS SIGN
ENCODING 61
SWIDTH 392 0
DWIDTH 6 0
BBX 5 3 0 2
BITMAP
F8
00
F8
ENDCHAR
STARTCHAR GREATER-THAN SIGN
ENCODING 62
SWIDTH 392 0
DWIDTH 6 0
BBX 5 7 1 0
BITMAP
C0
60
30
18
30
60
C0
ENDCHAR
STARTCHAR QUESTION MARK
ENCODING 63
SWIDTH 392 0
DWIDTH 6 0
BBX 5 7 0 0
BITMAP
70
98
18
10
20
00
20
ENDCHAR
STARTCHAR COMMERCIAL AT
ENCODING 64
SWIDTH 392 0
DWIDTH 6 0
BBX 5 7 0 0
BITMAP
70
C8
D8
D8
D8
C0
78
ENDCHAR
STARTCHAR LATIN CAPITAL LETTER A
ENCODING 65
SWIDTH 392 0
DWIDTH 6 0
BBX 5 8 0 0
BITMAP
70
D8
D8
F8
D8
D8
D8
D8
ENDCHAR
STARTCHAR LATIN CAPITAL LETTER B
ENCODING 66
SWIDTH 392 0
DWIDTH 6 0
BBX 5 8 0 0
BITMAP
F0
D8
D8
F0
D8
D8
D8
F0
ENDCHAR
STARTCHAR LATIN CAPITAL LETTER C
ENCODING 67
SWIDTH 392 0
DWIDTH 6 0
BBX 5 8 0 0
BITMAP
70
C8
C0
C0
C0
C0
C8
70
ENDCHAR
STARTCHAR LATIN CAPITAL LETTER D
ENCODING 68
SWIDTH 392 0
DWIDTH 6 0
BBX 5 8 0 0
BITMAP
F0
D0
D8
D8
D8
D8
D0
F0
ENDCHAR
STARTCHAR LATIN CAPITAL LETTER E
ENCODING 69
SWIDTH 392 0
DWIDTH 6 0
BBX 5 8 0 0
BITMAP
F8
C0
C0
F0
C0
C0
C0
F8
ENDCHAR
STARTCHAR LATIN CAPITAL LETTER F
ENCODING 70
SWIDTH 392 0
DWIDTH 6 0
BBX 5 8 0 0
BITMAP
F8
C0
C0
F0
C0
C0
C0
C0
ENDCHAR
STARTCHAR LATIN CAPITAL LETTER G
ENCODING 71
SWIDTH 392 0
DWIDTH 6 0
BBX 5 8 0 0
BITMAP
70
C8
C0
D8
C8
C8
C8
70
ENDCHAR
STARTCHAR LATIN CAPITAL LETTER H
ENCODING 72
SWIDTH 392 0
DWIDTH 6 0
BBX 5 8 0 0
BITMAP
D8
D8
D8
F8
D8
D8
D8
D8
ENDCHAR
STARTCHAR LATIN CAPITAL LETTER I
ENCODING 73
SWIDTH 392 0
DWIDTH 6 0
BBX 4 8 1 0
BITMAP
F0
60
60
60
60
60
60
F0
ENDCHAR
STARTCHAR LATIN CAPITAL LETTER J
ENCODING 74
SWIDTH 392 0
DWIDTH 6 0
BBX 5 8 0 0
BITMAP
18
18
18
18
18
D8
D8
70
ENDCHAR
STARTCHAR LATIN CAPITAL LETTER K
ENCODING 75
SWIDTH 392 0
DWIDTH 6 0
BBX 5 8 0 0
BITMAP
C8
D0
E0
C0
E0
D0
C8
C8
ENDCHAR
STARTCHAR LATIN CAPITAL LETTER L
ENCODING 76
SWIDTH 392 0
DWIDTH 6 0
BBX 5 8 0 0
BITMAP
C0
C0
C0
C0
C0
C0
C0
F8
ENDCHAR
STARTCHAR LATIN CAPITAL LETTER M
ENCODING 77
SWIDTH 392 0
DWIDTH 6 0
BBX 5 8 0 0
BITMAP
88
D8
F8
F8
D8
D8
D8
D8
ENDCHAR
STARTCHAR LATIN CAPITAL LETTER N
ENCODING 78
SWIDTH 392 0
DWIDTH 6 0
BBX 5 8 0 0
BITMAP
88
C8
C8
E8
E8
F8
D8
C8
ENDCHAR
STARTCHAR LATIN CAPITAL LETTER O
ENCODING 79
SWIDTH 392 0
DWIDTH 6 0
BBX 5 8 0 0
BITMAP
70
D8
D8
D8
D8
D8
D8
70
ENDCHAR
STARTCHAR LATIN CAPITAL LETTER P
ENCODING 80
SWIDTH 392 0
DWIDTH 6 0
BBX 5 8 0 0
BITMAP
F0
D8
D8
F0
C0
C0
C0
C0
ENDCHAR
STARTCHAR LATIN CAPITAL LETTER Q
ENCODING 81
SWIDTH 392 0
DWIDTH 6 0
BBX 5 9 0 -1
BITMAP
70
D8
D8
D8
D8
F8
D8
78
08
ENDCHAR
STARTCHAR LATIN CAPITAL LETTER R
ENCODING 82
SWIDTH 392 0
DWIDTH 6 0
BBX 5 8 0 0
BITMAP
F0
D8
D8
F0
F0
D8
D8
D8
ENDCHAR
STARTCHAR LATIN CAPITAL LETTER S
ENCODING 83
SWIDTH 392 0
DWIDTH 6 0
BBX 5 8 0 0
BITMAP
70
C8
C0
70
18
18
98
70
ENDCHAR
STARTCHAR LATIN CAPITAL LETTER T
ENCODING 84
SWIDTH 392 0
DWIDTH 6 0
BBX 6 8 0 0
BITMAP
FC
30
30
30
30
30
30
30
ENDCHAR
STARTCHAR LATIN CAPITAL LETTER U
ENCODING 85
SWIDTH 392 0
DWIDTH 6 0
BBX 5 8 0 0
BITMAP
D8
D8
D8
D8
D8
D8
D8
70
ENDCHAR
STARTCHAR LATIN CAPITAL LETTER V
ENCODING 86
SWIDTH 392 0
DWIDTH 6 0
BBX 5 8 0 0
BITMAP
D8
D8
D8
F8
70
70
70
20
ENDCHAR
STARTCHAR LATIN CAPITAL LETTER W
ENCODING 87
SWIDTH 392 0
DWIDTH 6 0
BBX 5 8 0 0
BITMAP
D8
D8
D8
D8
F8
F8
D8
50
ENDCHAR
STARTCHAR LATIN CAPITAL LETTER X
ENCODING 88
SWIDTH 392 0
DWIDTH 6 0
BBX 5 8 0 0
BITMAP
D8
D8
50
20
50
D8
D8
D8
ENDCHAR
STARTCHAR LATIN CAPITAL LETTER Y
ENCODING 89
SWIDTH 392 0
DWIDTH 6 0
BBX 5 8 0 0
BITMAP
D8
D8
D8
78
30
30
30
30
ENDCHAR
STARTCHAR LATIN CAPITAL LETTER Z
ENCODING 90
SWIDTH 392 0
DWIDTH 6 0
BBX 5 8 0 0
BITMAP
F8
18
38
70
E0
C0
C0
F8
ENDCHAR
STARTCHAR LEFT SQUARE BRACKET
ENCODING 91
SWIDTH 392 0
DWIDTH 6 0
BBX 4 9 1 -1
BITMAP
F0
C0
C0
C0
C0
C0
C0
C0
F0
ENDCHAR
STARTCHAR REVERSE SOLIDUS
ENCODING 92
SWIDTH 392 0
DWIDTH 6 0
BBX 6 10 0 -2
BITMAP
C0
C0
60
60
30
30
18
18
0C
0C
ENDCHAR
STARTCHAR RIGHT SQUARE BRACKET
ENCODING 93
SWIDTH 392 0
DWIDTH 6 0
BBX 4 9 0 -1
BITMAP
F0
30
30
30
30
30
30
30
F0
ENDCHAR
STARTCHAR CIRCUMFLEX ACCENT
ENCODING 94
SWIDTH 392 0
DWIDTH 6 0
BBX 6 3 0 4
BITMAP
30
78
CC
ENDCHAR
STARTCHAR LOW LINE
ENCODING 95
SWIDTH 392 0
DWIDTH 6 0
BBX 6 1 0 -1
BITMAP
FC
ENDCHAR
STARTCHAR GRAVE ACCENT
ENCODING 96
SWIDTH 392 0
DWIDTH 6 0
BBX 3 3 1 5
BITMAP
80
C0
60
ENDCHAR
STARTCHAR LATIN SMALL LETTER A
ENCODING 97
SWIDTH 392 0
DWIDTH 6 0
BBX 5 5 0 0
BITMAP
70
18
78
D8
78
ENDCHAR
STARTCHAR LATIN SMALL LETTER B
ENCODING 98
SWIDTH 392 0
DWIDTH 6 0
BBX 5 8 0 0
BITMAP
C0
C0
C0
F0
D8
D8
D8
F0
ENDCHAR
STARTCHAR LATIN SMALL LETTER C
ENCODING 99
SWIDTH 392 0
DWIDTH 6 0
BBX 5 5 0 0
BITMAP
78
C0
C0
C0
78
ENDCHAR
STARTCHAR LATIN SMALL LETTER D
ENCODING 100
SWIDTH 392 0
DWIDTH 6 0
BBX 5 8 0 0
BITMAP
18
18
18
78
D8
D8
D8
68
ENDCHAR
STARTCHAR LATIN SMALL LETTER E
ENCODING 101
SWIDTH 392 0
DWIDTH 6 0
BBX 5 5 0 0
BITMAP
70
D8
F8
C0
78
ENDCHAR
STARTCHAR LATIN SMALL LETTER F
ENCODING 102
SWIDTH 392 0
DWIDTH 6 0
BBX 4 8 1 0
BITMAP
70
C0
C0
F0
C0
C0
C0
C0
ENDCHAR
STARTCHAR LATIN SMALL LETTER G
ENCODING 103
SWIDTH 392 0
DWIDTH 6 0
BBX 5 7 0 -2
BITMAP
78
D8
D8
D8
78
18
70
ENDCHAR
STARTCHAR LATIN SMALL LETTER H
ENCODING 104
SWIDTH 392 0
DWIDTH 6 0
BBX 5 8 0 0
BITMAP
C0
C0
C0
F0
D8
D8
D8
D8
ENDCHAR
STARTCHAR LATIN SMALL LETTER I
ENCODING 105
SWIDTH 392 0
DWIDTH 6 0
BBX 4 7 1 0
BITMAP
60
00
E0
60
60
60
70
ENDCHAR
STARTCHAR LATIN SMALL LETTER J
ENCODING 106
SWIDTH 392 0
DWIDTH 6 0
BBX 4 9 0 -2
BITMAP
30
00
70
30
30
30
30
30
E0
ENDCHAR
STARTCHAR LATIN SMALL LETTER K
ENCODING 107
SWIDTH 392 0
DWIDTH 6 0
BBX 5 8 0 0
BITMAP
C0
C0
C0
D0
E0
E0
D0
C8
ENDCHAR
STARTCHAR LATIN SMALL LETTER L
ENCODING 108
SWIDTH 392 0
DWIDTH 6 0
BBX 4 8 1 0
BITMAP
E0
60
60
60
60
60
60
30
ENDCHAR
STARTCHAR LATIN SMALL LETTER M
ENCODING 109
SWIDTH 392 0
DWIDTH 6 0
BBX 6 5 0 0
BITMAP
F8
D4
D4
D4
D4
ENDCHAR
STARTCHAR LATIN SMALL LETTER N
ENCODING 110
SWIDTH 392 0
DWIDTH 6 0
BBX 5 5 0 0
BITMAP
F0
C8
C8
C8
C8
ENDCHAR
STARTCHAR LATIN SMALL LETTER O
ENCODING 111
SWIDTH 392 0
DWIDTH 6 0
BBX 5 5 0 0
BITMAP
70
D8
D8
D8
70
ENDCHAR
STARTCHAR LATIN SMALL LETTER P
ENCODING 112
SWIDTH 392 0
DWIDTH 6 0
BBX 5 7 0 -2
BITMAP
B0
D8
D8
D8
F0
C0
C0
ENDCHAR
STARTCHAR LATIN SMALL LETTER Q
ENCODING 113
SWIDTH 392 0
DWIDTH 6 0
BBX 5 7 0 -2
BITMAP
78
D8
D8
D8
78
18
18
ENDCHAR
STARTCHAR LATIN SMALL LETTER R
ENCODING 114
SWIDTH 392 0
DWIDTH 6 0
BBX 5 5 0 0
BITMAP
B0
D8
C0
C0
C0
ENDCHAR
STARTCHAR LATIN SMALL LETTER S
ENCODING 115
SWIDTH 392 0
DWIDTH 6 0
BBX 5 5 0 0
BITMAP
70
C0
70
18
F0
ENDCHAR
STARTCHAR LATIN SMALL LETTER T
ENCODING 116
SWIDTH 392 0
DWIDTH 6 0
BBX 4 8 1 0
BITMAP
60
60
60
F0
60
60
60
30
ENDCHAR
STARTCHAR LATIN SMALL LETTER U
ENCODING 117
SWIDTH 392 0
DWIDTH 6 0
BBX 5 5 0 0
BITMAP
D8
D8
D8
D8
68
ENDCHAR
STARTCHAR LATIN SMALL LETTER V
ENCODING 118
SWIDTH 392 0
DWIDTH 6 0
BBX 5 5 0 0
BITMAP
D8
D8
70
70
20
ENDCHAR
STARTCHAR LATIN SMALL LETTER W
ENCODING 119
SWIDTH 392 0
DWIDTH 6 0
BBX 6 5 0 0
BITMAP
D4
D4
D4
D4
28
ENDCHAR
STARTCHAR LATIN SMALL LETTER X
ENCODING 120
SWIDTH 392 0
DWIDTH 6 0
BBX 6 5 0 0
BITMAP
CC
78
30
78
CC
ENDCHAR
STARTCHAR LATIN SMALL LETTER Y
ENCODING 121
SWIDTH 392 0
DWIDTH 6 0
BBX 5 7 0 -2
BITMAP
D8
D8
D8
D8
78
18
70
ENDCHAR
STARTCHAR LATIN SMALL LETTER Z
ENCODING 122
SWIDTH 392 0
DWIDTH 6 0
BBX 5 5 0 0
BITMAP
F8
18
30
60
F8
ENDCHAR
STARTCHAR LEFT CURLY BRACKET
ENCODING 123
SWIDTH 392 0
DWIDTH 6 0
BBX 6 11 0 -2
BITMAP
18
30
30
30
30
E0
30
30
30
30
18
ENDCHAR
STARTCHAR VERTICAL LINE
ENCODING 124
SWIDTH 392 0
DWIDTH 6 0
BBX 2 9 2 -1
BITMAP
C0
C0
C0
C0
C0
C0
C0
C0
C0
ENDCHAR
STARTCHAR RIGHT CURLY BRACKET
ENCODING 125
SWIDTH 392 0
DWIDTH 6 0
BBX 6 11 0 -2
BITMAP
60
30
30
30
30
1C
30
30
30
30
60
ENDCHAR
STARTCHAR TILDE
ENCODING 126
SWIDTH 392 0
DWIDTH 6 0
BBX 5 2 0 3
BITMAP
68
B0
ENDCHAR
STARTCHAR NO-BREAK SPACE
ENCODING 160
SWIDTH 392 0
DWIDTH 6 0
BBX 0 0 0 0
BITMAP
ENDCHAR
STARTCHAR INVERTED EXCLAMATION MARK
ENCODING 161
SWIDTH 392 0
DWIDTH 6 0
BBX 1 8 2 0
BITMAP
80
00
80
80
80
80
80
80
ENDCHAR
STARTCHAR CENT SIGN
ENCODING 162
SWIDTH 392 0
DWIDTH 6 0
BBX 5 7 0 -1
BITMAP
20
78
A0
A0
A0
78
20
ENDCHAR
STARTCHAR POUND SIGN
ENCODING 163
SWIDTH 392 0
DWIDTH 6 0
BBX 5 8 0 0
BITMAP
30
48
40
40
E0
40
48
B0
ENDCHAR
STARTCHAR CURRENCY SIGN
ENCODING 164
SWIDTH 392 0
DWIDTH 6 0
BBX 5 5 0 0
BITMAP
88
70
50
70
88
ENDCHAR
STARTCHAR YEN SIGN
ENCODING 165
SWIDTH 392 0
DWIDTH 6 0
BBX 5 9 0 -1
BITMAP
88
88
50
20
F8
20
F8
20
20
ENDCHAR
STARTCHAR BROKEN BAR
ENCODING 166
SWIDTH 392 0
DWIDTH 6 0
BBX 1 9 2 -1
BITMAP
80
80
80
80
00
80
80
80
80
ENDCHAR
STARTCHAR SECTION SIGN
ENCODING 167
SWIDTH 392 0
DWIDTH 6 0
BBX 4 9 1 -1
BITMAP
70
80
80
E0
90
70
10
10
E0
ENDCHAR
STARTCHAR DIAERESIS
ENCODING 168
SWIDTH 392 0
DWIDTH 6 0
BBX 3 1 1 7
BITMAP
A0
ENDCHAR
STARTCHAR COPYRIGHT SIGN
ENCODING 169
SWIDTH 392 0
DWIDTH 6 0
BBX 5 7 0 0
BITMAP
70
88
A8
C8
A8
88
70
ENDCHAR
STARTCHAR FEMININE ORDINAL INDICATOR
ENCODING 170
SWIDTH 392 0
DWIDTH 6 0
BBX 4 6 1 1
BITMAP
70
90
B0
50
00
F0
ENDCHAR
STARTCHAR LEFT-POINTING DOUBLE ANGLE QUOTATION MARK
ENCODING 171
SWIDTH 392 0
DWIDTH 6 0
BBX 6 5 0 1
BITMAP
24
48
90
48
24
ENDCHAR
STARTCHAR NOT SIGN
ENCODING 172
SWIDTH 392 0
DWIDTH 6 0
BBX 4 2 1 2
BITMAP
F0
10
ENDCHAR
STARTCHAR SOFT HYPHEN
ENCODING 173
SWIDTH 392 0
DWIDTH 6 0
BBX 4 1 1 3
BITMAP
F0
ENDCHAR
STARTCHAR REGISTERED SIGN
ENCODING 174
SWIDTH 392 0
DWIDTH 6 0
BBX 5 7 0 0
BITMAP
70
88
E8
C8
C8
88
70
ENDCHAR
STARTCHAR MACRON
ENCODING 175
SWIDTH 392 0
DWIDTH 6 0
BBX 5 1 0 7
BITMAP
F8
ENDCHAR
STARTCHAR DEGREE SIGN
ENCODING 176
SWIDTH 392 0
DWIDTH 6 0
BBX 3 3 1 4
BITMAP
40
A0
40
ENDCHAR
STARTCHAR PLUS-MINUS SIGN
ENCODING 177
SWIDTH 392 0
DWIDTH 6 0
BBX 5 6 0 0
BITMAP
20
20
F8
20
20
F8
ENDCHAR
STARTCHAR SUPERSCRIPT TWO
ENCODING 178
SWIDTH 392 0
DWIDTH 6 0
BBX 4 5 1 3
BITMAP
60
90
20
40
F0
ENDCHAR
STARTCHAR SUPERSCRIPT THREE
ENCODING 179
SWIDTH 392 0
DWIDTH 6 0
BBX 4 5 1 3
BITMAP
E0
10
60
10
E0
ENDCHAR
STARTCHAR ACUTE ACCENT
ENCODING 180
SWIDTH 392 0
DWIDTH 6 0
BBX 2 2 2 6
BITMAP
40
80
ENDCHAR
STARTCHAR MICRO SIGN
ENCODING 181
SWIDTH 392 0
DWIDTH 6 0
BBX 5 6 0 -1
BITMAP
88
88
88
C8
B0
80
ENDCHAR
STARTCHAR PILCROW SIGN
ENCODING 182
SWIDTH 392 0
DWIDTH 6 0
BBX 5 7 0 0
BITMAP
78
E8
E8
68
28
28
28
ENDCHAR
STARTCHAR MIDDLE DOT
ENCODING 183
SWIDTH 392 0
DWIDTH 6 0
BBX 1 1 2 3
BITMAP
80
ENDCHAR
STARTCHAR CEDILLA
ENCODING 184
SWIDTH 392 0
DWIDTH 6 0
BBX 2 2 2 -2
BITMAP
40
80
ENDCHAR
STARTCHAR SUPERSCRIPT ONE
ENCODING 185
SWIDTH 392 0
DWIDTH 6 0
BBX 3 5 1 3
BITMAP
40
C0
40
40
E0
ENDCHAR
STARTCHAR MASCULINE ORDINAL INDICATOR
ENCODING 186
SWIDTH 392 0
DWIDTH 6 0
BBX 4 6 1 1
BITMAP
60
90
90
60
00
F0
ENDCHAR
STARTCHAR RIGHT-POINTING DOUBLE ANGLE QUOTATION MARK
ENCODING 187
SWIDTH 392 0
DWIDTH 6 0
BBX 6 5 0 1
BITMAP
90
48
24
48
90
ENDCHAR
STARTCHAR VULGAR FRACTION ONE QUARTER
ENCODING 188
SWIDTH 392 0
DWIDTH 6 0
BBX 6 9 0 -1
BITMAP
40
C0
40
40
E4
0C
14
3C
04
ENDCHAR
STARTCHAR VULGAR FRACTION ONE HALF
ENCODING 189
SWIDTH 392 0
DWIDTH 6 0
BBX 6 9 0 -1
BITMAP
40
C0
40
40
E8
14
04
08
1C
ENDCHAR
STARTCHAR VULGAR FRACTION THREE QUARTERS
ENCODING 190
SWIDTH 392 0
DWIDTH 6 0
BBX 5 9 0 -1
BITMAP
C0
20
40
20
C8
18
28
78
08
ENDCHAR
STARTCHAR INVERTED QUESTION MARK
ENCODING 191
SWIDTH 392 0
DWIDTH 6 0
BBX 5 7 0 0
BITMAP
20
00
20
40
80
88
70
ENDCHAR
STARTCHAR LATIN CAPITAL LETTER A WITH GRAVE
ENCODING 192
SWIDTH 392 0
DWIDTH 6 0
BBX 5 9 0 0
BITMAP
40
20
70
D8
D8
F8
D8
D8
D8
ENDCHAR
STARTCHAR LATIN CAPITAL LETTER A WITH ACUTE
ENCODING 193
SWIDTH 392 0
DWIDTH 6 0
BBX 5 9 0 0
BITMAP
10
20
70
D8
D8
F8
D8
D8
D8
ENDCHAR
STARTCHAR LATIN CAPITAL LETTER A WITH CIRCUMFLEX
ENCODING 194
SWIDTH 392 0
DWIDTH 6 0
BBX 5 9 0 0
BITMAP
20
50
00
70
D8
D8
F8
D8
D8
ENDCHAR
STARTCHAR LATIN CAPITAL LETTER A WITH TILDE
ENCODING 195
SWIDTH 392 0
DWIDTH 6 0
BBX 5 9 0 0
BITMAP
68
B0
00
70
D8
D8
F8
D8
D8
ENDCHAR
STARTCHAR LATIN CAPITAL LETTER A WITH DIAERESIS
ENCODING 196
SWIDTH 392 0
DWIDTH 6 0
BBX 5 9 0 0
BITMAP
50
00
70
D8
D8
F8
D8
D8
D8
ENDCHAR
STARTCHAR LATIN CAPITAL LETTER A WITH RING ABOVE
ENCODING 197
SWIDTH 392 0
DWIDTH 6 0
BBX 5 9 0 0
BITMAP
20
50
20
70
D8
D8
F8
D8
D8
ENDCHAR
STARTCHAR LATIN CAPITAL LETTER AE
ENCODING 198
SWIDTH 392 0
DWIDTH 6 0
BBX 5 7 0 0
BITMAP
78
A0
A0
F0
A0
A0
B8
ENDCHAR
STARTCHAR LATIN CAPITAL LETTER C WITH CEDILLA
ENCODING 199
SWIDTH 392 0
DWIDTH 6 0
BBX 5 9 0 -2
BITMAP
70
C8
C0
C0
C0
C8
70
20
40
ENDCHAR
STARTCHAR LATIN CAPITAL LETTER E WITH GRAVE
ENCODING 200
SWIDTH 392 0
DWIDTH 6 0
BBX 5 9 0 0
BITMAP
40
20
F8
C0
C0
F0
C0
C0
F8
ENDCHAR
STARTCHAR LATIN CAPITAL LETTER E WITH ACUTE
ENCODING 201
SWIDTH 392 0
DWIDTH 6 0
BBX 5 9 0 0
BITMAP
10
20
F8
C0
C0
F0
C0
C0
F8
ENDCHAR
STARTCHAR LATIN CAPITAL LETTER E WITH CIRCUMFLEX
ENCODING 202
SWIDTH 392 0
DWIDTH 6 0
BBX 5 9 0 0
BITMAP
20
50
F8
C0
C0
F0
C0
C0
F8
ENDCHAR
STARTCHAR LATIN CAPITAL LETTER E WITH DIAERESIS
ENCODING 203
SWIDTH 392 0
DWIDTH 6 0
BBX 5 9 0 0
BITMAP
50
00
F8
C0
C0
F0
C0
C0
F8
ENDCHAR
STARTCHAR LATIN CAPITAL LETTER I WITH GRAVE
ENCODING 204
SWIDTH 392 0
DWIDTH 6 0
BBX 4 9 1 0
BITMAP
40
20
00
F0
60
60
60
60
F0
ENDCHAR
STARTCHAR LATIN CAPITAL LETTER I WITH ACUTE
ENCODING 205
SWIDTH 392 0
DWIDTH 6 0
BBX 4 9 1 0
BITMAP
40
80
00
F0
60
60
60
60
F0
ENDCHAR
STARTCHAR LATIN CAPITAL LETTER I WITH CIRCUMFLEX
ENCODING 206
SWIDTH 392 0
DWIDTH 6 0
BBX 4 9 1 0
BITMAP
40
A0
00
F0
60
60
60
60
F0
ENDCHAR
STARTCHAR LATIN CAPITAL LETTER I WITH DIAERESIS
ENCODING 207
SWIDTH 392 0
DWIDTH 6 0
BBX 4 9 1 0
BITMAP
A0
00
F0
60
60
60
60
60
F0
ENDCHAR
STARTCHAR LATIN CAPITAL LETTER ETH
ENCODING 208
SWIDTH 392 0
DWIDTH 6 0
BBX 5 7 0 0
BITMAP
70
48
48
E8
48
48
70
ENDCHAR
STARTCHAR LATIN CAPITAL LETTER N WITH TILDE
ENCODING 209
SWIDTH 392 0
DWIDTH 6 0
BBX 5 9 0 0
BITMAP
68
B0
88
C8
A8
98
88
88
88
ENDCHAR
STARTCHAR LATIN CAPITAL LETTER O WITH GRAVE
ENCODING 210
SWIDTH 392 0
DWIDTH 6 0
BBX 5 9 0 0
BITMAP
40
20
70
D8
D8
D8
D8
D8
70
ENDCHAR
STARTCHAR LATIN CAPITAL LETTER O WITH ACUTE
ENCODING 211
SWIDTH 392 0
DWIDTH 6 0
BBX 5 9 0 0
BITMAP
10
20
70
D8
D8
D8
D8
D8
70
ENDCHAR
STARTCHAR LATIN CAPITAL LETTER O WITH CIRCUMFLEX
ENCODING 212
SWIDTH 392 0
DWIDTH 6 0
BBX 5 9 0 0
BITMAP
20
50
00
70
D8
D8
D8
D8
70
ENDCHAR
STARTCHAR LATIN CAPITAL LETTER O WITH TILDE
ENCODING 213
SWIDTH 392 0
DWIDTH 6 0
BBX 5 9 0 0
BITMAP
68
B0
70
D8
D8
D8
D8
D8
70
ENDCHAR
STARTCHAR LATIN CAPITAL LETTER O WITH DIAERESIS
ENCODING 214
SWIDTH 392 0
DWIDTH 6 0
BBX 5 9 0 0
BITMAP
50
00
70
D8
D8
D8
D8
D8
70
ENDCHAR
STARTCHAR MULTIPLICATION SIGN
ENCODING 215
SWIDTH 392 0
DWIDTH 6 0
BBX 5 5 0 1
BITMAP
88
50
20
50
88
ENDCHAR
STARTCHAR LATIN CAPITAL LETTER O WITH STROKE
ENCODING 216
SWIDTH 392 0
DWIDTH 6 0
BBX 5 7 0 0
BITMAP
70
88
98
A8
C8
88
70
ENDCHAR
STARTCHAR LATIN CAPITAL LETTER U WITH GRAVE
ENCODING 217
SWIDTH 392 0
DWIDTH 6 0
BBX 5 9 0 0
BITMAP
40
20
D8
D8
D8
D8
D8
D8
70
ENDCHAR
STARTCHAR LATIN CAPITAL LETTER U WITH ACUTE
ENCODING 218
SWIDTH 392 0
DWIDTH 6 0
BBX 5 9 0 0
BITMAP
10
20
D8
D8
D8
D8
D8
D8
70
ENDCHAR
STARTCHAR LATIN CAPITAL LETTER U WITH CIRCUMFLEX
ENCODING 219
SWIDTH 392 0
DWIDTH 6 0
BBX 5 9 0 0
BITMAP
10
20
D8
D8
D8
D8
D8
D8
70
ENDCHAR
STARTCHAR LATIN CAPITAL LETTER U WITH DIAERESIS
ENCODING 220
SWIDTH 392 0
DWIDTH 6 0
BBX 5 9 0 0
BITMAP
50
00
D8
D8
D8
D8
D8
D8
70
ENDCHAR
STARTCHAR LATIN CAPITAL LETTER Y WITH ACUTE
ENCODING 221
SWIDTH 392 0
DWIDTH 6 0
BBX 5 9 0 0
BITMAP
10
20
D8
D8
D8
70
30
30
30
ENDCHAR
STARTCHAR LATIN CAPITAL LETTER THORN
ENCODING 222
SWIDTH 392 0
DWIDTH 6 0
BBX 5 7 0 0
BITMAP
80
F0
88
88
F0
80
80
ENDCHAR
STARTCHAR LATIN SMALL LETTER SHARP S
ENCODING 223
SWIDTH 392 0
DWIDTH 6 0
BBX 5 9 0 -1
BITMAP
30
48
88
90
90
88
88
B0
80
ENDCHAR
STARTCHAR LATIN SMALL LETTER A WITH GRAVE
ENCODING 224
SWIDTH 392 0
DWIDTH 6 0
BBX 5 8 0 0
BITMAP
20
10
00
70
18
78
D8
78
ENDCHAR
STARTCHAR LATIN SMALL LETTER A WITH ACUTE
ENCODING 225
SWIDTH 392 0
DWIDTH 6 0
BBX 5 8 0 0
BITMAP
10
20
00
70
18
78
D8
78
ENDCHAR
STARTCHAR LATIN SMALL LETTER A WITH CIRCUMFLEX
ENCODING 226
SWIDTH 392 0
DWIDTH 6 0
BBX 5 8 0 0
BITMAP
20
50
00
70
18
78
D8
78
ENDCHAR
STARTCHAR LATIN SMALL LETTER A WITH TILDE
ENCODING 227
SWIDTH 392 0
DWIDTH 6 0
BBX 5 8 0 0
BITMAP
68
B0
00
70
18
78
D8
78
ENDCHAR
STARTCHAR LATIN SMALL LETTER A WITH DIAERESIS
ENCODING 228
SWIDTH 392 0
DWIDTH 6 0
BBX 5 7 0 0
BITMAP
50
00
70
18
78
D8
78
ENDCHAR
STARTCHAR LATIN SMALL LETTER A WITH RING ABOVE
ENCODING 229
SWIDTH 392 0
DWIDTH 6 0
BBX 5 8 0 0
BITMAP
20
50
20
70
18
78
D8
78
ENDCHAR
STARTCHAR LATIN SMALL LETTER AE
ENCODING 230
SWIDTH 392 0
DWIDTH 6 0
BBX 5 5 0 0
BITMAP
70
A8
B8
A0
78
ENDCHAR
STARTCHAR LATIN SMALL LETTER C WITH CEDILLA
ENCODING 231
SWIDTH 392 0
DWIDTH 6 0
BBX 5 7 0 -2
BITMAP
78
C0
C0
C0
78
20
40
ENDCHAR
STARTCHAR LATIN SMALL LETTER E WITH GRAVE
ENCODING 232
SWIDTH 392 0
DWIDTH 6 0
BBX 5 8 0 0
BITMAP
40
20
00
70
D8
F8
C0
78
ENDCHAR
STARTCHAR LATIN SMALL LETTER E WITH ACUTE
ENCODING 233
SWIDTH 392 0
DWIDTH 6 0
BBX 5 8 0 0
BITMAP
10
20
00
70
D8
F8
C0
78
ENDCHAR
STARTCHAR LATIN SMALL LETTER E WITH CIRCUMFLEX
ENCODING 234
SWIDTH 392 0
DWIDTH 6 0
BBX 5 8 0 0
BITMAP
20
50
00
70
D8
F8
C0
78
ENDCHAR
STARTCHAR LATIN SMALL LETTER E WITH DIAERESIS
ENCODING 235
SWIDTH 392 0
DWIDTH 6 0
BBX 5 7 0 0
BITMAP
50
00
70
D8
F8
C0
78
ENDCHAR
STARTCHAR LATIN SMALL LETTER I WITH GRAVE
ENCODING 236
SWIDTH 392 0
DWIDTH 6 0
BBX 4 8 1 0
BITMAP
40
20
00
E0
60
60
60
70
ENDCHAR
STARTCHAR LATIN SMALL LETTER I WITH ACUTE
ENCODING 237
SWIDTH 392 0
DWIDTH 6 0
BBX 4 8 1 0
BITMAP
40
80
00
E0
60
60
60
70
ENDCHAR
STARTCHAR LATIN SMALL LETTER I WITH CIRCUMFLEX
ENCODING 238
SWIDTH 392 0
DWIDTH 6 0
BBX 4 8 1 0
BITMAP
40
A0
00
E0
60
60
60
70
ENDCHAR
STARTCHAR LATIN SMALL LETTER I WITH DIAERESIS
ENCODING 239
SWIDTH 392 0
DWIDTH 6 0
BBX 4 7 1 0
BITMAP
A0
00
E0
60
60
60
70
ENDCHAR
STARTCHAR LATIN SMALL LETTER ETH
ENCODING 240
SWIDTH 392 0
DWIDTH 6 0
BBX 5 8 0 0
BITMAP
60
60
10
78
88
88
88
70
ENDCHAR
STARTCHAR LATIN SMALL LETTER N WITH TILDE
ENCODING 241
SWIDTH 392 0
DWIDTH 6 0
BBX 5 8 0 0
BITMAP
50
A0
00
F0
C8
C8
C8
C8
ENDCHAR
STARTCHAR LATIN SMALL LETTER O WITH GRAVE
ENCODING 242
SWIDTH 392 0
DWIDTH 6 0
BBX 5 8 0 0
BITMAP
40
20
00
70
D8
D8
D8
70
ENDCHAR
STARTCHAR LATIN SMALL LETTER O WITH ACUTE
ENCODING 243
SWIDTH 392 0
DWIDTH 6 0
BBX 5 8 0 0
BITMAP
10
20
00
70
D8
D8
D8
70
ENDCHAR
STARTCHAR LATIN SMALL LETTER O WITH CIRCUMFLEX
ENCODING 244
SWIDTH 392 0
DWIDTH 6 0
BBX 5 8 0 0
BITMAP
20
50
00
70
D8
D8
D8
70
ENDCHAR
STARTCHAR LATIN SMALL LETTER O WITH TILDE
ENCODING 245
SWIDTH 392 0
DWIDTH 6 0
BBX 5 8 0 0
BITMAP
50
A0
00
70
D8
D8
D8
70
ENDCHAR
STARTCHAR LATIN SMALL LETTER O WITH DIAERESIS
ENCODING 246
SWIDTH 392 0
DWIDTH 6 0
BBX 5 7 0 0
BITMAP
50
00
70
D8
D8
D8
70
ENDCHAR
STARTCHAR DIVISION SIGN
ENCODING 247
SWIDTH 392 0
DWIDTH 6 0
BBX 5 5 0 1
BITMAP
20
00
F8
00
20
ENDCHAR
STARTCHAR LATIN SMALL LETTER O WITH STROKE
ENCODING 248
SWIDTH 392 0
DWIDTH 6 0
BBX 5 5 0 0
BITMAP
70
98
A8
C8
70
ENDCHAR
STARTCHAR LATIN SMALL LETTER U WITH GRAVE
ENCODING 249
SWIDTH 392 0
DWIDTH 6 0
BBX 5 8 0 0
BITMAP
40
20
00
D8
D8
D8
D8
68
ENDCHAR
STARTCHAR LATIN SMALL LETTER U WITH ACUTE
ENCODING 250
SWIDTH 392 0
DWIDTH 6 0
BBX 5 8 0 0
BITMAP
10
20
00
D8
D8
D8
D8
68
ENDCHAR
STARTCHAR LATIN SMALL LETTER U WITH CIRCUMFLEX
ENCODING 251
SWIDTH 392 0
DWIDTH 6 0
BBX 5 8 0 0
BITMAP
20
50
00
D8
D8
D8
D8
68
ENDCHAR
STARTCHAR LATIN SMALL LETTER U WITH DIAERESIS
ENCODING 252
SWIDTH 392 0
DWIDTH 6 0
BBX 5 7 0 0
BITMAP
50
00
D8
D8
D8
D8
68
ENDCHAR
STARTCHAR LATIN SMALL LETTER Y WITH ACUTE
ENCODING 253
SWIDTH 392 0
DWIDTH 6 0
BBX 5 10 0 -2
BITMAP
10
20
00
D8
D8
D8
D8
78
18
70
ENDCHAR
STARTCHAR LATIN SMALL LETTER THORN
ENCODING 254
SWIDTH 392 0
DWIDTH 6 0
BBX 5 9 0 -2
BITMAP
80
80
F0
88
88
88
F0
80
80
ENDCHAR
STARTCHAR LATIN SMALL LETTER Y WITH DIAERESIS
ENCODING 255
SWIDTH 392 0
DWIDTH 6 0
BBX 5 9 0 -2
BITMAP
50
00
D8
D8
D8
D8
78
18
70
ENDCHAR
STARTCHAR LATIN CAPITAL LETTER A WITH MACRON
ENCODING 256
SWIDTH 392 0
DWIDTH 6 0
BBX 5 8 0 0
BITMAP
70
00
70
88
88
F8
88
88
ENDCHAR
STARTCHAR LATIN SMALL LETTER A WITH MACRON
ENCODING 257
SWIDTH 392 0
DWIDTH 6 0
BBX 5 7 0 0
BITMAP
70
00
70
08
78
88
78
ENDCHAR
STARTCHAR LATIN CAPITAL LETTER A WITH BREVE
ENCODING 258
SWIDTH 392 0
DWIDTH 6 0
BBX 5 8 0 0
BITMAP
88
70
70
88
88
F8
88
88
ENDCHAR
STARTCHAR LATIN SMALL LETTER A WITH BREVE
ENCODING 259
SWIDTH 392 0
DWIDTH 6 0
BBX 5 8 0 0
BITMAP
88
70
00
70
08
78
88
78
ENDCHAR
STARTCHAR LATIN CAPITAL LETTER A WITH OGONEK
ENCODING 260
SWIDTH 392 0
DWIDTH 6 0
BBX 5 9 0 -2
BITMAP
20
50
88
88
F8
88
88
10
18
ENDCHAR
STARTCHAR LATIN SMALL LETTER A WITH OGONEK
ENCODING 261
SWIDTH 392 0
DWIDTH 6 0
BBX 5 7 0 -2
BITMAP
70
08
78
88
78
10
18
ENDCHAR
STARTCHAR LATIN CAPITAL LETTER C WITH ACUTE
ENCODING 262
SWIDTH 392 0
DWIDTH 6 0
BBX 5 8 0 0
BITMAP
10
20
70
88
80
80
88
70
ENDCHAR
STARTCHAR LATIN SMALL LETTER C WITH ACUTE
ENCODING 263
SWIDTH 392 0
DWIDTH 6 0
BBX 5 8 0 0
BITMAP
10
20
00
70
88
80
88
70
ENDCHAR
STARTCHAR LATIN CAPITAL LETTER C WITH CIRCUMFLEX
ENCODING 264
SWIDTH 392 0
DWIDTH 6 0
BBX 5 8 0 0
BITMAP
20
50
70
88
80
80
88
70
ENDCHAR
STARTCHAR LATIN SMALL LETTER C WITH CIRCUMFLEX
ENCODING 265
SWIDTH 392 0
DWIDTH 6 0
BBX 5 8 0 0
BITMAP
20
50
00
70
88
80
88
70
ENDCHAR
STARTCHAR LATIN CAPITAL LETTER C WITH DOT ABOVE
ENCODING 266
SWIDTH 392 0
DWIDTH 6 0
BBX 5 8 0 0
BITMAP
20
00
70
88
80
80
88
70
ENDCHAR
STARTCHAR LATIN SMALL LETTER C WITH DOT ABOVE
ENCODING 267
SWIDTH 392 0
DWIDTH 6 0
BBX 5 7 0 0
BITMAP
20
00
70
88
80
88
70
ENDCHAR
STARTCHAR LATIN CAPITAL LETTER C WITH CARON
ENCODING 268
SWIDTH 392 0
DWIDTH 6 0
BBX 5 8 0 0
BITMAP
50
20
70
88
80
80
88
70
ENDCHAR
STARTCHAR LATIN SMALL LETTER C WITH CARON
ENCODING 269
SWIDTH 392 0
DWIDTH 6 0
BBX 5 8 0 0
BITMAP
50
20
00
70
88
80
88
70
ENDCHAR
STARTCHAR LATIN CAPITAL LETTER D WITH CARON
ENCODING 270
SWIDTH 392 0
DWIDTH 6 0
BBX 5 8 0 0
BITMAP
50
20
F0
88
88
88
88
F0
ENDCHAR
STARTCHAR LATIN SMALL LETTER D WITH CARON
ENCODING 271
SWIDTH 392 0
DWIDTH 6 0
BBX 5 8 0 0
BITMAP
50
20
08
68
98
88
98
68
ENDCHAR
STARTCHAR LATIN CAPITAL LETTER D WITH STROKE
ENCODING 272
SWIDTH 392 0
DWIDTH 6 0
BBX 6 7 0 0
BITMAP
78
44
44
E4
44
44
78
ENDCHAR
STARTCHAR LATIN SMALL LETTER D WITH STROKE
ENCODING 273
SWIDTH 392 0
DWIDTH 6 0
BBX 5 7 0 0
BITMAP
10
38
10
70
90
90
70
ENDCHAR
STARTCHAR LATIN CAPITAL LETTER E WITH MACRON
ENCODING 274
SWIDTH 392 0
DWIDTH 6 0
BBX 5 8 0 0
BITMAP
70
00
F8
80
F0
80
80
F8
ENDCHAR
STARTCHAR LATIN SMALL LETTER E WITH MACRON
ENCODING 275
SWIDTH 392 0
DWIDTH 6 0
BBX 5 7 0 0
BITMAP
70
00
70
88
F8
80
70
ENDCHAR
STARTCHAR LATIN CAPITAL LETTER E WITH BREVE
ENCODING 276
SWIDTH 392 0
DWIDTH 6 0
BBX 5 8 0 0
BITMAP
88
70
F8
80
F0
80
80
F8
ENDCHAR
STARTCHAR LATIN SMALL LETTER E WITH BREVE
ENCODING 277
SWIDTH 392 0
DWIDTH 6 0
BBX 5 8 0 0
BITMAP
88
70
00
70
88
F8
80
70
ENDCHAR
STARTCHAR LATIN CAPITAL LETTER E WITH DOT ABOVE
ENCODING 278
SWIDTH 392 0
DWIDTH 6 0
BBX 5 8 0 0
BITMAP
20
00
F8
80
F0
80
80
F8
ENDCHAR
STARTCHAR LATIN SMALL LETTER E WITH DOT ABOVE
ENCODING 279
SWIDTH 392 0
DWIDTH 6 0
BBX 5 7 0 0
BITMAP
20
00
70
88
F8
80
70
ENDCHAR
STARTCHAR LATIN CAPITAL LETTER E WITH OGONEK
ENCODING 280
SWIDTH 392 0
DWIDTH 6 0
BBX 5 9 0 -2
BITMAP
F8
80
80
F0
80
80
F8
20
30
ENDCHAR
STARTCHAR LATIN SMALL LETTER E WITH OGONEK
ENCODING 281
SWIDTH 392 0
DWIDTH 6 0
BBX 5 7 0 -2
BITMAP
70
88
F8
80
70
20
30
ENDCHAR
STARTCHAR LATIN CAPITAL LETTER E WITH CARON
ENCODING 282
SWIDTH 392 0
DWIDTH 6 0
BBX 5 8 0 0
BITMAP
50
20
F8
80
F0
80
80
F8
ENDCHAR
STARTCHAR LATIN SMALL LETTER E WITH CARON
ENCODING 283
SWIDTH 392 0
DWIDTH 6 0
BBX 5 8 0 0
BITMAP
50
20
00
70
88
F8
80
70
ENDCHAR
STARTCHAR LATIN CAPITAL LETTER G WITH CIRCUMFLEX
ENCODING 284
SWIDTH 392 0
DWIDTH 6 0
BBX 5 8 0 0
BITMAP
20
50
70
88
80
98
88
70
ENDCHAR
STARTCHAR LATIN SMALL LETTER G WITH CIRCUMFLEX
ENCODING 285
SWIDTH 392 0
DWIDTH 6 0
BBX 6 10 0 -2
BITMAP
20
50
00
68
90
60
80
70
88
70
ENDCHAR
STARTCHAR LATIN CAPITAL LETTER G WITH BREVE
ENCODING 286
SWIDTH 392 0
DWIDTH 6 0
BBX 5 8 0 0
BITMAP
88
70
70
88
80
98
88
70
ENDCHAR
STARTCHAR LATIN SMALL LETTER G WITH BREVE
ENCODING 287
SWIDTH 392 0
DWIDTH 6 0
BBX 6 10 0 -2
BITMAP
88
70
00
68
90
60
80
70
88
70
ENDCHAR
STARTCHAR LATIN CAPITAL LETTER G WITH DOT ABOVE
ENCODING 288
SWIDTH 392 0
DWIDTH 6 0
BBX 5 8 0 0
BITMAP
20
00
70
88
80
98
88
70
ENDCHAR
STARTCHAR LATIN SMALL LETTER G WITH DOT ABOVE
ENCODING 289
SWIDTH 392 0
DWIDTH 6 0
BBX 5 9 0 -2
BITMAP
20
00
68
90
60
80
70
88
70
ENDCHAR
STARTCHAR LATIN CAPITAL LETTER G WITH CEDILLA
ENCODING 290
SWIDTH 392 0
DWIDTH 6 0
BBX 5 8 0 -2
BITMAP
70
88
80
98
88
70
20
40
ENDCHAR
STARTCHAR LATIN SMALL LETTER G WITH CEDILLA
ENCODING 291
SWIDTH 392 0
DWIDTH 6 0
BBX 6 10 0 -2
BITMAP
40
60
00
68
90
60
80
70
88
70
ENDCHAR
STARTCHAR LATIN CAPITAL LETTER H WITH CIRCUMFLEX
ENCODING 292
SWIDTH 392 0
DWIDTH 6 0
BBX 5 8 0 0
BITMAP
20
50
00
88
88
F8
88
88
ENDCHAR
STARTCHAR LATIN SMALL LETTER H WITH CIRCUMFLEX
ENCODING 293
SWIDTH 392 0
DWIDTH 6 0
BBX 5 8 0 0
BITMAP
10
28
80
80
F0
88
88
88
ENDCHAR
STARTCHAR LATIN CAPITAL LETTER H WITH STROKE
ENCODING 294
SWIDTH 392 0
DWIDTH 6 0
BBX 6 7 0 0
BITMAP
48
FC
48
78
48
48
48
ENDCHAR
STARTCHAR LATIN SMALL LETTER H WITH STROKE
ENCODING 295
SWIDTH 392 0
DWIDTH 6 0
BBX 6 7 0 0
BITMAP
40
E0
58
64
44
44
44
ENDCHAR
STARTCHAR LATIN CAPITAL LETTER I WITH TILDE
ENCODING 296
SWIDTH 392 0
DWIDTH 6 0
BBX 4 8 1 0
BITMAP
50
A0
E0
40
40
40
40
E0
ENDCHAR
STARTCHAR LATIN SMALL LETTER I WITH TILDE
ENCODING 297
SWIDTH 392 0
DWIDTH 6 0
BBX 4 8 1 0
BITMAP
50
A0
00
60
20
20
20
70
ENDCHAR
STARTCHAR LATIN CAPITAL LETTER I WITH MACRON
ENCODING 298
SWIDTH 392 0
DWIDTH 6 0
BBX 3 8 1 0
BITMAP
E0
00
E0
40
40
40
40
E0
ENDCHAR
STARTCHAR LATIN SMALL LETTER I WITH MACRON
ENCODING 299
SWIDTH 392 0
DWIDTH 6 0
BBX 3 7 1 0
BITMAP
E0
00
C0
40
40
40
E0
ENDCHAR
STARTCHAR LATIN CAPITAL LETTER I WITH BREVE
ENCODING 300
SWIDTH 392 0
DWIDTH 6 0
BBX 5 8 0 0
BITMAP
88
70
70
20
20
20
20
70
ENDCHAR
STARTCHAR LATIN SMALL LETTER I WITH BREVE
ENCODING 301
SWIDTH 392 0
DWIDTH 6 0
BBX 5 8 0 0
BITMAP
88
70
00
60
20
20
20
70
ENDCHAR
STARTCHAR LATIN CAPITAL LETTER I WITH OGONEK
ENCODING 302
SWIDTH 392 0
DWIDTH 6 0
BBX 3 9 1 -2
BITMAP
E0
40
40
40
40
40
E0
40
60
ENDCHAR
STARTCHAR LATIN SMALL LETTER I WITH OGONEK
ENCODING 303
SWIDTH 392 0
DWIDTH 6 0
BBX 3 9 1 -2
BITMAP
40
00
C0
40
40
40
E0
40
60
ENDCHAR
STARTCHAR LATIN CAPITAL LETTER I WITH DOT ABOVE
ENCODING 304
SWIDTH 392 0
DWIDTH 6 0
BBX 3 8 1 0
BITMAP
40
00
E0
40
40
40
40
E0
ENDCHAR
STARTCHAR LATIN SMALL LETTER DOTLESS I
ENCODING 305
SWIDTH 392 0
DWIDTH 6 0
BBX 3 5 1 0
BITMAP
C0
40
40
40
E0
ENDCHAR
STARTCHAR LATIN CAPITAL LIGATURE IJ
ENCODING 306
SWIDTH 392 0
DWIDTH 6 0
BBX 5 7 0 0
BITMAP
B8
88
88
88
88
A8
90
ENDCHAR
STARTCHAR LATIN SMALL LIGATURE IJ
ENCODING 307
SWIDTH 392 0
DWIDTH 6 0
BBX 4 9 1 -2
BITMAP
90
00
B0
90
90
90
90
10
60
ENDCHAR
STARTCHAR LATIN CAPITAL LETTER J WITH CIRCUMFLEX
ENCODING 308
SWIDTH 392 0
DWIDTH 6 0
BBX 5 8 0 0
BITMAP
10
28
38
10
10
10
90
60
ENDCHAR
STARTCHAR LATIN SMALL LETTER J WITH CIRCUMFLEX
ENCODING 309
SWIDTH 392 0
DWIDTH 6 0
BBX 6 10 0 -2
BITMAP
10
28
00
30
10
10
10
90
90
60
ENDCHAR
STARTCHAR LATIN CAPITAL LETTER K WITH CEDILLA
ENCODING 310
SWIDTH 392 0
DWIDTH 6 0
BBX 5 9 0 -2
BITMAP
88
90
A0
C0
A0
90
88
20
60
ENDCHAR
STARTCHAR LATIN SMALL LETTER K WITH CEDILLA
ENCODING 311
SWIDTH 392 0
DWIDTH 6 0
BBX 5 9 0 -2
BITMAP
80
80
88
90
E0
90
88
20
60
ENDCHAR
STARTCHAR LATIN SMALL LETTER KRA
ENCODING 312
SWIDTH 392 0
DWIDTH 6 0
BBX 5 5 0 0
BITMAP
88
90
E0
90
88
ENDCHAR
STARTCHAR LATIN CAPITAL LETTER L WITH ACUTE
ENCODING 313
SWIDTH 392 0
DWIDTH 6 0
BBX 5 8 0 0
BITMAP
10
A0
80
80
80
80
80
F8
ENDCHAR
STARTCHAR LATIN SMALL LETTER L WITH ACUTE
ENCODING 314
SWIDTH 392 0
DWIDTH 6 0
BBX 3 8 1 0
BITMAP
20
40
C0
40
40
40
40
E0
ENDCHAR
STARTCHAR LATIN CAPITAL LETTER L WITH CEDILLA
ENCODING 315
SWIDTH 392 0
DWIDTH 6 0
BBX 5 9 0 -2
BITMAP
80
80
80
80
80
80
F8
20
60
ENDCHAR
STARTCHAR LATIN SMALL LETTER L WITH CEDILLA
ENCODING 316
SWIDTH 392 0
DWIDTH 6 0
BBX 3 9 1 -2
BITMAP
C0
40
40
40
40
40
E0
40
C0
ENDCHAR
STARTCHAR LATIN CAPITAL LETTER L WITH CARON
ENCODING 317
SWIDTH 392 0
DWIDTH 6 0
BBX 5 8 0 0
BITMAP
28
90
80
80
80
80
80
F8
ENDCHAR
STARTCHAR LATIN SMALL LETTER L WITH CARON
ENCODING 318
SWIDTH 392 0
DWIDTH 6 0
BBX 3 8 1 0
BITMAP
A0
40
C0
40
40
40
40
E0
ENDCHAR
STARTCHAR LATIN CAPITAL LETTER L WITH MIDDLE DOT
ENCODING 319
SWIDTH 392 0
DWIDTH 6 0
BBX 5 7 0 0
BITMAP
80
80
A0
80
80
80
F8
ENDCHAR
STARTCHAR LATIN SMALL LETTER L WITH MIDDLE DOT
ENCODING 320
SWIDTH 392 0
DWIDTH 6 0
BBX 4 7 1 0
BITMAP
C0
40
50
40
40
40
E0
ENDCHAR
STARTCHAR LATIN CAPITAL LETTER L WITH STROKE
ENCODING 321
SWIDTH 392 0
DWIDTH 6 0
BBX 6 7 0 0
BITMAP
40
40
60
C0
40
40
7C
ENDCHAR
STARTCHAR LATIN SMALL LETTER L WITH STROKE
ENCODING 322
SWIDTH 392 0
DWIDTH 6 0
BBX 3 7 1 0
BITMAP
C0
40
60
C0
40
40
E0
ENDCHAR
STARTCHAR LATIN CAPITAL LETTER N WITH ACUTE
ENCODING 323
SWIDTH 392 0
DWIDTH 6 0
BBX 5 8 0 0
BITMAP
10
20
88
C8
A8
98
88
88
ENDCHAR
STARTCHAR LATIN SMALL LETTER N WITH ACUTE
ENCODING 324
SWIDTH 392 0
DWIDTH 6 0
BBX 5 8 0 0
BITMAP
10
20
00
B0
C8
88
88
88
ENDCHAR
STARTCHAR LATIN CAPITAL LETTER N WITH CEDILLA
ENCODING 325
SWIDTH 392 0
DWIDTH 6 0
BBX 5 9 0 -2
BITMAP
88
88
C8
A8
98
88
88
20
40
ENDCHAR
STARTCHAR LATIN SMALL LETTER N WITH CEDILLA
ENCODING 326
SWIDTH 392 0
DWIDTH 6 0
BBX 5 7 0 -2
BITMAP
B0
C8
88
88
88
20
40
ENDCHAR
STARTCHAR LATIN CAPITAL LETTER N WITH CARON
ENCODING 327
SWIDTH 392 0
DWIDTH 6 0
BBX 5 8 0 0
BITMAP
50
20
88
C8
A8
98
88
88
ENDCHAR
STARTCHAR LATIN SMALL LETTER N WITH CARON
ENCODING 328
SWIDTH 392 0
DWIDTH 6 0
BBX 5 8 0 0
BITMAP
50
20
00
B0
C8
88
88
88
ENDCHAR
STARTCHAR LATIN SMALL LETTER N PRECEDED BY APOSTROPHE
ENCODING 329
SWIDTH 392 0
DWIDTH 6 0
BBX 6 8 0 0
BITMAP
C0
40
80
28
34
24
24
24
ENDCHAR
STARTCHAR LATIN CAPITAL LETTER ENG
ENCODING 330
SWIDTH 392 0
DWIDTH 6 0
BBX 5 9 0 -2
BITMAP
88
88
C8
A8
98
88
88
08
30
ENDCHAR
STARTCHAR LATIN SMALL LETTER ENG
ENCODING 331
SWIDTH 392 0
DWIDTH 6 0
BBX 5 7 0 -2
BITMAP
B0
C8
88
88
88
08
30
ENDCHAR
STARTCHAR LATIN CAPITAL LETTER O WITH MACRON
ENCODING 332
SWIDTH 392 0
DWIDTH 6 0
BBX 5 8 0 0
BITMAP
70
00
70
88
88
88
88
70
ENDCHAR
STARTCHAR LATIN SMALL LETTER O WITH MACRON
ENCODING 333
SWIDTH 392 0
DWIDTH 6 0
BBX 5 7 0 0
BITMAP
70
00
70
88
88
88
70
ENDCHAR
STARTCHAR LATIN CAPITAL LETTER O WITH BREVE
ENCODING 334
SWIDTH 392 0
DWIDTH 6 0
BBX 5 8 0 0
BITMAP
88
70
70
88
88
88
88
70
ENDCHAR
STARTCHAR LATIN SMALL LETTER O WITH BREVE
ENCODING 335
SWIDTH 392 0
DWIDTH 6 0
BBX 5 8 0 0
BITMAP
88
70
00
70
88
88
88
70
ENDCHAR
STARTCHAR LATIN CAPITAL LETTER O WITH DOUBLE ACUTE
ENCODING 336
SWIDTH 392 0
DWIDTH 6 0
BBX 5 8 0 0
BITMAP
48
90
70
88
88
88
88
70
ENDCHAR
STARTCHAR LATIN SMALL LETTER O WITH DOUBLE ACUTE
ENCODING 337
SWIDTH 392 0
DWIDTH 6 0
BBX 5 8 0 0
BITMAP
48
90
00
70
88
88
88
70
ENDCHAR
STARTCHAR LATIN CAPITAL LIGATURE OE
ENCODING 338
SWIDTH 392 0
DWIDTH 6 0
BBX 5 7 0 0
BITMAP
78
A0
A0
B0
A0
A0
78
ENDCHAR
STARTCHAR LATIN SMALL LIGATURE OE
ENCODING 339
SWIDTH 392 0
DWIDTH 6 0
BBX 5 5 0 0
BITMAP
70
A8
B0
A0
78
ENDCHAR
STARTCHAR LATIN CAPITAL LETTER R WITH ACUTE
ENCODING 340
SWIDTH 392 0
DWIDTH 6 0
BBX 5 8 0 0
BITMAP
10
20
F0
88
F0
A0
90
88
ENDCHAR
STARTCHAR LATIN SMALL LETTER R WITH ACUTE
ENCODING 341
SWIDTH 392 0
DWIDTH 6 0
BBX 5 8 0 0
BITMAP
10
20
00
B0
C8
80
80
80
ENDCHAR
STARTCHAR LATIN CAPITAL LETTER R WITH CEDILLA
ENCODING 342
SWIDTH 392 0
DWIDTH 6 0
BBX 6 9 0 -2
BITMAP
78
44
44
78
50
48
44
20
C0
ENDCHAR
STARTCHAR LATIN SMALL LETTER R WITH CEDILLA
ENCODING 343
SWIDTH 392 0
DWIDTH 6 0
BBX 6 7 0 -2
BITMAP
58
64
40
40
40
20
C0
ENDCHAR
STARTCHAR LATIN CAPITAL LETTER R WITH CARON
ENCODING 344
SWIDTH 392 0
DWIDTH 6 0
BBX 5 8 0 0
BITMAP
50
20
F0
88
F0
A0
90
88
ENDCHAR
STARTCHAR LATIN SMALL LETTER R WITH CARON
ENCODING 345
SWIDTH 392 0
DWIDTH 6 0
BBX 5 8 0 0
BITMAP
50
20
00
B0
C8
80
80
80
ENDCHAR
STARTCHAR LATIN CAPITAL LETTER S WITH ACUTE
ENCODING 346
SWIDTH 392 0
DWIDTH 6 0
BBX 5 8 0 0
BITMAP
10
20
78
80
70
08
88
70
ENDCHAR
STARTCHAR LATIN SMALL LETTER S WITH ACUTE
ENCODING 347
SWIDTH 392 0
DWIDTH 6 0
BBX 5 8 0 0
BITMAP
10
20
00
70
80
70
08
F0
ENDCHAR
STARTCHAR LATIN CAPITAL LETTER S WITH CIRCUMFLEX
ENCODING 348
SWIDTH 392 0
DWIDTH 6 0
BBX 5 8 0 0
BITMAP
20
50
78
80
70
08
88
70
ENDCHAR
STARTCHAR LATIN SMALL LETTER S WITH CIRCUMFLEX
ENCODING 349
SWIDTH 392 0
DWIDTH 6 0
BBX 5 8 0 0
BITMAP
20
50
00
70
80
70
08
F0
ENDCHAR
STARTCHAR LATIN CAPITAL LETTER S WITH CEDILLA
ENCODING 350
SWIDTH 392 0
DWIDTH 6 0
BBX 5 9 0 -2
BITMAP
70
88
80
70
08
88
70
20
40
ENDCHAR
STARTCHAR LATIN SMALL LETTER S WITH CEDILLA
ENCODING 351
SWIDTH 392 0
DWIDTH 6 0
BBX 5 7 0 -2
BITMAP
70
80
70
08
F0
20
40
ENDCHAR
STARTCHAR LATIN CAPITAL LETTER S WITH CARON
ENCODING 352
SWIDTH 392 0
DWIDTH 6 0
BBX 5 8 0 0
BITMAP
50
20
70
80
70
08
88
70
ENDCHAR
STARTCHAR LATIN SMALL LETTER S WITH CARON
ENCODING 353
SWIDTH 392 0
DWIDTH 6 0
BBX 5 8 0 0
BITMAP
50
20
00
70
80
70
08
F0
ENDCHAR
STARTCHAR LATIN CAPITAL LETTER T WITH CEDILLA
ENCODING 354
SWIDTH 392 0
DWIDTH 6 0
BBX 5 9 0 -2
BITMAP
F8
20
20
20
20
20
20
10
60
ENDCHAR
STARTCHAR LATIN SMALL LETTER T WITH CEDILLA
ENCODING 355
SWIDTH 392 0
DWIDTH 6 0
BBX 5 9 0 -2
BITMAP
40
40
F0
40
40
48
30
10
60
ENDCHAR
STARTCHAR LATIN CAPITAL LETTER T WITH CARON
ENCODING 356
SWIDTH 392 0
DWIDTH 6 0
BBX 5 8 0 0
BITMAP
50
20
F8
20
20
20
20
20
ENDCHAR
STARTCHAR LATIN SMALL LETTER T WITH CARON
ENCODING 357
SWIDTH 392 0
DWIDTH 6 0
BBX 5 8 0 0
BITMAP
A0
40
40
F0
40
40
48
30
ENDCHAR
STARTCHAR LATIN CAPITAL LETTER T WITH STROKE
ENCODING 358
SWIDTH 392 0
DWIDTH 6 0
BBX 5 7 0 0
BITMAP
F8
20
20
70
20
20
20
ENDCHAR
STARTCHAR LATIN SMALL LETTER T WITH STROKE
ENCODING 359
SWIDTH 392 0
DWIDTH 6 0
BBX 5 7 0 0
BITMAP
40
F0
40
F0
40
48
30
ENDCHAR
STARTCHAR LATIN CAPITAL LETTER U WITH TILDE
ENCODING 360
SWIDTH 392 0
DWIDTH 6 0
BBX 5 8 0 0
BITMAP
28
50
00
88
88
88
88
70
ENDCHAR
STARTCHAR LATIN SMALL LETTER U WITH TILDE
ENCODING 361
SWIDTH 392 0
DWIDTH 6 0
BBX 5 8 0 0
BITMAP
28
50
00
88
88
88
98
68
ENDCHAR
STARTCHAR LATIN CAPITAL LETTER U WITH MACRON
ENCODING 362
SWIDTH 392 0
DWIDTH 6 0
BBX 5 8 0 0
BITMAP
70
00
88
88
88
88
88
70
ENDCHAR
STARTCHAR LATIN SMALL LETTER U WITH MACRON
ENCODING 363
SWIDTH 392 0
DWIDTH 6 0
BBX 5 7 0 0
BITMAP
70
00
88
88
88
98
68
ENDCHAR
STARTCHAR LATIN CAPITAL LETTER U WITH BREVE
ENCODING 364
SWIDTH 392 0
DWIDTH 6 0
BBX 5 8 0 0
BITMAP
88
70
00
88
88
88
88
70
ENDCHAR
STARTCHAR LATIN SMALL LETTER U WITH BREVE
ENCODING 365
SWIDTH 392 0
DWIDTH 6 0
BBX 5 8 0 0
BITMAP
88
70
00
88
88
88
98
68
ENDCHAR
STARTCHAR LATIN CAPITAL LETTER U WITH RING ABOVE
ENCODING 366
SWIDTH 392 0
DWIDTH 6 0
BBX 5 8 0 0
BITMAP
20
50
A8
88
88
88
88
70
ENDCHAR
STARTCHAR LATIN SMALL LETTER U WITH RING ABOVE
ENCODING 367
SWIDTH 392 0
DWIDTH 6 0
BBX 5 8 0 0
BITMAP
20
50
20
88
88
88
98
68
ENDCHAR
STARTCHAR LATIN CAPITAL LETTER U WITH DOUBLE ACUTE
ENCODING 368
SWIDTH 392 0
DWIDTH 6 0
BBX 5 8 0 0
BITMAP
48
90
00
88
88
88
88
70
ENDCHAR
STARTCHAR LATIN SMALL LETTER U WITH DOUBLE ACUTE
ENCODING 369
SWIDTH 392 0
DWIDTH 6 0
BBX 5 8 0 0
BITMAP
48
90
00
88
88
88
98
68
ENDCHAR
STARTCHAR LATIN CAPITAL LETTER U WITH OGONEK
ENCODING 370
SWIDTH 392 0
DWIDTH 6 0
BBX 5 9 0 -2
BITMAP
88
88
88
88
88
88
70
20
30
ENDCHAR
STARTCHAR LATIN SMALL LETTER U WITH OGONEK
ENCODING 371
SWIDTH 392 0
DWIDTH 6 0
BBX 5 7 0 -2
BITMAP
88
88
88
88
70
10
18
ENDCHAR
STARTCHAR LATIN CAPITAL LETTER W WITH CIRCUMFLEX
ENCODING 372
SWIDTH 392 0
DWIDTH 6 0
BBX 5 8 0 0
BITMAP
20
50
00
88
A8
A8
D8
88
ENDCHAR
STARTCHAR LATIN SMALL LETTER W WITH CIRCUMFLEX
ENCODING 373
SWIDTH 392 0
DWIDTH 6 0
BBX 5 8 0 0
BITMAP
20
50
00
88
88
A8
A8
50
ENDCHAR
STARTCHAR LATIN CAPITAL LETTER Y WITH CIRCUMFLEX
ENCODING 374
SWIDTH 392 0
DWIDTH 6 0
BBX 5 8 0 0
BITMAP
20
50
00
88
50
20
20
20
ENDCHAR
STARTCHAR LATIN SMALL LETTER Y WITH CIRCUMFLEX
ENCODING 375
SWIDTH 392 0
DWIDTH 6 0
BBX 6 10 0 -2
BITMAP
20
50
00
88
88
98
68
08
88
70
ENDCHAR
STARTCHAR LATIN CAPITAL LETTER Y WITH DIAERESIS
ENCODING 376
SWIDTH 392 0
DWIDTH 6 0
BBX 5 8 0 0
BITMAP
50
00
88
50
20
20
20
20
ENDCHAR
STARTCHAR LATIN CAPITAL LETTER Z WITH ACUTE
ENCODING 377
SWIDTH 392 0
DWIDTH 6 0
BBX 5 8 0 0
BITMAP
10
20
F8
10
20
40
80
F8
ENDCHAR
STARTCHAR LATIN SMALL LETTER Z WITH ACUTE
ENCODING 378
SWIDTH 392 0
DWIDTH 6 0
BBX 5 8 0 0
BITMAP
10
20
00
F8
10
20
40
F8
ENDCHAR
STARTCHAR LATIN CAPITAL LETTER Z WITH DOT ABOVE
ENCODING 379
SWIDTH 392 0
DWIDTH 6 0
BBX 5 8 0 0
BITMAP
20
00
F8
10
20
40
80
F8
ENDCHAR
STARTCHAR LATIN SMALL LETTER Z WITH DOT ABOVE
ENCODING 380
SWIDTH 392 0
DWIDTH 6 0
BBX 5 7 0 0
BITMAP
20
00
F8
10
20
40
F8
ENDCHAR
STARTCHAR LATIN CAPITAL LETTER Z WITH CARON
ENCODING 381
SWIDTH 392 0
DWIDTH 6 0
BBX 5 8 0 0
BITMAP
50
20
F8
10
20
40
80
F8
ENDCHAR
STARTCHAR LATIN SMALL LETTER Z WITH CARON
ENCODING 382
SWIDTH 392 0
DWIDTH 6 0
BBX 5 8 0 0
BITMAP
50
20
00
F8
10
20
40
F8
ENDCHAR
STARTCHAR LATIN SMALL LETTER LONG S
ENCODING 383
SWIDTH 392 0
DWIDTH 6 0
BBX 5 7 0 0
BITMAP
30
48
40
C0
40
40
40
ENDCHAR
STARTCHAR LATIN CAPITAL LETTER SCHWA
ENCODING 399
SWIDTH 392 0
DWIDTH 6 0
BBX 5 7 0 0
BITMAP
70
88
08
F8
88
88
70
ENDCHAR
STARTCHAR LATIN SMALL LETTER F WITH HOOK
ENCODING 402
SWIDTH 392 0
DWIDTH 6 0
BBX 5 8 0 -1
BITMAP
10
28
20
70
20
20
A0
40
ENDCHAR
STARTCHAR LATIN CAPITAL LETTER O WITH HORN
ENCODING 416
SWIDTH 392 0
DWIDTH 6 0
BBX 6 7 0 0
BITMAP
64
94
98
90
90
90
60
ENDCHAR
STARTCHAR LATIN SMALL LETTER O WITH HORN
ENCODING 417
SWIDTH 392 0
DWIDTH 6 0
BBX 6 5 0 0
BITMAP
64
98
90
90
60
ENDCHAR
STARTCHAR LATIN CAPITAL LETTER U WITH HORN
ENCODING 431
SWIDTH 392 0
DWIDTH 6 0
BBX 6 7 0 0
BITMAP
94
94
98
90
90
90
60
ENDCHAR
STARTCHAR LATIN SMALL LETTER U WITH HORN
ENCODING 432
SWIDTH 392 0
DWIDTH 6 0
BBX 6 5 0 0
BITMAP
94
98
90
B0
50
ENDCHAR
STARTCHAR LATIN CAPITAL LETTER Z WITH STROKE
ENCODING 437
SWIDTH 392 0
DWIDTH 6 0
BBX 5 7 0 0
BITMAP
F8
08
10
F8
40
80
F8
ENDCHAR
STARTCHAR LATIN SMALL LETTER Z WITH STROKE
ENCODING 438
SWIDTH 392 0
DWIDTH 6 0
BBX 5 5 0 0
BITMAP
F8
10
F8
40
F8
ENDCHAR
STARTCHAR LATIN CAPITAL LETTER O WITH CARON
ENCODING 465
SWIDTH 392 0
DWIDTH 6 0
BBX 5 8 0 0
BITMAP
50
20
70
88
88
88
88
70
ENDCHAR
STARTCHAR LATIN SMALL LETTER O WITH CARON
ENCODING 466
SWIDTH 392 0
DWIDTH 6 0
BBX 5 8 0 0
BITMAP
50
20
00
70
88
88
88
70
ENDCHAR
STARTCHAR LATIN CAPITAL LETTER G WITH CARON
ENCODING 486
SWIDTH 392 0
DWIDTH 6 0
BBX 5 8 0 0
BITMAP
50
20
70
88
80
98
88
70
ENDCHAR
STARTCHAR LATIN SMALL LETTER G WITH CARON
ENCODING 487
SWIDTH 392 0
DWIDTH 6 0
BBX 6 10 0 -2
BITMAP
50
20
00
68
90
60
80
70
88
70
ENDCHAR
STARTCHAR LATIN CAPITAL LETTER A WITH RING ABOVE AND ACUTE
ENCODING 506
SWIDTH 392 0
DWIDTH 6 0
BBX 5 8 0 0
BITMAP
10
20
20
50
70
88
F8
88
ENDCHAR
STARTCHAR LATIN SMALL LETTER A WITH RING ABOVE AND ACUTE
ENCODING 507
SWIDTH 392 0
DWIDTH 6 0
BBX 5 8 0 0
BITMAP
10
20
20
50
20
78
88
78
ENDCHAR
STARTCHAR LATIN CAPITAL LETTER AE WITH ACUTE
ENCODING 508
SWIDTH 392 0
DWIDTH 6 0
BBX 6 8 0 0
BITMAP
08
10
7C
90
9C
F0
90
9C
ENDCHAR
STARTCHAR LATIN SMALL LETTER AE WITH ACUTE
ENCODING 509
SWIDTH 392 0
DWIDTH 6 0
BBX 6 8 0 0
BITMAP
08
10
00
78
14
7C
90
7C
ENDCHAR
STARTCHAR LATIN CAPITAL LETTER O WITH STROKE AND ACUTE
ENCODING 510
SWIDTH 392 0
DWIDTH 6 0
BBX 5 8 0 0
BITMAP
10
20
70
98
A8
A8
C8
70
ENDCHAR
STARTCHAR LATIN SMALL LETTER O WITH STROKE AND ACUTE
ENCODING 511
SWIDTH 392 0
DWIDTH 6 0
BBX 5 8 0 0
BITMAP
10
20
00
78
98
A8
C8
F0
ENDCHAR
STARTCHAR LATIN CAPITAL LETTER S WITH COMMA BELOW
ENCODING 536
SWIDTH 392 0
DWIDTH 6 0
BBX 5 9 0 -2
BITMAP
70
88
80
70
08
88
70
20
40
ENDCHAR
STARTCHAR LATIN SMALL LETTER S WITH COMMA BELOW
ENCODING 537
SWIDTH 392 0
DWIDTH 6 0
BBX 5 7 0 -2
BITMAP
70
80
70
08
F0
20
40
ENDCHAR
STARTCHAR LATIN CAPITAL LETTER T WITH COMMA BELOW
ENCODING 538
SWIDTH 392 0
DWIDTH 6 0
BBX 5 9 0 -2
BITMAP
F8
20
20
20
20
20
20
10
20
ENDCHAR
STARTCHAR LATIN SMALL LETTER T WITH COMMA BELOW
ENCODING 539
SWIDTH 392 0
DWIDTH 6 0
BBX 5 9 0 -2
BITMAP
40
40
F0
40
40
48
30
10
20
ENDCHAR
STARTCHAR LATIN SMALL LETTER SCHWA
ENCODING 601
SWIDTH 392 0
DWIDTH 6 0
BBX 5 5 0 0
BITMAP
70
08
F8
88
70
ENDCHAR
STARTCHAR MODIFIER LETTER APOSTROPHE
ENCODING 700
SWIDTH 392 0
DWIDTH 6 0
BBX 2 3 2 4
BITMAP
C0
40
80
ENDCHAR
STARTCHAR MODIFIER LETTER REVERSED COMMA
ENCODING 701
SWIDTH 392 0
DWIDTH 6 0
BBX 2 3 2 4
BITMAP
C0
80
40
ENDCHAR
STARTCHAR MODIFIER LETTER CIRCUMFLEX ACCENT
ENCODING 710
SWIDTH 392 0
DWIDTH 6 0
BBX 3 2 1 6
BITMAP
40
A0
ENDCHAR
STARTCHAR CARON
ENCODING 711
SWIDTH 392 0
DWIDTH 6 0
BBX 3 2 1 6
BITMAP
A0
40
ENDCHAR
STARTCHAR MODIFIER LETTER MACRON
ENCODING 713
SWIDTH 392 0
DWIDTH 6 0
BBX 3 1 1 7
BITMAP
E0
ENDCHAR
STARTCHAR MODIFIER LETTER PLUS SIGN
ENCODING 726
SWIDTH 392 0
DWIDTH 6 0
BBX 3 3 1 5
BITMAP
40
E0
40
ENDCHAR
STARTCHAR BREVE
ENCODING 728
SWIDTH 392 0
DWIDTH 6 0
BBX 5 2 0 6
BITMAP
88
70
ENDCHAR
STARTCHAR DOT ABOVE
ENCODING 729
SWIDTH 392 0
DWIDTH 6 0
BBX 1 1 2 7
BITMAP
80
ENDCHAR
STARTCHAR RING ABOVE
ENCODING 730
SWIDTH 392 0
DWIDTH 6 0
BBX 3 3 1 5
BITMAP
40
A0
40
ENDCHAR
STARTCHAR OGONEK
ENCODING 731
SWIDTH 392 0
DWIDTH 6 0
BBX 2 2 2 -2
BITMAP
80
C0
ENDCHAR
STARTCHAR SMALL TILDE
ENCODING 732
SWIDTH 392 0
DWIDTH 6 0
BBX 4 2 1 6
BITMAP
50
A0
ENDCHAR
STARTCHAR DOUBLE ACUTE ACCENT
ENCODING 733
SWIDTH 392 0
DWIDTH 6 0
BBX 5 2 0 6
BITMAP
48
90
ENDCHAR
STARTCHAR COMBINING GRAVE ACCENT
ENCODING 768
SWIDTH 392 0
DWIDTH 6 0
BBX 2 2 2 6
BITMAP
80
40
ENDCHAR
STARTCHAR COMBINING ACUTE ACCENT
ENCODING 769
SWIDTH 392 0
DWIDTH 6 0
BBX 2 2 2 6
BITMAP
40
80
ENDCHAR
STARTCHAR COMBINING CIRCUMFLEX ACCENT
ENCODING 770
SWIDTH 392 0
DWIDTH 6 0
BBX 3 2 1 6
BITMAP
40
A0
ENDCHAR
STARTCHAR COMBINING TILDE
ENCODING 771
SWIDTH 392 0
DWIDTH 6 0
BBX 4 2 1 6
BITMAP
50
A0
ENDCHAR
STARTCHAR COMBINING MACRON
ENCODING 772
SWIDTH 392 0
DWIDTH 6 0
BBX 3 1 1 7
BITMAP
E0
ENDCHAR
STARTCHAR COMBINING OVERLINE
ENCODING 773
SWIDTH 392 0
DWIDTH 6 0
BBX 5 1 0 7
BITMAP
F8
ENDCHAR
STARTCHAR COMBINING BREVE
ENCODING 774
SWIDTH 392 0
DWIDTH 6 0
BBX 5 2 0 6
BITMAP
88
70
ENDCHAR
STARTCHAR COMBINING DOT ABOVE
ENCODING 775
SWIDTH 392 0
DWIDTH 6 0
BBX 1 1 2 7
BITMAP
80
ENDCHAR
STARTCHAR COMBINING DIAERESIS
ENCODING 776
SWIDTH 392 0
DWIDTH 6 0
BBX 3 1 1 7
BITMAP
A0
ENDCHAR
STARTCHAR COMBINING HOOK ABOVE
ENCODING 777
SWIDTH 392 0
DWIDTH 6 0
BBX 3 3 1 5
BITMAP
C0
20
40
ENDCHAR
STARTCHAR COMBINING RING ABOVE
ENCODING 778
SWIDTH 392 0
DWIDTH 6 0
BBX 3 3 1 5
BITMAP
40
A0
40
ENDCHAR
STARTCHAR COMBINING DOUBLE ACUTE ACCENT
ENCODING 779
SWIDTH 392 0
DWIDTH 6 0
BBX 5 2 0 6
BITMAP
48
90
ENDCHAR
STARTCHAR COMBINING CARON
ENCODING 780
SWIDTH 392 0
DWIDTH 6 0
BBX 3 2 1 6
BITMAP
A0
40
ENDCHAR
STARTCHAR COMBINING VERTICAL LINE ABOVE
ENCODING 781
SWIDTH 392 0
DWIDTH 6 0
BBX 1 2 2 6
BITMAP
80
80
ENDCHAR
STARTCHAR COMBINING DOUBLE VERTICAL LINE ABOVE
ENCODING 782
SWIDTH 392 0
DWIDTH 6 0
BBX 3 2 1 6
BITMAP
A0
A0
ENDCHAR
STARTCHAR COMBINING DOUBLE GRAVE ACCENT
ENCODING 783
SWIDTH 392 0
DWIDTH 6 0
BBX 5 2 0 6
BITMAP
90
48
ENDCHAR
STARTCHAR COMBINING CANDRABINDU
ENCODING 784
SWIDTH 392 0
DWIDTH 6 0
BBX 5 2 0 6
BITMAP
A8
70
ENDCHAR
STARTCHAR COMBINING INVERTED BREVE
ENCODING 785
SWIDTH 392 0
DWIDTH 6 0
BBX 5 2 0 6
BITMAP
70
88
ENDCHAR
STARTCHAR COMBINING DOT BELOW
ENCODING 803
SWIDTH 392 0
DWIDTH 6 0
BBX 1 1 2 -2
BITMAP
80
ENDCHAR
STARTCHAR COMBINING DIAERESIS BELOW
ENCODING 804
SWIDTH 392 0
DWIDTH 6 0
BBX 3 1 1 -2
BITMAP
A0
ENDCHAR
STARTCHAR COMBINING LONG SOLIDUS OVERLAY
ENCODING 824
SWIDTH 392 0
DWIDTH 6 0
BBX 3 6 1 0
BITMAP
20
20
40
40
80
80
ENDCHAR
STARTCHAR COMBINING GRAVE TONE MARK
ENCODING 832
SWIDTH 392 0
DWIDTH 6 0
BBX 2 2 2 6
BITMAP
80
40
ENDCHAR
STARTCHAR COMBINING ACUTE TONE MARK
ENCODING 833
SWIDTH 392 0
DWIDTH 6 0
BBX 2 2 2 6
BITMAP
40
80
ENDCHAR
STARTCHAR GREEK NUMERAL SIGN
ENCODING 884
SWIDTH 392 0
DWIDTH 6 0
BBX 2 2 2 5
BITMAP
40
80
ENDCHAR
STARTCHAR GREEK LOWER NUMERAL SIGN
ENCODING 885
SWIDTH 392 0
DWIDTH 6 0
BBX 2 2 2 -2
BITMAP
40
80
ENDCHAR
STARTCHAR GREEK YPOGEGRAMMENI
ENCODING 890
SWIDTH 392 0
DWIDTH 6 0
BBX 2 2 2 -2
BITMAP
80
C0
ENDCHAR
STARTCHAR GREEK QUESTION MARK
ENCODING 894
SWIDTH 392 0
DWIDTH 6 0
BBX 3 7 1 -1
BITMAP
40
E0
40
00
60
40
80
ENDCHAR
STARTCHAR GREEK TONOS
ENCODING 900
SWIDTH 392 0
DWIDTH 6 0
BBX 2 2 2 5
BITMAP
40
80
ENDCHAR
STARTCHAR GREEK DIALYTIKA TONOS
ENCODING 901
SWIDTH 392 0
DWIDTH 6 0
BBX 5 2 0 5
BITMAP
10
A8
ENDCHAR
STARTCHAR GREEK CAPITAL LETTER ALPHA WITH TONOS
ENCODING 902
SWIDTH 392 0
DWIDTH 6 0
BBX 6 7 0 0
BITMAP
58
A4
24
24
3C
24
24
ENDCHAR
STARTCHAR GREEK ANO TELEIA
ENCODING 903
SWIDTH 392 0
DWIDTH 6 0
BBX 1 1 2 4
BITMAP
80
ENDCHAR
STARTCHAR GREEK CAPITAL LETTER EPSILON WITH TONOS
ENCODING 904
SWIDTH 392 0
DWIDTH 6 0
BBX 6 7 0 0
BITMAP
7C
A0
20
38
20
20
3C
ENDCHAR
STARTCHAR GREEK CAPITAL LETTER ETA WITH TONOS
ENCODING 905
SWIDTH 392 0
DWIDTH 6 0
BBX 6 7 0 0
BITMAP
64
A4
24
3C
24
24
24
ENDCHAR
STARTCHAR GREEK CAPITAL LETTER IOTA WITH TONOS
ENCODING 906
SWIDTH 392 0
DWIDTH 6 0
BBX 6 7 0 0
BITMAP
5C
88
08
08
08
08
1C
ENDCHAR
STARTCHAR GREEK CAPITAL LETTER OMICRON WITH TONOS
ENCODING 908
SWIDTH 392 0
DWIDTH 6 0
BBX 6 7 0 0
BITMAP
58
A4
24
24
24
24
18
ENDCHAR
STARTCHAR GREEK CAPITAL LETTER UPSILON WITH TONOS
ENCODING 910
SWIDTH 392 0
DWIDTH 6 0
BBX 6 7 0 0
BITMAP
54
94
14
08
08
08
08
ENDCHAR
STARTCHAR GREEK CAPITAL LETTER OMEGA WITH TONOS
ENCODING 911
SWIDTH 392 0
DWIDTH 6 0
BBX 6 7 0 0
BITMAP
58
A4
24
24
24
18
3C
ENDCHAR
STARTCHAR GREEK SMALL LETTER IOTA WITH DIALYTIKA AND TONOS
ENCODING 912
SWIDTH 392 0
DWIDTH 6 0
BBX 5 8 0 0
BITMAP
10
A8
00
20
20
20
28
10
ENDCHAR
STARTCHAR GREEK CAPITAL LETTER ALPHA
ENCODING 913
SWIDTH 392 0
DWIDTH 6 0
BBX 5 7 0 0
BITMAP
20
50
88
88
F8
88
88
ENDCHAR
STARTCHAR GREEK CAPITAL LETTER BETA
ENCODING 914
SWIDTH 392 0
DWIDTH 6 0
BBX 5 7 0 0
BITMAP
F0
88
88
F0
88
88
F0
ENDCHAR
STARTCHAR GREEK CAPITAL LETTER GAMMA
ENCODING 915
SWIDTH 392 0
DWIDTH 6 0
BBX 5 7 0 0
BITMAP
F8
80
80
80
80
80
80
ENDCHAR
STARTCHAR GREEK CAPITAL LETTER DELTA
ENCODING 916
SWIDTH 392 0
DWIDTH 6 0
BBX 5 7 0 0
BITMAP
20
50
50
50
88
88
F8
ENDCHAR
STARTCHAR GREEK CAPITAL LETTER EPSILON
ENCODING 917
SWIDTH 392 0
DWIDTH 6 0
BBX 5 7 0 0
BITMAP
F8
80
80
F0
80
80
F8
ENDCHAR
STARTCHAR GREEK CAPITAL LETTER ZETA
ENCODING 918
SWIDTH 392 0
DWIDTH 6 0
BBX 5 7 0 0
BITMAP
F8
08
10
20
40
80
F8
ENDCHAR
STARTCHAR GREEK CAPITAL LETTER ETA
ENCODING 919
SWIDTH 392 0
DWIDTH 6 0
BBX 5 7 0 0
BITMAP
88
88
88
F8
88
88
88
ENDCHAR
STARTCHAR GREEK CAPITAL LETTER THETA
ENCODING 920
SWIDTH 392 0
DWIDTH 6 0
BBX 5 7 0 0
BITMAP
70
88
88
F8
88
88
70
ENDCHAR
STARTCHAR GREEK CAPITAL LETTER IOTA
ENCODING 921
SWIDTH 392 0
DWIDTH 6 0
BBX 3 7 1 0
BITMAP
E0
40
40
40
40
40
E0
ENDCHAR
STARTCHAR GREEK CAPITAL LETTER KAPPA
ENCODING 922
SWIDTH 392 0
DWIDTH 6 0
BBX 5 7 0 0
BITMAP
88
90
A0
C0
A0
90
88
ENDCHAR
STARTCHAR GREEK CAPITAL LETTER LAMDA
ENCODING 923
SWIDTH 392 0
DWIDTH 6 0
BBX 5 7 0 0
BITMAP
20
50
50
50
88
88
88
ENDCHAR
STARTCHAR GREEK CAPITAL LETTER MU
ENCODING 924
SWIDTH 392 0
DWIDTH 6 0
BBX 5 7 0 0
BITMAP
88
88
D8
A8
88
88
88
ENDCHAR
STARTCHAR GREEK CAPITAL LETTER NU
ENCODING 925
SWIDTH 392 0
DWIDTH 6 0
BBX 5 7 0 0
BITMAP
88
88
C8
A8
98
88
88
ENDCHAR
STARTCHAR GREEK CAPITAL LETTER XI
ENCODING 926
SWIDTH 392 0
DWIDTH 6 0
BBX 5 7 0 0
BITMAP
F8
00
00
70
00
00
F8
ENDCHAR
STARTCHAR GREEK CAPITAL LETTER OMICRON
ENCODING 927
SWIDTH 392 0
DWIDTH 6 0
BBX 5 7 0 0
BITMAP
70
88
88
88
88
88
70
ENDCHAR
STARTCHAR GREEK CAPITAL LETTER PI
ENCODING 928
SWIDTH 392 0
DWIDTH 6 0
BBX 5 7 0 0
BITMAP
F8
88
88
88
88
88
88
ENDCHAR
STARTCHAR GREEK CAPITAL LETTER RHO
ENCODING 929
SWIDTH 392 0
DWIDTH 6 0
BBX 5 7 0 0
BITMAP
F0
88
88
F0
80
80
80
ENDCHAR
STARTCHAR GREEK CAPITAL LETTER SIGMA
ENCODING 931
SWIDTH 392 0
DWIDTH 6 0
BBX 5 7 0 0
BITMAP
F8
80
40
20
40
80
F8
ENDCHAR
STARTCHAR GREEK CAPITAL LETTER TAU
ENCODING 932
SWIDTH 392 0
DWIDTH 6 0
BBX 5 7 0 0
BITMAP
F8
20
20
20
20
20
20
ENDCHAR
STARTCHAR GREEK CAPITAL LETTER UPSILON
ENCODING 933
SWIDTH 392 0
DWIDTH 6 0
BBX 5 7 0 0
BITMAP
88
88
50
20
20
20
20
ENDCHAR
STARTCHAR GREEK CAPITAL LETTER PHI
ENCODING 934
SWIDTH 392 0
DWIDTH 6 0
BBX 5 7 0 0
BITMAP
20
70
A8
A8
A8
70
20
ENDCHAR
STARTCHAR GREEK CAPITAL LETTER CHI
ENCODING 935
SWIDTH 392 0
DWIDTH 6 0
BBX 5 7 0 0
BITMAP
88
88
50
20
50
88
88
ENDCHAR
STARTCHAR GREEK CAPITAL LETTER PSI
ENCODING 936
SWIDTH 392 0
DWIDTH 6 0
BBX 5 7 0 0
BITMAP
A8
A8
A8
A8
70
20
20
ENDCHAR
STARTCHAR GREEK CAPITAL LETTER OMEGA
ENCODING 937
SWIDTH 392 0
DWIDTH 6 0
BBX 5 7 0 0
BITMAP
70
88
88
88
88
50
D8
ENDCHAR
STARTCHAR GREEK CAPITAL LETTER IOTA WITH DIALYTIKA
ENCODING 938
SWIDTH 392 0
DWIDTH 6 0
BBX 3 8 1 0
BITMAP
A0
00
E0
40
40
40
40
E0
ENDCHAR
STARTCHAR GREEK CAPITAL LETTER UPSILON WITH DIALYTIKA
ENCODING 939
SWIDTH 392 0
DWIDTH 6 0
BBX 5 8 0 0
BITMAP
88
00
88
88
50
20
20
20
ENDCHAR
STARTCHAR GREEK SMALL LETTER ALPHA WITH TONOS
ENCODING 940
SWIDTH 392 0
DWIDTH 6 0
BBX 5 8 0 0
BITMAP
10
20
00
70
88
88
98
68
ENDCHAR
STARTCHAR GREEK SMALL LETTER EPSILON WITH TONOS
ENCODING 941
SWIDTH 392 0
DWIDTH 6 0
BBX 5 8 0 0
BITMAP
10
20
00
70
88
60
88
70
ENDCHAR
STARTCHAR GREEK SMALL LETTER ETA WITH TONOS
ENCODING 942
SWIDTH 392 0
DWIDTH 6 0
BBX 6 10 0 -2
BITMAP
10
20
00
B0
C8
88
88
88
08
08
ENDCHAR
STARTCHAR GREEK SMALL LETTER IOTA WITH TONOS
ENCODING 943
SWIDTH 392 0
DWIDTH 6 0
BBX 3 8 1 0
BITMAP
40
80
00
80
80
80
A0
40
ENDCHAR
STARTCHAR GREEK SMALL LETTER UPSILON WITH DIALYTIKA AND TONOS
ENCODING 944
SWIDTH 392 0
DWIDTH 6 0
BBX 5 8 0 0
BITMAP
10
A8
00
88
88
88
88
70
ENDCHAR
STARTCHAR GREEK SMALL LETTER ALPHA
ENCODING 945
SWIDTH 392 0
DWIDTH 6 0
BBX 5 5 0 0
BITMAP
70
88
88
98
68
ENDCHAR
STARTCHAR GREEK SMALL LETTER BETA
ENCODING 946
SWIDTH 392 0
DWIDTH 6 0
BBX 5 9 0 -2
BITMAP
60
90
90
F0
88
88
F0
80
80
ENDCHAR
STARTCHAR GREEK SMALL LETTER GAMMA
ENCODING 947
SWIDTH 392 0
DWIDTH 6 0
BBX 5 7 0 -2
BITMAP
88
88
50
50
20
20
20
ENDCHAR
STARTCHAR GREEK SMALL LETTER DELTA
ENCODING 948
SWIDTH 392 0
DWIDTH 6 0
BBX 5 7 0 0
BITMAP
70
88
60
90
88
88
70
ENDCHAR
STARTCHAR GREEK SMALL LETTER EPSILON
ENCODING 949
SWIDTH 392 0
DWIDTH 6 0
BBX 5 5 0 0
BITMAP
70
88
60
88
70
ENDCHAR
STARTCHAR GREEK SMALL LETTER ZETA
ENCODING 950
SWIDTH 392 0
DWIDTH 6 0
BBX 5 9 0 -2
BITMAP
F8
20
40
40
80
80
70
08
30
ENDCHAR
STARTCHAR GREEK SMALL LETTER ETA
ENCODING 951
SWIDTH 392 0
DWIDTH 6 0
BBX 5 7 0 -2
BITMAP
B0
C8
88
88
88
08
08
ENDCHAR
STARTCHAR GREEK SMALL LETTER THETA
ENCODING 952
SWIDTH 392 0
DWIDTH 6 0
BBX 4 7 1 0
BITMAP
60
90
90
F0
90
90
60
ENDCHAR
STARTCHAR GREEK SMALL LETTER IOTA
ENCODING 953
SWIDTH 392 0
DWIDTH 6 0
BBX 3 5 1 0
BITMAP
80
80
80
A0
40
ENDCHAR
STARTCHAR GREEK SMALL LETTER KAPPA
ENCODING 954
SWIDTH 392 0
DWIDTH 6 0
BBX 5 5 0 0
BITMAP
88
90
E0
90
88
ENDCHAR
STARTCHAR GREEK SMALL LETTER LAMDA
ENCODING 955
SWIDTH 392 0
DWIDTH 6 0
BBX 5 7 0 0
BITMAP
70
88
68
98
88
88
88
ENDCHAR
STARTCHAR GREEK SMALL LETTER MU
ENCODING 956
SWIDTH 392 0
DWIDTH 6 0
BBX 5 7 0 -2
BITMAP
88
88
88
D8
A8
80
80
ENDCHAR
STARTCHAR GREEK SMALL LETTER NU
ENCODING 957
SWIDTH 392 0
DWIDTH 6 0
BBX 5 5 0 0
BITMAP
88
88
50
50
20
ENDCHAR
STARTCHAR GREEK SMALL LETTER XI
ENCODING 958
SWIDTH 392 0
DWIDTH 6 0
BBX 5 9 0 -2
BITMAP
F8
20
40
30
40
80
70
08
30
ENDCHAR
STARTCHAR GREEK SMALL LETTER OMICRON
ENCODING 959
SWIDTH 392 0
DWIDTH 6 0
BBX 5 5 0 0
BITMAP
70
88
88
88
70
ENDCHAR
STARTCHAR GREEK SMALL LETTER PI
ENCODING 960
SWIDTH 392 0
DWIDTH 6 0
BBX 5 5 0 0
BITMAP
F8
50
50
50
50
ENDCHAR
STARTCHAR GREEK SMALL LETTER RHO
ENCODING 961
SWIDTH 392 0
DWIDTH 6 0
BBX 5 7 0 -2
BITMAP
70
88
88
88
F0
80
80
ENDCHAR
STARTCHAR GREEK SMALL LETTER FINAL SIGMA
ENCODING 962
SWIDTH 392 0
DWIDTH 6 0
BBX 5 7 0 -2
BITMAP
70
88
80
80
70
08
30
ENDCHAR
STARTCHAR GREEK SMALL LETTER SIGMA
ENCODING 963
SWIDTH 392 0
DWIDTH 6 0
BBX 5 5 0 0
BITMAP
78
90
88
88
70
ENDCHAR
STARTCHAR GREEK SMALL LETTER TAU
ENCODING 964
SWIDTH 392 0
DWIDTH 6 0
BBX 5 5 0 0
BITMAP
F8
20
20
20
10
ENDCHAR
STARTCHAR GREEK SMALL LETTER UPSILON
ENCODING 965
SWIDTH 392 0
DWIDTH 6 0
BBX 5 5 0 0
BITMAP
88
88
88
88
70
ENDCHAR
STARTCHAR GREEK SMALL LETTER PHI
ENCODING 966
SWIDTH 392 0
DWIDTH 6 0
BBX 5 7 0 -2
BITMAP
50
A8
A8
A8
70
20
20
ENDCHAR
STARTCHAR GREEK SMALL LETTER CHI
ENCODING 967
SWIDTH 392 0
DWIDTH 6 0
BBX 5 7 0 -2
BITMAP
88
50
50
20
50
50
88
ENDCHAR
STARTCHAR GREEK SMALL LETTER PSI
ENCODING 968
SWIDTH 392 0
DWIDTH 6 0
BBX 5 7 0 -2
BITMAP
A8
A8
A8
A8
70
20
20
ENDCHAR
STARTCHAR GREEK SMALL LETTER OMEGA
ENCODING 969
SWIDTH 392 0
DWIDTH 6 0
BBX 5 5 0 0
BITMAP
88
A8
A8
A8
50
ENDCHAR
STARTCHAR GREEK SMALL LETTER IOTA WITH DIALYTIKA
ENCODING 970
SWIDTH 392 0
DWIDTH 6 0
BBX 5 7 0 0
BITMAP
88
00
20
20
20
28
10
ENDCHAR
STARTCHAR GREEK SMALL LETTER UPSILON WITH DIALYTIKA
ENCODING 971
SWIDTH 392 0
DWIDTH 6 0
BBX 5 7 0 0
BITMAP
88
00
88
88
88
88
70
ENDCHAR
STARTCHAR GREEK SMALL LETTER OMICRON WITH TONOS
ENCODING 972
SWIDTH 392 0
DWIDTH 6 0
BBX 5 8 0 0
BITMAP
10
20
00
70
88
88
88
70
ENDCHAR
STARTCHAR GREEK SMALL LETTER UPSILON WITH TONOS
ENCODING 973
SWIDTH 392 0
DWIDTH 6 0
BBX 5 8 0 0
BITMAP
10
20
00
88
88
88
88
70
ENDCHAR
STARTCHAR GREEK SMALL LETTER OMEGA WITH TONOS
ENCODING 974
SWIDTH 392 0
DWIDTH 6 0
BBX 5 8 0 0
BITMAP
10
20
00
88
A8
A8
A8
50
ENDCHAR
STARTCHAR GREEK BETA SYMBOL
ENCODING 976
SWIDTH 392 0
DWIDTH 6 0
BBX 5 7 0 0
BITMAP
60
90
A0
F0
88
88
70
ENDCHAR
STARTCHAR GREEK THETA SYMBOL
ENCODING 977
SWIDTH 392 0
DWIDTH 6 0
BBX 5 7 0 0
BITMAP
60
90
78
10
90
90
60
ENDCHAR
STARTCHAR GREEK UPSILON WITH HOOK SYMBOL
ENCODING 978
SWIDTH 392 0
DWIDTH 6 0
BBX 5 7 0 0
BITMAP
50
A8
20
20
20
20
20
ENDCHAR
STARTCHAR GREEK UPSILON WITH ACUTE AND HOOK SYMBOL
ENCODING 979
SWIDTH 392 0
DWIDTH 6 0
BBX 5 7 0 0
BITMAP
50
A8
20
A0
A0
20
20
ENDCHAR
STARTCHAR GREEK UPSILON WITH DIAERESIS AND HOOK SYMBOL
ENCODING 980
SWIDTH 392 0
DWIDTH 6 0
BBX 5 8 0 0
BITMAP
88
00
50
A8
20
20
20
20
ENDCHAR
STARTCHAR GREEK PHI SYMBOL
ENCODING 981
SWIDTH 392 0
DWIDTH 6 0
BBX 5 9 0 -2
BITMAP
20
20
70
A8
A8
A8
70
20
20
ENDCHAR
STARTCHAR GREEK PI SYMBOL
ENCODING 982
SWIDTH 392 0
DWIDTH 6 0
BBX 5 5 0 0
BITMAP
F8
88
A8
A8
50
ENDCHAR
STARTCHAR GREEK KAI SYMBOL
ENCODING 983
SWIDTH 392 0
DWIDTH 6 0
BBX 5 9 0 -2
BITMAP
10
20
88
50
60
60
98
08
70
ENDCHAR
STARTCHAR GREEK LETTER STIGMA
ENCODING 986
SWIDTH 392 0
DWIDTH 6 0
BBX 5 8 0 -1
BITMAP
30
48
80
80
80
70
08
10
ENDCHAR
STARTCHAR GREEK SMALL LETTER STIGMA
ENCODING 987
SWIDTH 392 0
DWIDTH 6 0
BBX 5 8 0 -2
BITMAP
08
70
80
80
80
70
08
30
ENDCHAR
STARTCHAR GREEK LETTER DIGAMMA
ENCODING 988
SWIDTH 392 0
DWIDTH 6 0
BBX 5 7 0 0
BITMAP
F8
80
80
F0
80
80
80
ENDCHAR
STARTCHAR GREEK SMALL LETTER DIGAMMA
ENCODING 989
SWIDTH 392 0
DWIDTH 6 0
BBX 4 7 1 -2
BITMAP
F0
80
80
E0
80
80
80
ENDCHAR
STARTCHAR GREEK LETTER KOPPA
ENCODING 990
SWIDTH 392 0
DWIDTH 6 0
BBX 5 7 0 0
BITMAP
80
88
98
A8
C8
88
08
ENDCHAR
STARTCHAR GREEK SMALL LETTER KOPPA
ENCODING 991
SWIDTH 392 0
DWIDTH 6 0
BBX 5 9 0 -2
BITMAP
20
40
40
80
F8
08
10
10
20
ENDCHAR
STARTCHAR GREEK LETTER SAMPI
ENCODING 992
SWIDTH 392 0
DWIDTH 6 0
BBX 5 7 0 0
BITMAP
20
50
50
50
98
A8
A8
ENDCHAR
STARTCHAR GREEK SMALL LETTER SAMPI
ENCODING 993
SWIDTH 392 0
DWIDTH 6 0
BBX 5 9 0 -2
BITMAP
C0
20
10
30
58
28
08
08
08
ENDCHAR
STARTCHAR GREEK KAPPA SYMBOL
ENCODING 1008
SWIDTH 392 0
DWIDTH 6 0
BBX 5 5 0 0
BITMAP
88
50
60
60
98
ENDCHAR
STARTCHAR GREEK RHO SYMBOL
ENCODING 1009
SWIDTH 392 0
DWIDTH 6 0
BBX 5 7 0 -2
BITMAP
70
88
88
88
F0
80
70
ENDCHAR
STARTCHAR GREEK LUNATE SIGMA SYMBOL
ENCODING 1010
SWIDTH 392 0
DWIDTH 6 0
BBX 5 5 0 0
BITMAP
70
88
80
88
70
ENDCHAR
STARTCHAR GREEK LETTER YOT
ENCODING 1011
SWIDTH 392 0
DWIDTH 6 0
BBX 4 9 1 -2
BITMAP
10
00
30
10
10
10
90
90
60
ENDCHAR
STARTCHAR GREEK CAPITAL THETA SYMBOL
ENCODING 1012
SWIDTH 392 0
DWIDTH 6 0
BBX 5 7 0 0
BITMAP
70
88
88
F8
88
88
70
ENDCHAR
STARTCHAR GREEK LUNATE EPSILON SYMBOL
ENCODING 1013
SWIDTH 392 0
DWIDTH 6 0
BBX 4 5 1 0
BITMAP
70
80
E0
80
70
ENDCHAR
STARTCHAR CYRILLIC CAPITAL LETTER IO
ENCODING 1025
SWIDTH 392 0
DWIDTH 6 0
BBX 5 8 0 0
BITMAP
50
00
F8
80
F0
80
80
F8
ENDCHAR
STARTCHAR CYRILLIC CAPITAL LETTER DJE
ENCODING 1026
SWIDTH 392 0
DWIDTH 6 0
BBX 5 9 0 -2
BITMAP
E0
40
40
70
48
48
48
08
30
ENDCHAR
STARTCHAR CYRILLIC CAPITAL LETTER GJE
ENCODING 1027
SWIDTH 392 0
DWIDTH 6 0
BBX 5 8 0 0
BITMAP
10
20
F8
80
80
80
80
80
ENDCHAR
STARTCHAR CYRILLIC CAPITAL LETTER UKRAINIAN IE
ENCODING 1028
SWIDTH 392 0
DWIDTH 6 0
BBX 5 7 0 0
BITMAP
70
88
80
E0
80
88
70
ENDCHAR
STARTCHAR CYRILLIC CAPITAL LETTER DZE
ENCODING 1029
SWIDTH 392 0
DWIDTH 6 0
BBX 5 7 0 0
BITMAP
70
88
80
70
08
88
70
ENDCHAR
STARTCHAR CYRILLIC CAPITAL LETTER BYELORUSSIAN-UKRAINIAN I
ENCODING 1030
SWIDTH 392 0
DWIDTH 6 0
BBX 3 7 1 0
BITMAP
E0
40
40
40
40
40
E0
ENDCHAR
STARTCHAR CYRILLIC CAPITAL LETTER YI
ENCODING 1031
SWIDTH 392 0
DWIDTH 6 0
BBX 3 8 1 0
BITMAP
A0
00
E0
40
40
40
40
E0
ENDCHAR
STARTCHAR CYRILLIC CAPITAL LETTER JE
ENCODING 1032
SWIDTH 392 0
DWIDTH 6 0
BBX 5 7 0 0
BITMAP
38
08
08
08
08
88
70
ENDCHAR
STARTCHAR CYRILLIC CAPITAL LETTER LJE
ENCODING 1033
SWIDTH 392 0
DWIDTH 6 0
BBX 6 7 0 0
BITMAP
30
50
50
98
94
94
98
ENDCHAR
STARTCHAR CYRILLIC CAPITAL LETTER NJE
ENCODING 1034
SWIDTH 392 0
DWIDTH 6 0
BBX 5 7 0 0
BITMAP
A0
A0
A0
F0
A8
A8
B0
ENDCHAR
STARTCHAR CYRILLIC CAPITAL LETTER TSHE
ENCODING 1035
SWIDTH 392 0
DWIDTH 6 0
BBX 5 7 0 0
BITMAP
E0
40
40
70
48
48
48
ENDCHAR
STARTCHAR CYRILLIC CAPITAL LETTER KJE
ENCODING 1036
SWIDTH 392 0
DWIDTH 6 0
BBX 5 8 0 0
BITMAP
10
20
88
90
E0
90
88
88
ENDCHAR
STARTCHAR CYRILLIC CAPITAL LETTER SHORT U
ENCODING 1038
SWIDTH 392 0
DWIDTH 6 0
BBX 5 8 0 0
BITMAP
50
20
88
88
50
20
40
80
ENDCHAR
STARTCHAR CYRILLIC CAPITAL LETTER DZHE
ENCODING 1039
SWIDTH 392 0
DWIDTH 6 0
BBX 5 8 0 -1
BITMAP
88
88
88
88
88
88
F8
20
ENDCHAR
STARTCHAR CYRILLIC CAPITAL LETTER A
ENCODING 1040
SWIDTH 392 0
DWIDTH 6 0
BBX 5 7 0 0
BITMAP
20
50
88
88
F8
88
88
ENDCHAR
STARTCHAR CYRILLIC CAPITAL LETTER BE
ENCODING 1041
SWIDTH 392 0
DWIDTH 6 0
BBX 5 7 0 0
BITMAP
F0
80
80
F0
88
88
F0
ENDCHAR
STARTCHAR CYRILLIC CAPITAL LETTER VE
ENCODING 1042
SWIDTH 392 0
DWIDTH 6 0
BBX 5 7 0 0
BITMAP
F0
88
88
F0
88
88
F0
ENDCHAR
STARTCHAR CYRILLIC CAPITAL LETTER GHE
ENCODING 1043
SWIDTH 392 0
DWIDTH 6 0
BBX 5 7 0 0
BITMAP
F8
80
80
80
80
80
80
ENDCHAR
STARTCHAR CYRILLIC CAPITAL LETTER DE
ENCODING 1044
SWIDTH 392 0
DWIDTH 6 0
BBX 5 8 0 -1
BITMAP
18
28
28
48
48
48
F8
88
ENDCHAR
STARTCHAR CYRILLIC CAPITAL LETTER IE
ENCODING 1045
SWIDTH 392 0
DWIDTH 6 0
BBX 5 7 0 0
BITMAP
F8
80
80
F0
80
80
F8
ENDCHAR
STARTCHAR CYRILLIC CAPITAL LETTER ZHE
ENCODING 1046
SWIDTH 392 0
DWIDTH 6 0
BBX 5 7 0 0
BITMAP
A8
A8
A8
70
A8
A8
A8
ENDCHAR
STARTCHAR CYRILLIC CAPITAL LETTER ZE
ENCODING 1047
SWIDTH 392 0
DWIDTH 6 0
BBX 5 7 0 0
BITMAP
70
88
08
30
08
88
70
ENDCHAR
STARTCHAR CYRILLIC CAPITAL LETTER I
ENCODING 1048
SWIDTH 392 0
DWIDTH 6 0
BBX 5 7 0 0
BITMAP
88
88
98
A8
C8
88
88
ENDCHAR
STARTCHAR CYRILLIC CAPITAL LETTER SHORT I
ENCODING 1049
SWIDTH 392 0
DWIDTH 6 0
BBX 5 8 0 0
BITMAP
50
20
88
98
A8
C8
88
88
ENDCHAR
STARTCHAR CYRILLIC CAPITAL LETTER KA
ENCODING 1050
SWIDTH 392 0
DWIDTH 6 0
BBX 5 7 0 0
BITMAP
88
90
A0
C0
A0
90
88
ENDCHAR
STARTCHAR CYRILLIC CAPITAL LETTER EL
ENCODING 1051
SWIDTH 392 0
DWIDTH 6 0
BBX 5 7 0 0
BITMAP
38
48
48
48
48
48
88
ENDCHAR
STARTCHAR CYRILLIC CAPITAL LETTER EM
ENCODING 1052
SWIDTH 392 0
DWIDTH 6 0
BBX 5 7 0 0
BITMAP
88
88
D8
A8
88
88
88
ENDCHAR
STARTCHAR CYRILLIC CAPITAL LETTER EN
ENCODING 1053
SWIDTH 392 0
DWIDTH 6 0
BBX 5 7 0 0
BITMAP
88
88
88
F8
88
88
88
ENDCHAR
STARTCHAR CYRILLIC CAPITAL LETTER O
ENCODING 1054
SWIDTH 392 0
DWIDTH 6 0
BBX 5 7 0 0
BITMAP
70
88
88
88
88
88
70
ENDCHAR
STARTCHAR CYRILLIC CAPITAL LETTER PE
ENCODING 1055
SWIDTH 392 0
DWIDTH 6 0
BBX 5 7 0 0
BITMAP
F8
88
88
88
88
88
88
ENDCHAR
STARTCHAR CYRILLIC CAPITAL LETTER ER
ENCODING 1056
SWIDTH 392 0
DWIDTH 6 0
BBX 5 7 0 0
BITMAP
F0
88
88
F0
80
80
80
ENDCHAR
STARTCHAR CYRILLIC CAPITAL LETTER ES
ENCODING 1057
SWIDTH 392 0
DWIDTH 6 0
BBX 5 7 0 0
BITMAP
70
88
80
80
80
88
70
ENDCHAR
STARTCHAR CYRILLIC CAPITAL LETTER TE
ENCODING 1058
SWIDTH 392 0
DWIDTH 6 0
BBX 5 7 0 0
BITMAP
F8
20
20
20
20
20
20
ENDCHAR
STARTCHAR CYRILLIC CAPITAL LETTER U
ENCODING 1059
SWIDTH 392 0
DWIDTH 6 0
BBX 5 7 0 0
BITMAP
88
88
88
50
20
40
80
ENDCHAR
STARTCHAR CYRILLIC CAPITAL LETTER EF
ENCODING 1060
SWIDTH 392 0
DWIDTH 6 0
BBX 5 7 0 0
BITMAP
20
70
A8
A8
A8
70
20
ENDCHAR
STARTCHAR CYRILLIC CAPITAL LETTER HA
ENCODING 1061
SWIDTH 392 0
DWIDTH 6 0
BBX 5 7 0 0
BITMAP
88
88
50
20
50
88
88
ENDCHAR
STARTCHAR CYRILLIC CAPITAL LETTER TSE
ENCODING 1062
SWIDTH 392 0
DWIDTH 6 0
BBX 5 9 0 -2
BITMAP
90
90
90
90
90
90
F8
08
08
ENDCHAR
STARTCHAR CYRILLIC CAPITAL LETTER CHE
ENCODING 1063
SWIDTH 392 0
DWIDTH 6 0
BBX 5 7 0 0
BITMAP
88
88
88
78
08
08
08
ENDCHAR
STARTCHAR CYRILLIC CAPITAL LETTER SHA
ENCODING 1064
SWIDTH 392 0
DWIDTH 6 0
BBX 5 7 0 0
BITMAP
A8
A8
A8
A8
A8
A8
F8
ENDCHAR
STARTCHAR CYRILLIC CAPITAL LETTER SHCHA
ENCODING 1065
SWIDTH 392 0
DWIDTH 6 0
BBX 5 9 0 -2
BITMAP
A8
A8
A8
A8
A8
A8
F8
08
08
ENDCHAR
STARTCHAR CYRILLIC CAPITAL LETTER HARD SIGN
ENCODING 1066
SWIDTH 392 0
DWIDTH 6 0
BBX 5 7 0 0
BITMAP
C0
40
40
70
48
48
70
ENDCHAR
STARTCHAR CYRILLIC CAPITAL LETTER YERU
ENCODING 1067
SWIDTH 392 0
DWIDTH 6 0
BBX 5 7 0 0
BITMAP
88
88
88
E8
98
98
E8
ENDCHAR
STARTCHAR CYRILLIC CAPITAL LETTER SOFT SIGN
ENCODING 1068
SWIDTH 392 0
DWIDTH 6 0
BBX 4 7 1 0
BITMAP
80
80
80
E0
90
90
E0
ENDCHAR
STARTCHAR CYRILLIC CAPITAL LETTER E
ENCODING 1069
SWIDTH 392 0
DWIDTH 6 0
BBX 5 7 0 0
BITMAP
70
88
08
38
08
88
70
ENDCHAR
STARTCHAR CYRILLIC CAPITAL LETTER YU
ENCODING 1070
SWIDTH 392 0
DWIDTH 6 0
BBX 5 7 0 0
BITMAP
90
A8
A8
E8
A8
A8
90
ENDCHAR
STARTCHAR CYRILLIC CAPITAL LETTER YA
ENCODING 1071
SWIDTH 392 0
DWIDTH 6 0
BBX 5 7 0 0
BITMAP
78
88
88
78
28
48
88
ENDCHAR
STARTCHAR CYRILLIC SMALL LETTER A
ENCODING 1072
SWIDTH 392 0
DWIDTH 6 0
BBX 5 5 0 0
BITMAP
70
08
78
88
78
ENDCHAR
STARTCHAR CYRILLIC SMALL LETTER BE
ENCODING 1073
SWIDTH 392 0
DWIDTH 6 0
BBX 5 7 0 0
BITMAP
78
80
70
88
88
88
70
ENDCHAR
STARTCHAR CYRILLIC SMALL LETTER VE
ENCODING 1074
SWIDTH 392 0
DWIDTH 6 0
BBX 5 5 0 0
BITMAP
F0
88
F0
88
F0
ENDCHAR
STARTCHAR CYRILLIC SMALL LETTER GHE
ENCODING 1075
SWIDTH 392 0
DWIDTH 6 0
BBX 4 5 1 0
BITMAP
F0
80
80
80
80
ENDCHAR
STARTCHAR CYRILLIC SMALL LETTER DE
ENCODING 1076
SWIDTH 392 0
DWIDTH 6 0
BBX 5 6 0 -1
BITMAP
30
50
50
50
F8
88
ENDCHAR
STARTCHAR CYRILLIC SMALL LETTER IE
ENCODING 1077
SWIDTH 392 0
DWIDTH 6 0
BBX 5 5 0 0
BITMAP
70
88
F8
80
70
ENDCHAR
STARTCHAR CYRILLIC SMALL LETTER ZHE
ENCODING 1078
SWIDTH 392 0
DWIDTH 6 0
BBX 5 5 0 0
BITMAP
A8
A8
70
A8
A8
ENDCHAR
STARTCHAR CYRILLIC SMALL LETTER ZE
ENCODING 1079
SWIDTH 392 0
DWIDTH 6 0
BBX 5 5 0 0
BITMAP
70
88
30
88
70
ENDCHAR
STARTCHAR CYRILLIC SMALL LETTER I
ENCODING 1080
SWIDTH 392 0
DWIDTH 6 0
BBX 5 5 0 0
BITMAP
88
98
A8
C8
88
ENDCHAR
STARTCHAR CYRILLIC SMALL LETTER SHORT I
ENCODING 1081
SWIDTH 392 0
DWIDTH 6 0
BBX 5 7 0 0
BITMAP
50
20
88
98
A8
C8
88
ENDCHAR
STARTCHAR CYRILLIC SMALL LETTER KA
ENCODING 1082
SWIDTH 392 0
DWIDTH 6 0
BBX 5 5 0 0
BITMAP
88
90
E0
90
88
ENDCHAR
STARTCHAR CYRILLIC SMALL LETTER EL
ENCODING 1083
SWIDTH 392 0
DWIDTH 6 0
BBX 5 5 0 0
BITMAP
38
48
48
48
88
ENDCHAR
STARTCHAR CYRILLIC SMALL LETTER EM
ENCODING 1084
SWIDTH 392 0
DWIDTH 6 0
BBX 5 5 0 0
BITMAP
88
D8
A8
88
88
ENDCHAR
STARTCHAR CYRILLIC SMALL LETTER EN
ENCODING 1085
SWIDTH 392 0
DWIDTH 6 0
BBX 5 5 0 0
BITMAP
88
88
F8
88
88
ENDCHAR
STARTCHAR CYRILLIC SMALL LETTER O
ENCODING 1086
SWIDTH 392 0
DWIDTH 6 0
BBX 5 5 0 0
BITMAP
70
88
88
88
70
ENDCHAR
STARTCHAR CYRILLIC SMALL LETTER PE
ENCODING 1087
SWIDTH 392 0
DWIDTH 6 0
BBX 5 5 0 0
BITMAP
F8
88
88
88
88
ENDCHAR
STARTCHAR CYRILLIC SMALL LETTER ER
ENCODING 1088
SWIDTH 392 0
DWIDTH 6 0
BBX 5 7 0 -2
BITMAP
B0
C8
88
C8
B0
80
80
ENDCHAR
STARTCHAR CYRILLIC SMALL LETTER ES
ENCODING 1089
SWIDTH 392 0
DWIDTH 6 0
BBX 5 5 0 0
BITMAP
70
88
80
88
70
ENDCHAR
STARTCHAR CYRILLIC SMALL LETTER TE
ENCODING 1090
SWIDTH 392 0
DWIDTH 6 0
BBX 5 5 0 0
BITMAP
F8
20
20
20
20
ENDCHAR
STARTCHAR CYRILLIC SMALL LETTER U
ENCODING 1091
SWIDTH 392 0
DWIDTH 6 0
BBX 5 7 0 -2
BITMAP
88
88
88
78
08
88
70
ENDCHAR
STARTCHAR CYRILLIC SMALL LETTER EF
ENCODING 1092
SWIDTH 392 0
DWIDTH 6 0
BBX 5 9 0 -2
BITMAP
20
20
70
A8
A8
A8
70
20
20
ENDCHAR
STARTCHAR CYRILLIC SMALL LETTER HA
ENCODING 1093
SWIDTH 392 0
DWIDTH 6 0
BBX 5 5 0 0
BITMAP
88
50
20
50
88
ENDCHAR
STARTCHAR CYRILLIC SMALL LETTER TSE
ENCODING 1094
SWIDTH 392 0
DWIDTH 6 0
BBX 5 7 0 -2
BITMAP
90
90
90
90
F8
08
08
ENDCHAR
STARTCHAR CYRILLIC SMALL LETTER CHE
ENCODING 1095
SWIDTH 392 0
DWIDTH 6 0
BBX 5 5 0 0
BITMAP
88
88
78
08
08
ENDCHAR
STARTCHAR CYRILLIC SMALL LETTER SHA
ENCODING 1096
SWIDTH 392 0
DWIDTH 6 0
BBX 5 5 0 0
BITMAP
A8
A8
A8
A8
F8
ENDCHAR
STARTCHAR CYRILLIC SMALL LETTER SHCHA
ENCODING 1097
SWIDTH 392 0
DWIDTH 6 0
BBX 5 7 0 -2
BITMAP
A8
A8
A8
A8
F8
08
08
ENDCHAR
STARTCHAR CYRILLIC SMALL LETTER HARD SIGN
ENCODING 1098
SWIDTH 392 0
DWIDTH 6 0
BBX 5 5 0 0
BITMAP
C0
40
70
48
70
ENDCHAR
STARTCHAR CYRILLIC SMALL LETTER YERU
ENCODING 1099
SWIDTH 392 0
DWIDTH 6 0
BBX 5 5 0 0
BITMAP
88
88
E8
98
E8
ENDCHAR
STARTCHAR CYRILLIC SMALL LETTER SOFT SIGN
ENCODING 1100
SWIDTH 392 0
DWIDTH 6 0
BBX 4 5 1 0
BITMAP
80
80
E0
90
E0
ENDCHAR
STARTCHAR CYRILLIC SMALL LETTER E
ENCODING 1101
SWIDTH 392 0
DWIDTH 6 0
BBX 5 5 0 0
BITMAP
70
88
38
88
70
ENDCHAR
STARTCHAR CYRILLIC SMALL LETTER YU
ENCODING 1102
SWIDTH 392 0
DWIDTH 6 0
BBX 5 5 0 0
BITMAP
90
A8
E8
A8
90
ENDCHAR
STARTCHAR CYRILLIC SMALL LETTER YA
ENCODING 1103
SWIDTH 392 0
DWIDTH 6 0
BBX 5 5 0 0
BITMAP
78
88
78
88
88
ENDCHAR
STARTCHAR CYRILLIC SMALL LETTER IO
ENCODING 1105
SWIDTH 392 0
DWIDTH 6 0
BBX 5 7 0 0
BITMAP
50
00
70
88
F8
80
70
ENDCHAR
STARTCHAR CYRILLIC SMALL LETTER DJE
ENCODING 1106
SWIDTH 392 0
DWIDTH 6 0
BBX 5 9 0 -2
BITMAP
40
F0
40
70
48
48
48
08
30
ENDCHAR
STARTCHAR CYRILLIC SMALL LETTER GJE
ENCODING 1107
SWIDTH 392 0
DWIDTH 6 0
BBX 4 8 1 0
BITMAP
20
40
00
F0
80
80
80
80
ENDCHAR
STARTCHAR CYRILLIC SMALL LETTER UKRAINIAN IE
ENCODING 1108
SWIDTH 392 0
DWIDTH 6 0
BBX 4 5 1 0
BITMAP
60
90
C0
90
60
ENDCHAR
STARTCHAR CYRILLIC SMALL LETTER DZE
ENCODING 1109
SWIDTH 392 0
DWIDTH 6 0
BBX 5 5 0 0
BITMAP
70
80
70
08
F0
ENDCHAR
STARTCHAR CYRILLIC SMALL LETTER BYELORUSSIAN-UKRAINIAN I
ENCODING 1110
SWIDTH 392 0
DWIDTH 6 0
BBX 3 7 1 0
BITMAP
40
00
C0
40
40
40
E0
ENDCHAR
STARTCHAR CYRILLIC SMALL LETTER YI
ENCODING 1111
SWIDTH 392 0
DWIDTH 6 0
BBX 3 7 1 0
BITMAP
A0
00
C0
40
40
40
E0
ENDCHAR
STARTCHAR CYRILLIC SMALL LETTER JE
ENCODING 1112
SWIDTH 392 0
DWIDTH 6 0
BBX 4 9 1 -2
BITMAP
10
00
30
10
10
10
90
90
60
ENDCHAR
STARTCHAR CYRILLIC SMALL LETTER LJE
ENCODING 1113
SWIDTH 392 0
DWIDTH 6 0
BBX 6 5 0 0
BITMAP
30
50
98
94
98
ENDCHAR
STARTCHAR CYRILLIC SMALL LETTER NJE
ENCODING 1114
SWIDTH 392 0
DWIDTH 6 0
BBX 5 5 0 0
BITMAP
A0
A0
F0
A8
B0
ENDCHAR
STARTCHAR CYRILLIC SMALL LETTER TSHE
ENCODING 1115
SWIDTH 392 0
DWIDTH 6 0
BBX 5 7 0 0
BITMAP
40
F0
40
70
48
48
48
ENDCHAR
STARTCHAR CYRILLIC SMALL LETTER KJE
ENCODING 1116
SWIDTH 392 0
DWIDTH 6 0
BBX 5 7 0 0
BITMAP
10
20
88
90
E0
90
88
ENDCHAR
STARTCHAR CYRILLIC SMALL LETTER SHORT U
ENCODING 1118
SWIDTH 392 0
DWIDTH 6 0
BBX 5 9 0 -2
BITMAP
50
20
88
88
98
68
08
88
70
ENDCHAR
STARTCHAR CYRILLIC SMALL LETTER DZHE
ENCODING 1119
SWIDTH 392 0
DWIDTH 6 0
BBX 5 6 0 -1
BITMAP
88
88
88
88
F8
20
ENDCHAR
STARTCHAR CYRILLIC CAPITAL LETTER YAT
ENCODING 1122
SWIDTH 392 0
DWIDTH 6 0
BBX 5 7 0 0
BITMAP
40
F0
40
70
48
48
70
ENDCHAR
STARTCHAR CYRILLIC SMALL LETTER YAT
ENCODING 1123
SWIDTH 392 0
DWIDTH 6 0
BBX 5 7 0 0
BITMAP
40
40
F0
40
70
48
70
ENDCHAR
STARTCHAR CYRILLIC CAPITAL LETTER PSI
ENCODING 1136
SWIDTH 392 0
DWIDTH 6 0
BBX 5 7 0 0
BITMAP
A8
A8
A8
70
20
20
20
ENDCHAR
STARTCHAR CYRILLIC SMALL LETTER PSI
ENCODING 1137
SWIDTH 392 0
DWIDTH 6 0
BBX 5 5 0 0
BITMAP
A8
A8
70
20
20
ENDCHAR
STARTCHAR CYRILLIC CAPITAL LETTER FITA
ENCODING 1138
SWIDTH 392 0
DWIDTH 6 0
BBX 5 7 0 0
BITMAP
70
88
88
F8
88
88
70
ENDCHAR
STARTCHAR CYRILLIC SMALL LETTER FITA
ENCODING 1139
SWIDTH 392 0
DWIDTH 6 0
BBX 5 5 0 0
BITMAP
70
88
F8
88
70
ENDCHAR
STARTCHAR CYRILLIC CAPITAL LETTER IZHITSA
ENCODING 1140
SWIDTH 392 0
DWIDTH 6 0
BBX 5 7 0 0
BITMAP
88
90
90
50
50
50
20
ENDCHAR
STARTCHAR CYRILLIC SMALL LETTER IZHITSA
ENCODING 1141
SWIDTH 392 0
DWIDTH 6 0
BBX 5 5 0 0
BITMAP
88
90
50
50
20
ENDCHAR
STARTCHAR CYRILLIC CAPITAL LETTER IZHITSA WITH DOUBLE GRAVE ACCENT
ENCODING 1142
SWIDTH 392 0
DWIDTH 6 0
BBX 5 8 0 0
BITMAP
50
28
80
88
50
50
50
20
ENDCHAR
STARTCHAR CYRILLIC SMALL LETTER IZHITSA WITH DOUBLE GRAVE ACCENT
ENCODING 1143
SWIDTH 392 0
DWIDTH 6 0
BBX 5 7 0 0
BITMAP
50
28
80
88
50
50
20
ENDCHAR
STARTCHAR CYRILLIC CAPITAL LETTER GHE WITH UPTURN
ENCODING 1168
SWIDTH 392 0
DWIDTH 6 0
BBX 5 8 0 0
BITMAP
08
F8
80
80
80
80
80
80
ENDCHAR
STARTCHAR CYRILLIC SMALL LETTER GHE WITH UPTURN
ENCODING 1169
SWIDTH 392 0
DWIDTH 6 0
BBX 4 6 1 0
BITMAP
10
F0
80
80
80
80
ENDCHAR
STARTCHAR CYRILLIC CAPITAL LETTER GHE WITH STROKE
ENCODING 1170
SWIDTH 392 0
DWIDTH 6 0
BBX 5 7 0 0
BITMAP
78
40
40
F0
40
40
40
ENDCHAR
STARTCHAR CYRILLIC SMALL LETTER GHE WITH STROKE
ENCODING 1171
SWIDTH 392 0
DWIDTH 6 0
BBX 5 5 0 0
BITMAP
78
40
F0
40
40
ENDCHAR
STARTCHAR CYRILLIC CAPITAL LETTER ZHE WITH DESCENDER
ENCODING 1174
SWIDTH 392 0
DWIDTH 6 0
BBX 6 9 0 -2
BITMAP
A8
A8
A8
70
A8
A8
A8
04
04
ENDCHAR
STARTCHAR CYRILLIC SMALL LETTER ZHE WITH DESCENDER
ENCODING 1175
SWIDTH 392 0
DWIDTH 6 0
BBX 6 7 0 -2
BITMAP
A8
A8
70
A8
A8
04
04
ENDCHAR
STARTCHAR CYRILLIC CAPITAL LETTER KA WITH DESCENDER
ENCODING 1178
SWIDTH 392 0
DWIDTH 6 0
BBX 6 9 0 -2
BITMAP
88
90
A0
C0
A0
90
88
04
04
ENDCHAR
STARTCHAR CYRILLIC SMALL LETTER KA WITH DESCENDER
ENCODING 1179
SWIDTH 392 0
DWIDTH 6 0
BBX 6 7 0 -2
BITMAP
88
90
E0
90
88
04
04
ENDCHAR
STARTCHAR CYRILLIC CAPITAL LETTER STRAIGHT U
ENCODING 1198
SWIDTH 392 0
DWIDTH 6 0
BBX 5 7 0 0
BITMAP
88
88
50
20
20
20
20
ENDCHAR
STARTCHAR CYRILLIC SMALL LETTER STRAIGHT U
ENCODING 1199
SWIDTH 392 0
DWIDTH 6 0
BBX 5 7 0 -2
BITMAP
88
88
50
20
20
20
20
ENDCHAR
STARTCHAR CYRILLIC CAPITAL LETTER STRAIGHT U WITH STROKE
ENCODING 1200
SWIDTH 392 0
DWIDTH 6 0
BBX 5 7 0 0
BITMAP
88
88
50
F8
20
20
20
ENDCHAR
STARTCHAR CYRILLIC SMALL LETTER STRAIGHT U WITH STROKE
ENCODING 1201
SWIDTH 392 0
DWIDTH 6 0
BBX 5 7 0 -2
BITMAP
88
88
50
F8
20
20
20
ENDCHAR
STARTCHAR CYRILLIC CAPITAL LETTER HA WITH DESCENDER
ENCODING 1202
SWIDTH 392 0
DWIDTH 6 0
BBX 6 9 0 -2
BITMAP
88
88
50
20
50
88
88
04
04
ENDCHAR
STARTCHAR CYRILLIC SMALL LETTER HA WITH DESCENDER
ENCODING 1203
SWIDTH 392 0
DWIDTH 6 0
BBX 6 7 0 -2
BITMAP
88
50
20
50
88
04
04
ENDCHAR
STARTCHAR CYRILLIC CAPITAL LETTER SHHA
ENCODING 1210
SWIDTH 392 0
DWIDTH 6 0
BBX 5 7 0 0
BITMAP
80
80
F0
88
88
88
88
ENDCHAR
STARTCHAR CYRILLIC SMALL LETTER SHHA
ENCODING 1211
SWIDTH 392 0
DWIDTH 6 0
BBX 4 7 1 0
BITMAP
80
80
A0
D0
90
90
90
ENDCHAR
STARTCHAR CYRILLIC CAPITAL LETTER SCHWA
ENCODING 1240
SWIDTH 392 0
DWIDTH 6 0
BBX 5 7 0 0
BITMAP
70
88
08
F8
88
88
70
ENDCHAR
STARTCHAR CYRILLIC SMALL LETTER SCHWA
ENCODING 1241
SWIDTH 392 0
DWIDTH 6 0
BBX 5 5 0 0
BITMAP
70
08
F8
88
70
ENDCHAR
STARTCHAR CYRILLIC CAPITAL LETTER I WITH MACRON
ENCODING 1250
SWIDTH 392 0
DWIDTH 6 0
BBX 3 8 1 0
BITMAP
E0
00
E0
40
40
40
40
E0
ENDCHAR
STARTCHAR CYRILLIC SMALL LETTER I WITH MACRON
ENCODING 1251
SWIDTH 392 0
DWIDTH 6 0
BBX 3 7 1 0
BITMAP
E0
00
C0
40
40
40
E0
ENDCHAR
STARTCHAR CYRILLIC CAPITAL LETTER BARRED O
ENCODING 1256
SWIDTH 392 0
DWIDTH 6 0
BBX 5 7 0 0
BITMAP
70
88
88
F8
88
88
70
ENDCHAR
STARTCHAR CYRILLIC SMALL LETTER BARRED O
ENCODING 1257
SWIDTH 392 0
DWIDTH 6 0
BBX 5 5 0 0
BITMAP
70
88
F8
88
70
ENDCHAR
STARTCHAR CYRILLIC CAPITAL LETTER U WITH MACRON
ENCODING 1262
SWIDTH 392 0
DWIDTH 6 0
BBX 5 8 0 0
BITMAP
70
00
88
88
88
88
88
70
ENDCHAR
STARTCHAR CYRILLIC SMALL LETTER U WITH MACRON
ENCODING 1263
SWIDTH 392 0
DWIDTH 6 0
BBX 5 7 0 0
BITMAP
70
00
88
88
88
98
68
ENDCHAR
STARTCHAR HEBREW LETTER ALEF
ENCODING 1488
SWIDTH 392 0
DWIDTH 6 0
BBX 5 5 0 0
BITMAP
90
48
B0
90
C8
ENDCHAR
STARTCHAR HEBREW LETTER BET
ENCODING 1489
SWIDTH 392 0
DWIDTH 6 0
BBX 5 5 0 0
BITMAP
F0
08
08
08
F8
ENDCHAR
STARTCHAR HEBREW LETTER GIMEL
ENCODING 1490
SWIDTH 392 0
DWIDTH 6 0
BBX 4 5 1 0
BITMAP
60
20
20
20
D0
ENDCHAR
STARTCHAR HEBREW LETTER DALET
ENCODING 1491
SWIDTH 392 0
DWIDTH 6 0
BBX 5 5 0 0
BITMAP
F8
10
10
10
10
ENDCHAR
STARTCHAR HEBREW LETTER HE
ENCODING 1492
SWIDTH 392 0
DWIDTH 6 0
BBX 5 5 0 0
BITMAP
F8
10
90
90
90
ENDCHAR
STARTCHAR HEBREW LETTER VAV
ENCODING 1493
SWIDTH 392 0
DWIDTH 6 0
BBX 2 5 2 0
BITMAP
C0
40
40
40
40
ENDCHAR
STARTCHAR HEBREW LETTER ZAYIN
ENCODING 1494
SWIDTH 392 0
DWIDTH 6 0
BBX 3 6 1 0
BITMAP
80
60
40
40
40
40
ENDCHAR
STARTCHAR HEBREW LETTER HET
ENCODING 1495
SWIDTH 392 0
DWIDTH 6 0
BBX 5 5 0 0
BITMAP
F8
88
88
88
88
ENDCHAR
STARTCHAR HEBREW LETTER TET
ENCODING 1496
SWIDTH 392 0
DWIDTH 6 0
BBX 5 5 0 0
BITMAP
B8
A8
88
88
F8
ENDCHAR
STARTCHAR HEBREW LETTER YOD
ENCODING 1497
SWIDTH 392 0
DWIDTH 6 0
BBX 2 2 2 3
BITMAP
C0
40
ENDCHAR
STARTCHAR HEBREW LETTER FINAL KAF
ENCODING 1498
SWIDTH 392 0
DWIDTH 6 0
BBX 3 7 1 -2
BITMAP
E0
20
20
20
20
20
20
ENDCHAR
STARTCHAR HEBREW LETTER KAF
ENCODING 1499
SWIDTH 392 0
DWIDTH 6 0
BBX 5 5 0 0
BITMAP
F0
08
08
08
F0
ENDCHAR
STARTCHAR HEBREW LETTER LAMED
ENCODING 1500
SWIDTH 392 0
DWIDTH 6 0
BBX 5 7 0 0
BITMAP
80
80
F0
08
08
10
20
ENDCHAR
STARTCHAR HEBREW LETTER FINAL MEM
ENCODING 1501
SWIDTH 392 0
DWIDTH 6 0
BBX 5 5 0 0
BITMAP
F0
88
88
88
F8
ENDCHAR
STARTCHAR HEBREW LETTER MEM
ENCODING 1502
SWIDTH 392 0
DWIDTH 6 0
BBX 5 5 0 0
BITMAP
B0
48
88
88
B8
ENDCHAR
STARTCHAR HEBREW LETTER FINAL NUN
ENCODING 1503
SWIDTH 392 0
DWIDTH 6 0
BBX 2 7 2 -2
BITMAP
C0
40
40
40
40
40
40
ENDCHAR
STARTCHAR HEBREW LETTER NUN
ENCODING 1504
SWIDTH 392 0
DWIDTH 6 0
BBX 2 5 2 0
BITMAP
C0
40
40
40
C0
ENDCHAR
STARTCHAR HEBREW LETTER SAMEKH
ENCODING 1505
SWIDTH 392 0
DWIDTH 6 0
BBX 5 5 0 0
BITMAP
F8
88
88
88
70
ENDCHAR
STARTCHAR HEBREW LETTER AYIN
ENCODING 1506
SWIDTH 392 0
DWIDTH 6 0
BBX 5 5 0 0
BITMAP
48
48
48
48
F0
ENDCHAR
STARTCHAR HEBREW LETTER FINAL PE
ENCODING 1507
SWIDTH 392 0
DWIDTH 6 0
BBX 4 7 1 -2
BITMAP
F0
90
D0
10
10
10
10
ENDCHAR
STARTCHAR HEBREW LETTER PE
ENCODING 1508
SWIDTH 392 0
DWIDTH 6 0
BBX 5 5 0 0
BITMAP
E0
90
C8
08
F8
ENDCHAR
STARTCHAR HEBREW LETTER FINAL TSADI
ENCODING 1509
SWIDTH 392 0
DWIDTH 6 0
BBX 3 7 1 -2
BITMAP
A0
A0
A0
C0
80
80
80
ENDCHAR
STARTCHAR HEBREW LETTER TSADI
ENCODING 1510
SWIDTH 392 0
DWIDTH 6 0
BBX 5 5 0 0
BITMAP
88
50
20
10
F8
ENDCHAR
STARTCHAR HEBREW LETTER QOF
ENCODING 1511
SWIDTH 392 0
DWIDTH 6 0
BBX 5 7 0 -2
BITMAP
F8
08
88
88
F0
80
80
ENDCHAR
STARTCHAR HEBREW LETTER RESH
ENCODING 1512
SWIDTH 392 0
DWIDTH 6 0
BBX 5 5 0 0
BITMAP
F0
08
08
08
08
ENDCHAR
STARTCHAR HEBREW LETTER SHIN
ENCODING 1513
SWIDTH 392 0
DWIDTH 6 0
BBX 5 5 0 0
BITMAP
A8
A8
C8
88
F0
ENDCHAR
STARTCHAR HEBREW LETTER TAV
ENCODING 1514
SWIDTH 392 0
DWIDTH 6 0
BBX 5 5 0 0
BITMAP
F8
88
88
48
88
ENDCHAR
STARTCHAR RUNIC LETTER FEHU FEOH FE F
ENCODING 5792
SWIDTH 392 0
DWIDTH 6 0
BBX 3 7 2 0
BITMAP
A0
C0
A0
C0
80
80
80
ENDCHAR
STARTCHAR RUNIC LETTER URUZ UR U
ENCODING 5794
SWIDTH 392 0
DWIDTH 6 0
BBX 4 7 1 0
BITMAP
C0
A0
A0
90
90
90
90
ENDCHAR
STARTCHAR RUNIC LETTER YR
ENCODING 5795
SWIDTH 392 0
DWIDTH 6 0
BBX 5 7 0 0
BITMAP
20
50
88
88
A8
A8
A8
ENDCHAR
STARTCHAR RUNIC LETTER THURISAZ THURS THORN
ENCODING 5798
SWIDTH 392 0
DWIDTH 6 0
BBX 3 7 2 0
BITMAP
80
80
C0
A0
C0
80
80
ENDCHAR
STARTCHAR RUNIC LETTER OS O
ENCODING 5801
SWIDTH 392 0
DWIDTH 6 0
BBX 5 7 0 0
BITMAP
88
D0
A8
D0
A0
80
80
ENDCHAR
STARTCHAR RUNIC LETTER AC A
ENCODING 5802
SWIDTH 392 0
DWIDTH 6 0
BBX 5 7 0 0
BITMAP
88
D0
A0
C0
A0
80
80
ENDCHAR
STARTCHAR RUNIC LETTER AESC
ENCODING 5803
SWIDTH 392 0
DWIDTH 6 0
BBX 3 7 2 0
BITMAP
80
C0
A0
C0
A0
80
80
ENDCHAR
STARTCHAR RUNIC LETTER LONG-BRANCH-OSS O
ENCODING 5804
SWIDTH 392 0
DWIDTH 6 0
BBX 0 0 0 0
BITMAP
ENDCHAR
STARTCHAR RUNIC LETTER RAIDO RAD REID R
ENCODING 5809
SWIDTH 392 0
DWIDTH 6 0
BBX 4 7 1 0
BITMAP
C0
A0
90
A0
C0
A0
80
ENDCHAR
STARTCHAR RUNIC LETTER CEN
ENCODING 5811
SWIDTH 392 0
DWIDTH 6 0
BBX 4 7 1 0
BITMAP
80
80
C0
A0
A0
90
90
ENDCHAR
STARTCHAR RUNIC LETTER GEBO GYFU G
ENCODING 5815
SWIDTH 392 0
DWIDTH 6 0
BBX 5 7 0 0
BITMAP
88
50
50
20
50
50
88
ENDCHAR
STARTCHAR RUNIC LETTER GAR
ENCODING 5816
SWIDTH 392 0
DWIDTH 6 0
BBX 5 7 0 0
BITMAP
88
70
50
A8
50
70
88
ENDCHAR
STARTCHAR RUNIC LETTER WUNJO WYNN W
ENCODING 5817
SWIDTH 392 0
DWIDTH 6 0
BBX 4 7 1 0
BITMAP
C0
A0
90
A0
C0
80
80
ENDCHAR
STARTCHAR RUNIC LETTER HAEGL H
ENCODING 5819
SWIDTH 392 0
DWIDTH 6 0
BBX 5 7 0 0
BITMAP
88
88
C8
A8
D8
A8
98
ENDCHAR
STARTCHAR RUNIC LETTER NAUDIZ NYD NAUD N
ENCODING 5822
SWIDTH 392 0
DWIDTH 6 0
BBX 5 7 0 0
BITMAP
20
A0
60
30
28
20
20
ENDCHAR
STARTCHAR RUNIC LETTER ISAZ IS ISS I
ENCODING 5825
SWIDTH 392 0
DWIDTH 6 0
BBX 1 7 2 0
BITMAP
80
80
80
80
80
80
80
ENDCHAR
STARTCHAR RUNIC LETTER GER
ENCODING 5828
SWIDTH 392 0
DWIDTH 6 0
BBX 5 7 0 0
BITMAP
20
20
70
A8
70
20
20
ENDCHAR
STARTCHAR RUNIC LETTER IWAZ EOH
ENCODING 5831
SWIDTH 392 0
DWIDTH 6 0
BBX 5 7 0 0
BITMAP
20
30
28
20
A0
60
20
ENDCHAR
STARTCHAR RUNIC LETTER PERTHO PEORTH P
ENCODING 5832
SWIDTH 392 0
DWIDTH 6 0
BBX 5 7 0 0
BITMAP
88
D0
A0
80
A0
D0
88
ENDCHAR
STARTCHAR RUNIC LETTER ALGIZ EOLHX
ENCODING 5833
SWIDTH 392 0
DWIDTH 6 0
BBX 5 7 0 0
BITMAP
A8
A8
A8
70
20
20
20
ENDCHAR
STARTCHAR RUNIC LETTER SIGEL LONG-BRANCH-SOL S
ENCODING 5835
SWIDTH 392 0
DWIDTH 6 0
BBX 5 7 0 0
BITMAP
80
88
98
A8
C8
88
08
ENDCHAR
STARTCHAR RUNIC LETTER TIWAZ TIR TYR T
ENCODING 5839
SWIDTH 392 0
DWIDTH 6 0
BBX 5 7 0 0
BITMAP
20
70
A8
20
20
20
20
ENDCHAR
STARTCHAR RUNIC LETTER BERKANAN BEORC BJARKAN B
ENCODING 5842
SWIDTH 392 0
DWIDTH 6 0
BBX 4 7 1 0
BITMAP
C0
A0
90
E0
90
A0
C0
ENDCHAR
STARTCHAR RUNIC LETTER EHWAZ EH E
ENCODING 5846
SWIDTH 392 0
DWIDTH 6 0
BBX 5 7 0 0
BITMAP
88
D8
A8
88
88
88
88
ENDCHAR
STARTCHAR RUNIC LETTER MANNAZ MAN M
ENCODING 5847
SWIDTH 392 0
DWIDTH 6 0
BBX 5 7 0 0
BITMAP
88
D8
A8
D8
88
88
88
ENDCHAR
STARTCHAR RUNIC LETTER LAUKAZ LAGU LOGR L
ENCODING 5850
SWIDTH 392 0
DWIDTH 6 0
BBX 3 7 2 0
BITMAP
80
C0
A0
80
80
80
80
ENDCHAR
STARTCHAR RUNIC LETTER ING
ENCODING 5853
SWIDTH 392 0
DWIDTH 6 0
BBX 5 7 0 0
BITMAP
88
50
20
50
20
50
88
ENDCHAR
STARTCHAR RUNIC LETTER DAGAZ DAEG D
ENCODING 5854
SWIDTH 392 0
DWIDTH 6 0
BBX 5 7 0 0
BITMAP
88
88
D8
A8
D8
88
88
ENDCHAR
STARTCHAR RUNIC LETTER OTHALAN ETHEL O
ENCODING 5855
SWIDTH 392 0
DWIDTH 6 0
BBX 5 7 0 0
BITMAP
20
50
88
50
20
50
88
ENDCHAR
STARTCHAR RUNIC LETTER EAR
ENCODING 5856
SWIDTH 392 0
DWIDTH 6 0
BBX 5 7 0 0
BITMAP
A8
70
20
20
20
20
20
ENDCHAR
STARTCHAR RUNIC LETTER IOR
ENCODING 5857
SWIDTH 392 0
DWIDTH 6 0
BBX 5 7 0 0
BITMAP
A8
70
20
70
A8
20
20
ENDCHAR
STARTCHAR RUNIC LETTER CWEORTH
ENCODING 5858
SWIDTH 392 0
DWIDTH 6 0
BBX 5 7 0 0
BITMAP
28
30
20
20
20
60
A0
ENDCHAR
STARTCHAR RUNIC LETTER CALC
ENCODING 5859
SWIDTH 392 0
DWIDTH 6 0
BBX 5 7 0 0
BITMAP
20
20
20
70
A8
A8
A8
ENDCHAR
STARTCHAR RUNIC LETTER STAN
ENCODING 5861
SWIDTH 392 0
DWIDTH 6 0
BBX 5 7 0 0
BITMAP
88
D8
A8
88
A8
D8
88
ENDCHAR
STARTCHAR RUNIC SINGLE PUNCTUATION
ENCODING 5867
SWIDTH 392 0
DWIDTH 6 0
BBX 1 1 2 3
BITMAP
80
ENDCHAR
STARTCHAR RUNIC MULTIPLE PUNCTUATION
ENCODING 5868
SWIDTH 392 0
DWIDTH 6 0
BBX 1 3 2 2
BITMAP
80
00
80
ENDCHAR
STARTCHAR RUNIC CROSS PUNCTUATION
ENCODING 5869
SWIDTH 392 0
DWIDTH 6 0
BBX 3 3 1 2
BITMAP
A0
40
A0
ENDCHAR
STARTCHAR LATIN CAPITAL LETTER B WITH DOT ABOVE
ENCODING 7682
SWIDTH 392 0
DWIDTH 6 0
BBX 5 8 0 0
BITMAP
20
00
F0
88
F0
88
88
F0
ENDCHAR
STARTCHAR LATIN SMALL LETTER B WITH DOT ABOVE
ENCODING 7683
SWIDTH 392 0
DWIDTH 6 0
BBX 5 7 0 0
BITMAP
90
80
B0
C8
88
C8
B0
ENDCHAR
STARTCHAR LATIN CAPITAL LETTER B WITH DOT BELOW
ENCODING 7684
SWIDTH 392 0
DWIDTH 6 0
BBX 0 0 0 0
BITMAP
ENDCHAR
STARTCHAR LATIN CAPITAL LETTER D WITH DOT ABOVE
ENCODING 7690
SWIDTH 392 0
DWIDTH 6 0
BBX 5 8 0 0
BITMAP
20
00
F0
88
88
88
88
F0
ENDCHAR
STARTCHAR LATIN SMALL LETTER D WITH DOT ABOVE
ENCODING 7691
SWIDTH 392 0
DWIDTH 6 0
BBX 5 8 0 0
BITMAP
20
08
08
68
98
88
98
68
ENDCHAR
STARTCHAR LATIN CAPITAL LETTER F WITH DOT ABOVE
ENCODING 7710
SWIDTH 392 0
DWIDTH 6 0
BBX 5 8 0 0
BITMAP
20
00
F8
80
F0
80
80
80
ENDCHAR
STARTCHAR LATIN SMALL LETTER F WITH DOT ABOVE
ENCODING 7711
SWIDTH 392 0
DWIDTH 6 0
BBX 5 8 0 0
BITMAP
20
00
30
48
40
F0
40
40
ENDCHAR
STARTCHAR LATIN CAPITAL LETTER M WITH DOT ABOVE
ENCODING 7744
SWIDTH 392 0
DWIDTH 6 0
BBX 5 8 0 0
BITMAP
20
88
88
D8
A8
88
88
88
ENDCHAR
STARTCHAR LATIN SMALL LETTER M WITH DOT ABOVE
ENCODING 7745
SWIDTH 392 0
DWIDTH 6 0
BBX 5 7 0 0
BITMAP
20
00
D0
A8
A8
A8
88
ENDCHAR
STARTCHAR LATIN CAPITAL LETTER P WITH DOT ABOVE
ENCODING 7766
SWIDTH 392 0
DWIDTH 6 0
BBX 5 8 0 0
BITMAP
20
00
F0
88
88
F0
80
80
ENDCHAR
STARTCHAR LATIN SMALL LETTER P WITH DOT ABOVE
ENCODING 7767
SWIDTH 392 0
DWIDTH 6 0
BBX 5 9 0 -2
BITMAP
20
00
B0
C8
88
C8
B0
80
80
ENDCHAR
STARTCHAR LATIN CAPITAL LETTER S WITH DOT ABOVE
ENCODING 7776
SWIDTH 392 0
DWIDTH 6 0
BBX 5 8 0 0
BITMAP
20
00
70
80
70
08
88
70
ENDCHAR
STARTCHAR LATIN SMALL LETTER S WITH DOT ABOVE
ENCODING 7777
SWIDTH 392 0
DWIDTH 6 0
BBX 5 7 0 0
BITMAP
20
00
70
80
70
08
F0
ENDCHAR
STARTCHAR LATIN CAPITAL LETTER T WITH DOT ABOVE
ENCODING 7786
SWIDTH 392 0
DWIDTH 6 0
BBX 5 8 0 0
BITMAP
20
00
F8
20
20
20
20
20
ENDCHAR
STARTCHAR LATIN SMALL LETTER T WITH DOT ABOVE
ENCODING 7787
SWIDTH 392 0
DWIDTH 6 0
BBX 5 8 0 0
BITMAP
40
00
40
F0
40
40
48
30
ENDCHAR
STARTCHAR LATIN CAPITAL LETTER W WITH GRAVE
ENCODING 7808
SWIDTH 392 0
DWIDTH 6 0
BBX 5 8 0 0
BITMAP
40
20
88
88
A8
A8
D8
88
ENDCHAR
STARTCHAR LATIN SMALL LETTER W WITH GRAVE
ENCODING 7809
SWIDTH 392 0
DWIDTH 6 0
BBX 5 7 0 0
BITMAP
40
20
88
88
A8
A8
50
ENDCHAR
STARTCHAR LATIN CAPITAL LETTER W WITH ACUTE
ENCODING 7810
SWIDTH 392 0
DWIDTH 6 0
BBX 5 8 0 0
BITMAP
10
20
88
88
A8
A8
D8
88
ENDCHAR
STARTCHAR LATIN SMALL LETTER W WITH ACUTE
ENCODING 7811
SWIDTH 392 0
DWIDTH 6 0
BBX 5 7 0 0
BITMAP
10
20
88
88
A8
A8
50
ENDCHAR
STARTCHAR LATIN CAPITAL LETTER W WITH DIAERESIS
ENCODING 7812
SWIDTH 392 0
DWIDTH 6 0
BBX 5 8 0 0
BITMAP
50
00
88
88
A8
A8
D8
88
ENDCHAR
STARTCHAR LATIN SMALL LETTER W WITH DIAERESIS
ENCODING 7813
SWIDTH 392 0
DWIDTH 6 0
BBX 5 7 0 0
BITMAP
50
00
88
88
A8
A8
50
ENDCHAR
STARTCHAR LATIN CAPITAL LETTER Y WITH GRAVE
ENCODING 7922
SWIDTH 392 0
DWIDTH 6 0
BBX 5 8 0 0
BITMAP
40
20
88
50
20
20
20
20
ENDCHAR
STARTCHAR LATIN SMALL LETTER Y WITH GRAVE
ENCODING 7923
SWIDTH 392 0
DWIDTH 6 0
BBX 6 10 0 -2
BITMAP
40
20
00
88
88
98
68
08
88
70
ENDCHAR
STARTCHAR GREEK SMALL LETTER ALPHA WITH PSILI
ENCODING 7936
SWIDTH 392 0
DWIDTH 6 0
BBX 5 8 0 0
BITMAP
30
10
20
70
88
88
98
68
ENDCHAR
STARTCHAR GREEK SMALL LETTER ALPHA WITH DASIA
ENCODING 7937
SWIDTH 392 0
DWIDTH 6 0
BBX 5 8 0 0
BITMAP
30
20
10
70
88
88
98
68
ENDCHAR
STARTCHAR GREEK SMALL LETTER ALPHA WITH PSILI AND VARIA
ENCODING 7938
SWIDTH 392 0
DWIDTH 6 0
BBX 5 8 0 0
BITMAP
70
28
40
70
88
88
98
68
ENDCHAR
STARTCHAR GREEK SMALL LETTER ALPHA WITH DASIA AND VARIA
ENCODING 7939
SWIDTH 392 0
DWIDTH 6 0
BBX 5 8 0 0
BITMAP
70
48
20
70
88
88
98
68
ENDCHAR
STARTCHAR GREEK SMALL LETTER ALPHA WITH PSILI AND OXIA
ENCODING 7940
SWIDTH 392 0
DWIDTH 6 0
BBX 5 8 0 0
BITMAP
68
30
40
70
88
88
98
68
ENDCHAR
STARTCHAR GREEK SMALL LETTER ALPHA WITH DASIA AND OXIA
ENCODING 7941
SWIDTH 392 0
DWIDTH 6 0
BBX 5 8 0 0
BITMAP
68
50
20
70
88
88
98
68
ENDCHAR
STARTCHAR GREEK SMALL LETTER ALPHA WITH PSILI AND PERISPOMENI
ENCODING 7942
SWIDTH 392 0
DWIDTH 6 0
BBX 5 8 0 0
BITMAP
78
10
20
70
88
88
98
68
ENDCHAR
STARTCHAR GREEK SMALL LETTER ALPHA WITH DASIA AND PERISPOMENI
ENCODING 7943
SWIDTH 392 0
DWIDTH 6 0
BBX 5 8 0 0
BITMAP
78
20
10
70
88
88
98
68
ENDCHAR
STARTCHAR GREEK CAPITAL LETTER ALPHA WITH PSILI
ENCODING 7944
SWIDTH 392 0
DWIDTH 6 0
BBX 6 7 0 0
BITMAP
D8
64
A4
24
3C
24
24
ENDCHAR
STARTCHAR GREEK CAPITAL LETTER ALPHA WITH DASIA
ENCODING 7945
SWIDTH 392 0
DWIDTH 6 0
BBX 6 7 0 0
BITMAP
D8
A4
64
24
3C
24
24
ENDCHAR
STARTCHAR GREEK CAPITAL LETTER ALPHA WITH PSILI AND VARIA
ENCODING 7946
SWIDTH 392 0
DWIDTH 6 0
BBX 6 7 0 0
BITMAP
D8
64
A4
A4
7C
24
24
ENDCHAR
STARTCHAR GREEK CAPITAL LETTER ALPHA WITH DASIA AND VARIA
ENCODING 7947
SWIDTH 392 0
DWIDTH 6 0
BBX 6 7 0 0
BITMAP
D8
A4
64
A4
7C
24
24
ENDCHAR
STARTCHAR GREEK CAPITAL LETTER ALPHA WITH PSILI AND OXIA
ENCODING 7948
SWIDTH 392 0
DWIDTH 6 0
BBX 6 7 0 0
BITMAP
D8
64
A4
64
BC
24
24
ENDCHAR
STARTCHAR GREEK CAPITAL LETTER ALPHA WITH DASIA AND OXIA
ENCODING 7949
SWIDTH 392 0
DWIDTH 6 0
BBX 6 7 0 0
BITMAP
D8
A4
64
64
BC
24
24
ENDCHAR
STARTCHAR GREEK CAPITAL LETTER ALPHA WITH PSILI AND PERISPOMENI
ENCODING 7950
SWIDTH 392 0
DWIDTH 6 0
BBX 6 7 0 0
BITMAP
D8
24
E4
64
BC
24
24
ENDCHAR
STARTCHAR GREEK CAPITAL LETTER ALPHA WITH DASIA AND PERISPOMENI
ENCODING 7951
SWIDTH 392 0
DWIDTH 6 0
BBX 6 7 0 0
BITMAP
D8
24
E4
A4
7C
24
24
ENDCHAR
STARTCHAR GREEK SMALL LETTER EPSILON WITH PSILI
ENCODING 7952
SWIDTH 392 0
DWIDTH 6 0
BBX 5 8 0 0
BITMAP
30
10
20
70
88
60
88
70
ENDCHAR
STARTCHAR GREEK SMALL LETTER EPSILON WITH DASIA
ENCODING 7953
SWIDTH 392 0
DWIDTH 6 0
BBX 5 8 0 0
BITMAP
30
20
10
70
88
60
88
70
ENDCHAR
STARTCHAR GREEK SMALL LETTER EPSILON WITH PSILI AND VARIA
ENCODING 7954
SWIDTH 392 0
DWIDTH 6 0
BBX 5 8 0 0
BITMAP
70
28
40
70
88
60
88
70
ENDCHAR
STARTCHAR GREEK SMALL LETTER EPSILON WITH DASIA AND VARIA
ENCODING 7955
SWIDTH 392 0
DWIDTH 6 0
BBX 5 8 0 0
BITMAP
70
48
20
70
88
60
88
70
ENDCHAR
STARTCHAR GREEK SMALL LETTER EPSILON WITH PSILI AND OXIA
ENCODING 7956
SWIDTH 392 0
DWIDTH 6 0
BBX 5 8 0 0
BITMAP
68
30
40
70
88
60
88
70
ENDCHAR
STARTCHAR GREEK SMALL LETTER EPSILON WITH DASIA AND OXIA
ENCODING 7957
SWIDTH 392 0
DWIDTH 6 0
BBX 5 8 0 0
BITMAP
68
50
20
70
88
60
88
70
ENDCHAR
STARTCHAR GREEK CAPITAL LETTER EPSILON WITH PSILI
ENCODING 7960
SWIDTH 392 0
DWIDTH 6 0
BBX 6 7 0 0
BITMAP
FC
60
A0
38
20
20
3C
ENDCHAR
STARTCHAR GREEK CAPITAL LETTER EPSILON WITH DASIA
ENCODING 7961
SWIDTH 392 0
DWIDTH 6 0
BBX 6 7 0 0
BITMAP
FC
A0
60
38
20
20
3C
ENDCHAR
STARTCHAR GREEK CAPITAL LETTER EPSILON WITH PSILI AND VARIA
ENCODING 7962
SWIDTH 392 0
DWIDTH 6 0
BBX 6 7 0 0
BITMAP
FC
60
A0
B8
60
20
3C
ENDCHAR
STARTCHAR GREEK CAPITAL LETTER EPSILON WITH DASIA AND VARIA
ENCODING 7963
SWIDTH 392 0
DWIDTH 6 0
BBX 6 7 0 0
BITMAP
FC
A0
60
B8
60
20
3C
ENDCHAR
STARTCHAR GREEK CAPITAL LETTER EPSILON WITH PSILI AND OXIA
ENCODING 7964
SWIDTH 392 0
DWIDTH 6 0
BBX 6 7 0 0
BITMAP
FC
60
A0
78
A0
20
3C
ENDCHAR
STARTCHAR GREEK CAPITAL LETTER EPSILON WITH DASIA AND OXIA
ENCODING 7965
SWIDTH 392 0
DWIDTH 6 0
BBX 6 7 0 0
BITMAP
FC
A0
60
78
A0
20
3C
ENDCHAR
STARTCHAR GREEK SMALL LETTER ETA WITH PSILI
ENCODING 7968
SWIDTH 392 0
DWIDTH 6 0
BBX 6 10 0 -2
BITMAP
30
10
20
B0
C8
88
88
88
08
08
ENDCHAR
STARTCHAR GREEK SMALL LETTER ETA WITH DASIA
ENCODING 7969
SWIDTH 392 0
DWIDTH 6 0
BBX 6 10 0 -2
BITMAP
30
20
10
B0
C8
88
88
88
08
08
ENDCHAR
STARTCHAR GREEK SMALL LETTER ETA WITH PSILI AND VARIA
ENCODING 7970
SWIDTH 392 0
DWIDTH 6 0
BBX 6 10 0 -2
BITMAP
70
28
40
B0
C8
88
88
88
08
08
ENDCHAR
STARTCHAR GREEK SMALL LETTER ETA WITH DASIA AND VARIA
ENCODING 7971
SWIDTH 392 0
DWIDTH 6 0
BBX 6 10 0 -2
BITMAP
70
48
20
B0
C8
88
88
88
08
08
ENDCHAR
STARTCHAR GREEK SMALL LETTER ETA WITH PSILI AND OXIA
ENCODING 7972
SWIDTH 392 0
DWIDTH 6 0
BBX 6 10 0 -2
BITMAP
68
30
40
B0
C8
88
88
88
08
08
ENDCHAR
STARTCHAR GREEK SMALL LETTER ETA WITH DASIA AND OXIA
ENCODING 7973
SWIDTH 392 0
DWIDTH 6 0
BBX 6 10 0 -2
BITMAP
68
50
20
B0
C8
88
88
88
08
08
ENDCHAR
STARTCHAR GREEK SMALL LETTER ETA WITH PSILI AND PERISPOMENI
ENCODING 7974
SWIDTH 392 0
DWIDTH 6 0
BBX 6 10 0 -2
BITMAP
78
10
20
B0
C8
88
88
88
08
08
ENDCHAR
STARTCHAR GREEK SMALL LETTER ETA WITH DASIA AND PERISPOMENI
ENCODING 7975
SWIDTH 392 0
DWIDTH 6 0
BBX 6 10 0 -2
BITMAP
78
20
10
B0
C8
88
88
88
08
08
ENDCHAR
STARTCHAR GREEK CAPITAL LETTER ETA WITH PSILI
ENCODING 7976
SWIDTH 392 0
DWIDTH 6 0
BBX 6 7 0 0
BITMAP
E4
64
A4
3C
24
24
24
ENDCHAR
STARTCHAR GREEK CAPITAL LETTER ETA WITH DASIA
ENCODING 7977
SWIDTH 392 0
DWIDTH 6 0
BBX 6 7 0 0
BITMAP
E4
A4
64
3C
24
24
24
ENDCHAR
STARTCHAR GREEK CAPITAL LETTER ETA WITH PSILI AND VARIA
ENCODING 7978
SWIDTH 392 0
DWIDTH 6 0
BBX 6 7 0 0
BITMAP
E4
64
A4
BC
64
24
24
ENDCHAR
STARTCHAR GREEK CAPITAL LETTER ETA WITH DASIA AND VARIA
ENCODING 7979
SWIDTH 392 0
DWIDTH 6 0
BBX 6 7 0 0
BITMAP
E4
A4
64
BC
64
24
24
ENDCHAR
STARTCHAR GREEK CAPITAL LETTER ETA WITH PSILI AND OXIA
ENCODING 7980
SWIDTH 392 0
DWIDTH 6 0
BBX 6 7 0 0
BITMAP
E4
64
A4
7C
A4
24
24
ENDCHAR
STARTCHAR GREEK CAPITAL LETTER ETA WITH DASIA AND OXIA
ENCODING 7981
SWIDTH 392 0
DWIDTH 6 0
BBX 6 7 0 0
BITMAP
E4
A4
64
7C
A4
24
24
ENDCHAR
STARTCHAR GREEK CAPITAL LETTER ETA WITH PSILI AND PERISPOMENI
ENCODING 7982
SWIDTH 392 0
DWIDTH 6 0
BBX 6 7 0 0
BITMAP
E4
24
E4
7C
A4
24
24
ENDCHAR
STARTCHAR GREEK CAPITAL LETTER ETA WITH DASIA AND PERISPOMENI
ENCODING 7983
SWIDTH 392 0
DWIDTH 6 0
BBX 6 7 0 0
BITMAP
E4
24
E4
BC
64
24
24
ENDCHAR
STARTCHAR GREEK SMALL LETTER IOTA WITH PSILI
ENCODING 7984
SWIDTH 392 0
DWIDTH 6 0
BBX 3 8 1 0
BITMAP
C0
40
80
80
80
80
A0
40
ENDCHAR
STARTCHAR GREEK SMALL LETTER IOTA WITH DASIA
ENCODING 7985
SWIDTH 392 0
DWIDTH 6 0
BBX 3 8 1 0
BITMAP
C0
80
40
80
80
80
A0
40
ENDCHAR
STARTCHAR GREEK SMALL LETTER IOTA WITH PSILI AND VARIA
ENCODING 7986
SWIDTH 392 0
DWIDTH 6 0
BBX 4 8 1 0
BITMAP
E0
50
80
40
40
40
50
20
ENDCHAR
STARTCHAR GREEK SMALL LETTER IOTA WITH DASIA AND VARIA
ENCODING 7987
SWIDTH 392 0
DWIDTH 6 0
BBX 4 8 1 0
BITMAP
E0
90
40
40
40
40
50
20
ENDCHAR
STARTCHAR GREEK SMALL LETTER IOTA WITH PSILI AND OXIA
ENCODING 7988
SWIDTH 392 0
DWIDTH 6 0
BBX 4 8 1 0
BITMAP
D0
60
80
40
40
40
50
20
ENDCHAR
STARTCHAR GREEK SMALL LETTER IOTA WITH DASIA AND OXIA
ENCODING 7989
SWIDTH 392 0
DWIDTH 6 0
BBX 4 8 1 0
BITMAP
D0
A0
40
40
40
40
50
20
ENDCHAR
STARTCHAR GREEK SMALL LETTER IOTA WITH PSILI AND PERISPOMENI
ENCODING 7990
SWIDTH 392 0
DWIDTH 6 0
BBX 4 8 1 0
BITMAP
F0
20
40
40
40
40
50
20
ENDCHAR
STARTCHAR GREEK SMALL LETTER IOTA WITH DASIA AND PERISPOMENI
ENCODING 7991
SWIDTH 392 0
DWIDTH 6 0
BBX 4 8 1 0
BITMAP
F0
40
20
40
40
40
50
20
ENDCHAR
STARTCHAR GREEK CAPITAL LETTER IOTA WITH PSILI
ENCODING 7992
SWIDTH 392 0
DWIDTH 6 0
BBX 6 7 0 0
BITMAP
DC
48
88
08
08
08
1C
ENDCHAR
STARTCHAR GREEK CAPITAL LETTER IOTA WITH DASIA
ENCODING 7993
SWIDTH 392 0
DWIDTH 6 0
BBX 6 7 0 0
BITMAP
DC
88
48
08
08
08
1C
ENDCHAR
STARTCHAR GREEK CAPITAL LETTER IOTA WITH PSILI AND VARIA
ENCODING 7994
SWIDTH 392 0
DWIDTH 6 0
BBX 6 7 0 0
BITMAP
DC
48
88
88
48
08
1C
ENDCHAR
STARTCHAR GREEK CAPITAL LETTER IOTA WITH DASIA AND VARIA
ENCODING 7995
SWIDTH 392 0
DWIDTH 6 0
BBX 6 7 0 0
BITMAP
DC
88
48
88
48
08
1C
ENDCHAR
STARTCHAR GREEK CAPITAL LETTER IOTA WITH PSILI AND OXIA
ENCODING 7996
SWIDTH 392 0
DWIDTH 6 0
BBX 6 7 0 0
BITMAP
DC
48
88
48
88
08
1C
ENDCHAR
STARTCHAR GREEK CAPITAL LETTER IOTA WITH DASIA AND OXIA
ENCODING 7997
SWIDTH 392 0
DWIDTH 6 0
BBX 6 7 0 0
BITMAP
DC
88
48
48
88
08
1C
ENDCHAR
STARTCHAR GREEK CAPITAL LETTER IOTA WITH PSILI AND PERISPOMENI
ENCODING 7998
SWIDTH 392 0
DWIDTH 6 0
BBX 6 7 0 0
BITMAP
DC
08
C8
48
88
08
1C
ENDCHAR
STARTCHAR GREEK CAPITAL LETTER IOTA WITH DASIA AND PERISPOMENI
ENCODING 7999
SWIDTH 392 0
DWIDTH 6 0
BBX 6 7 0 0
BITMAP
DC
08
C8
88
48
08
1C
ENDCHAR
STARTCHAR GREEK SMALL LETTER OMICRON WITH PSILI
ENCODING 8000
SWIDTH 392 0
DWIDTH 6 0
BBX 5 8 0 0
BITMAP
30
10
20
70
88
88
88
70
ENDCHAR
STARTCHAR GREEK SMALL LETTER OMICRON WITH DASIA
ENCODING 8001
SWIDTH 392 0
DWIDTH 6 0
BBX 5 8 0 0
BITMAP
30
20
10
70
88
88
88
70
ENDCHAR
STARTCHAR GREEK SMALL LETTER OMICRON WITH PSILI AND VARIA
ENCODING 8002
SWIDTH 392 0
DWIDTH 6 0
BBX 5 8 0 0
BITMAP
70
28
40
70
88
88
88
70
ENDCHAR
STARTCHAR GREEK SMALL LETTER OMICRON WITH DASIA AND VARIA
ENCODING 8003
SWIDTH 392 0
DWIDTH 6 0
BBX 5 8 0 0
BITMAP
70
48
20
70
88
88
88
70
ENDCHAR
STARTCHAR GREEK SMALL LETTER OMICRON WITH PSILI AND OXIA
ENCODING 8004
SWIDTH 392 0
DWIDTH 6 0
BBX 5 8 0 0
BITMAP
68
30
40
70
88
88
88
70
ENDCHAR
STARTCHAR GREEK SMALL LETTER OMICRON WITH DASIA AND OXIA
ENCODING 8005
SWIDTH 392 0
DWIDTH 6 0
BBX 5 8 0 0
BITMAP
68
50
20
70
88
88
88
70
ENDCHAR
STARTCHAR GREEK CAPITAL LETTER OMICRON WITH PSILI
ENCODING 8008
SWIDTH 392 0
DWIDTH 6 0
BBX 6 7 0 0
BITMAP
D8
64
A4
24
24
24
18
ENDCHAR
STARTCHAR GREEK CAPITAL LETTER OMICRON WITH DASIA
ENCODING 8009
SWIDTH 392 0
DWIDTH 6 0
BBX 6 7 0 0
BITMAP
D8
A4
64
24
24
24
18
ENDCHAR
STARTCHAR GREEK CAPITAL LETTER OMICRON WITH PSILI AND VARIA
ENCODING 8010
SWIDTH 392 0
DWIDTH 6 0
BBX 6 7 0 0
BITMAP
D8
64
A4
A4
64
24
18
ENDCHAR
STARTCHAR GREEK CAPITAL LETTER OMICRON WITH DASIA AND VARIA
ENCODING 8011
SWIDTH 392 0
DWIDTH 6 0
BBX 6 7 0 0
BITMAP
D8
A4
64
A4
64
24
18
ENDCHAR
STARTCHAR GREEK CAPITAL LETTER OMICRON WITH PSILI AND OXIA
ENCODING 8012
SWIDTH 392 0
DWIDTH 6 0
BBX 6 7 0 0
BITMAP
D8
64
A4
64
A4
24
18
ENDCHAR
STARTCHAR GREEK CAPITAL LETTER OMICRON WITH DASIA AND OXIA
ENCODING 8013
SWIDTH 392 0
DWIDTH 6 0
BBX 6 7 0 0
BITMAP
D8
A4
64
64
A4
24
18
ENDCHAR
STARTCHAR GREEK SMALL LETTER UPSILON WITH PSILI
ENCODING 8016
SWIDTH 392 0
DWIDTH 6 0
BBX 5 8 0 0
BITMAP
30
10
20
88
88
88
88
70
ENDCHAR
STARTCHAR GREEK SMALL LETTER UPSILON WITH DASIA
ENCODING 8017
SWIDTH 392 0
DWIDTH 6 0
BBX 5 8 0 0
BITMAP
30
20
10
88
88
88
88
70
ENDCHAR
STARTCHAR GREEK SMALL LETTER UPSILON WITH PSILI AND VARIA
ENCODING 8018
SWIDTH 392 0
DWIDTH 6 0
BBX 5 8 0 0
BITMAP
70
28
40
88
88
88
88
70
ENDCHAR
STARTCHAR GREEK SMALL LETTER UPSILON WITH DASIA AND VARIA
ENCODING 8019
SWIDTH 392 0
DWIDTH 6 0
BBX 5 8 0 0
BITMAP
70
48
20
88
88
88
88
70
ENDCHAR
STARTCHAR GREEK SMALL LETTER UPSILON WITH PSILI AND OXIA
ENCODING 8020
SWIDTH 392 0
DWIDTH 6 0
BBX 5 8 0 0
BITMAP
68
30
40
88
88
88
88
70
ENDCHAR
STARTCHAR GREEK SMALL LETTER UPSILON WITH DASIA AND OXIA
ENCODING 8021
SWIDTH 392 0
DWIDTH 6 0
BBX 5 8 0 0
BITMAP
68
50
20
88
88
88
88
70
ENDCHAR
STARTCHAR GREEK SMALL LETTER UPSILON WITH PSILI AND PERISPOMENI
ENCODING 8022
SWIDTH 392 0
DWIDTH 6 0
BBX 5 8 0 0
BITMAP
78
10
20
88
88
88
88
70
ENDCHAR
STARTCHAR GREEK SMALL LETTER UPSILON WITH DASIA AND PERISPOMENI
ENCODING 8023
SWIDTH 392 0
DWIDTH 6 0
BBX 5 8 0 0
BITMAP
78
20
10
88
88
88
88
70
ENDCHAR
STARTCHAR GREEK CAPITAL LETTER UPSILON WITH DASIA
ENCODING 8025
SWIDTH 392 0
DWIDTH 6 0
BBX 6 7 0 0
BITMAP
D4
94
54
08
08
08
08
ENDCHAR
STARTCHAR GREEK CAPITAL LETTER UPSILON WITH DASIA AND VARIA
ENCODING 8027
SWIDTH 392 0
DWIDTH 6 0
BBX 6 7 0 0
BITMAP
D4
94
54
88
48
08
08
ENDCHAR
STARTCHAR GREEK CAPITAL LETTER UPSILON WITH DASIA AND OXIA
ENCODING 8029
SWIDTH 392 0
DWIDTH 6 0
BBX 6 7 0 0
BITMAP
D4
94
54
48
88
08
08
ENDCHAR
STARTCHAR GREEK CAPITAL LETTER UPSILON WITH DASIA AND PERISPOMENI
ENCODING 8031
SWIDTH 392 0
DWIDTH 6 0
BBX 6 7 0 0
BITMAP
D4
14
D4
88
48
08
08
ENDCHAR
STARTCHAR GREEK SMALL LETTER OMEGA WITH PSILI
ENCODING 8032
SWIDTH 392 0
DWIDTH 6 0
BBX 5 8 0 0
BITMAP
30
10
20
88
A8
A8
A8
50
ENDCHAR
STARTCHAR GREEK SMALL LETTER OMEGA WITH DASIA
ENCODING 8033
SWIDTH 392 0
DWIDTH 6 0
BBX 5 8 0 0
BITMAP
30
20
10
88
A8
A8
A8
50
ENDCHAR
STARTCHAR GREEK SMALL LETTER OMEGA WITH PSILI AND VARIA
ENCODING 8034
SWIDTH 392 0
DWIDTH 6 0
BBX 5 8 0 0
BITMAP
70
28
40
88
A8
A8
A8
50
ENDCHAR
STARTCHAR GREEK SMALL LETTER OMEGA WITH DASIA AND VARIA
ENCODING 8035
SWIDTH 392 0
DWIDTH 6 0
BBX 5 8 0 0
BITMAP
70
48
20
88
A8
A8
A8
50
ENDCHAR
STARTCHAR GREEK SMALL LETTER OMEGA WITH PSILI AND OXIA
ENCODING 8036
SWIDTH 392 0
DWIDTH 6 0
BBX 5 8 0 0
BITMAP
68
30
40
88
A8
A8
A8
50
ENDCHAR
STARTCHAR GREEK SMALL LETTER OMEGA WITH DASIA AND OXIA
ENCODING 8037
SWIDTH 392 0
DWIDTH 6 0
BBX 5 8 0 0
BITMAP
68
50
20
88
A8
A8
A8
50
ENDCHAR
STARTCHAR GREEK SMALL LETTER OMEGA WITH PSILI AND PERISPOMENI
ENCODING 8038
SWIDTH 392 0
DWIDTH 6 0
BBX 5 8 0 0
BITMAP
78
10
20
88
A8
A8
A8
50
ENDCHAR
STARTCHAR GREEK SMALL LETTER OMEGA WITH DASIA AND PERISPOMENI
ENCODING 8039
SWIDTH 392 0
DWIDTH 6 0
BBX 5 8 0 0
BITMAP
78
20
10
88
A8
A8
A8
50
ENDCHAR
STARTCHAR GREEK CAPITAL LETTER OMEGA WITH PSILI
ENCODING 8040
SWIDTH 392 0
DWIDTH 6 0
BBX 6 7 0 0
BITMAP
D8
64
A4
24
24
18
3C
ENDCHAR
STARTCHAR GREEK CAPITAL LETTER OMEGA WITH DASIA
ENCODING 8041
SWIDTH 392 0
DWIDTH 6 0
BBX 6 7 0 0
BITMAP
D8
A4
64
24
24
18
3C
ENDCHAR
STARTCHAR GREEK CAPITAL LETTER OMEGA WITH PSILI AND VARIA
ENCODING 8042
SWIDTH 392 0
DWIDTH 6 0
BBX 6 7 0 0
BITMAP
D8
64
A4
A4
64
18
3C
ENDCHAR
STARTCHAR GREEK CAPITAL LETTER OMEGA WITH DASIA AND VARIA
ENCODING 8043
SWIDTH 392 0
DWIDTH 6 0
BBX 6 7 0 0
BITMAP
D8
A4
64
A4
64
18
3C
ENDCHAR
STARTCHAR GREEK CAPITAL LETTER OMEGA WITH PSILI AND OXIA
ENCODING 8044
SWIDTH 392 0
DWIDTH 6 0
BBX 6 7 0 0
BITMAP
D8
64
A4
64
A4
18
3C
ENDCHAR
STARTCHAR GREEK CAPITAL LETTER OMEGA WITH DASIA AND OXIA
ENCODING 8045
SWIDTH 392 0
DWIDTH 6 0
BBX 6 7 0 0
BITMAP
D8
A4
64
64
A4
18
3C
ENDCHAR
STARTCHAR GREEK CAPITAL LETTER OMEGA WITH PSILI AND PERISPOMENI
ENCODING 8046
SWIDTH 392 0
DWIDTH 6 0
BBX 6 7 0 0
BITMAP
D8
24
E4
64
A4
18
3C
ENDCHAR
STARTCHAR GREEK CAPITAL LETTER OMEGA WITH DASIA AND PERISPOMENI
ENCODING 8047
SWIDTH 392 0
DWIDTH 6 0
BBX 6 7 0 0
BITMAP
D8
24
E4
A4
64
18
3C
ENDCHAR
STARTCHAR GREEK SMALL LETTER ALPHA WITH VARIA
ENCODING 8048
SWIDTH 392 0
DWIDTH 6 0
BBX 5 8 0 0
BITMAP
40
20
00
70
88
88
98
68
ENDCHAR
STARTCHAR GREEK SMALL LETTER ALPHA WITH OXIA
ENCODING 8049
SWIDTH 392 0
DWIDTH 6 0
BBX 5 8 0 0
BITMAP
10
20
00
70
88
88
98
68
ENDCHAR
STARTCHAR GREEK SMALL LETTER EPSILON WITH VARIA
ENCODING 8050
SWIDTH 392 0
DWIDTH 6 0
BBX 5 8 0 0
BITMAP
40
20
00
70
88
60
88
70
ENDCHAR
STARTCHAR GREEK SMALL LETTER EPSILON WITH OXIA
ENCODING 8051
SWIDTH 392 0
DWIDTH 6 0
BBX 5 8 0 0
BITMAP
10
20
00
70
88
60
88
70
ENDCHAR
STARTCHAR GREEK SMALL LETTER ETA WITH VARIA
ENCODING 8052
SWIDTH 392 0
DWIDTH 6 0
BBX 6 10 0 -2
BITMAP
40
20
00
B0
C8
88
88
88
08
08
ENDCHAR
STARTCHAR GREEK SMALL LETTER ETA WITH OXIA
ENCODING 8053
SWIDTH 392 0
DWIDTH 6 0
BBX 6 10 0 -2
BITMAP
10
20
00
B0
C8
88
88
88
08
08
ENDCHAR
STARTCHAR GREEK SMALL LETTER IOTA WITH VARIA
ENCODING 8054
SWIDTH 392 0
DWIDTH 6 0
BBX 4 8 1 0
BITMAP
80
40
00
40
40
40
50
20
ENDCHAR
STARTCHAR GREEK SMALL LETTER IOTA WITH OXIA
ENCODING 8055
SWIDTH 392 0
DWIDTH 6 0
BBX 3 8 1 0
BITMAP
40
80
00
80
80
80
A0
40
ENDCHAR
STARTCHAR GREEK SMALL LETTER OMICRON WITH VARIA
ENCODING 8056
SWIDTH 392 0
DWIDTH 6 0
BBX 5 8 0 0
BITMAP
40
20
00
70
88
88
88
70
ENDCHAR
STARTCHAR GREEK SMALL LETTER OMICRON WITH OXIA
ENCODING 8057
SWIDTH 392 0
DWIDTH 6 0
BBX 5 8 0 0
BITMAP
10
20
00
70
88
88
88
70
ENDCHAR
STARTCHAR GREEK SMALL LETTER UPSILON WITH VARIA
ENCODING 8058
SWIDTH 392 0
DWIDTH 6 0
BBX 5 8 0 0
BITMAP
40
20
00
88
88
88
88
70
ENDCHAR
STARTCHAR GREEK SMALL LETTER UPSILON WITH OXIA
ENCODING 8059
SWIDTH 392 0
DWIDTH 6 0
BBX 5 8 0 0
BITMAP
10
20
00
88
88
88
88
70
ENDCHAR
STARTCHAR GREEK SMALL LETTER OMEGA WITH VARIA
ENCODING 8060
SWIDTH 392 0
DWIDTH 6 0
BBX 5 8 0 0
BITMAP
40
20
00
88
A8
A8
A8
50
ENDCHAR
STARTCHAR GREEK SMALL LETTER OMEGA WITH OXIA
ENCODING 8061
SWIDTH 392 0
DWIDTH 6 0
BBX 5 8 0 0
BITMAP
10
20
00
88
A8
A8
A8
50
ENDCHAR
STARTCHAR GREEK SMALL LETTER ALPHA WITH PSILI AND YPOGEGRAMMENI
ENCODING 8064
SWIDTH 392 0
DWIDTH 6 0
BBX 6 10 0 -2
BITMAP
30
10
20
70
88
88
98
68
00
20
ENDCHAR
STARTCHAR GREEK SMALL LETTER ALPHA WITH DASIA AND YPOGEGRAMMENI
ENCODING 8065
SWIDTH 392 0
DWIDTH 6 0
BBX 6 10 0 -2
BITMAP
30
20
10
70
88
88
98
68
00
20
ENDCHAR
STARTCHAR GREEK SMALL LETTER ALPHA WITH PSILI AND VARIA AND YPOGEGRAMMENI
ENCODING 8066
SWIDTH 392 0
DWIDTH 6 0
BBX 6 10 0 -2
BITMAP
70
28
40
70
88
88
98
68
00
20
ENDCHAR
STARTCHAR GREEK SMALL LETTER ALPHA WITH DASIA AND VARIA AND YPOGEGRAMMENI
ENCODING 8067
SWIDTH 392 0
DWIDTH 6 0
BBX 6 10 0 -2
BITMAP
70
48
20
70
88
88
98
68
00
20
ENDCHAR
STARTCHAR GREEK SMALL LETTER ALPHA WITH PSILI AND OXIA AND YPOGEGRAMMENI
ENCODING 8068
SWIDTH 392 0
DWIDTH 6 0
BBX 6 10 0 -2
BITMAP
68
30
40
70
88
88
98
68
00
20
ENDCHAR
STARTCHAR GREEK SMALL LETTER ALPHA WITH DASIA AND OXIA AND YPOGEGRAMMENI
ENCODING 8069
SWIDTH 392 0
DWIDTH 6 0
BBX 6 10 0 -2
BITMAP
68
50
20
70
88
88
98
68
00
20
ENDCHAR
STARTCHAR GREEK SMALL LETTER ALPHA WITH PSILI AND PERISPOMENI AND YPOGEGRAMMENI
ENCODING 8070
SWIDTH 392 0
DWIDTH 6 0
BBX 6 10 0 -2
BITMAP
78
10
20
70
88
88
98
68
00
20
ENDCHAR
STARTCHAR GREEK SMALL LETTER ALPHA WITH DASIA AND PERISPOMENI AND YPOGEGRAMMENI
ENCODING 8071
SWIDTH 392 0
DWIDTH 6 0
BBX 6 10 0 -2
BITMAP
78
20
10
70
88
88
98
68
00
20
ENDCHAR
STARTCHAR GREEK CAPITAL LETTER ALPHA WITH PSILI AND PROSGEGRAMMENI
ENCODING 8072
SWIDTH 392 0
DWIDTH 6 0
BBX 6 9 0 -2
BITMAP
D8
64
A4
24
3C
24
24
00
10
ENDCHAR
STARTCHAR GREEK CAPITAL LETTER ALPHA WITH DASIA AND PROSGEGRAMMENI
ENCODING 8073
SWIDTH 392 0
DWIDTH 6 0
BBX 6 9 0 -2
BITMAP
D8
A4
64
24
3C
24
24
00
10
ENDCHAR
STARTCHAR GREEK CAPITAL LETTER ALPHA WITH PSILI AND VARIA AND PROSGEGRAMMENI
ENCODING 8074
SWIDTH 392 0
DWIDTH 6 0
BBX 6 9 0 -2
BITMAP
D8
64
A4
A4
7C
24
24
00
10
ENDCHAR
STARTCHAR GREEK CAPITAL LETTER ALPHA WITH DASIA AND VARIA AND PROSGEGRAMMENI
ENCODING 8075
SWIDTH 392 0
DWIDTH 6 0
BBX 6 9 0 -2
BITMAP
D8
A4
64
A4
7C
24
24
00
10
ENDCHAR
STARTCHAR GREEK CAPITAL LETTER ALPHA WITH PSILI AND OXIA AND PROSGEGRAMMENI
ENCODING 8076
SWIDTH 392 0
DWIDTH 6 0
BBX 6 9 0 -2
BITMAP
D8
64
A4
64
BC
24
24
00
10
ENDCHAR
STARTCHAR GREEK CAPITAL LETTER ALPHA WITH DASIA AND OXIA AND PROSGEGRAMMENI
ENCODING 8077
SWIDTH 392 0
DWIDTH 6 0
BBX 6 9 0 -2
BITMAP
D8
A4
64
64
BC
24
24
00
10
ENDCHAR
STARTCHAR GREEK CAPITAL LETTER ALPHA WITH PSILI AND PERISPOMENI AND PROSGEGRAMMENI
ENCODING 8078
SWIDTH 392 0
DWIDTH 6 0
BBX 6 9 0 -2
BITMAP
D8
24
E4
64
BC
24
24
00
10
ENDCHAR
STARTCHAR GREEK CAPITAL LETTER ALPHA WITH DASIA AND PERISPOMENI AND PROSGEGRAMMENI
ENCODING 8079
SWIDTH 392 0
DWIDTH 6 0
BBX 6 9 0 -2
BITMAP
D8
24
E4
A4
7C
24
24
00
10
ENDCHAR
STARTCHAR GREEK SMALL LETTER ETA WITH PSILI AND YPOGEGRAMMENI
ENCODING 8080
SWIDTH 392 0
DWIDTH 6 0
BBX 6 10 0 -2
BITMAP
30
10
20
B0
C8
88
88
88
08
88
ENDCHAR
STARTCHAR GREEK SMALL LETTER ETA WITH DASIA AND YPOGEGRAMMENI
ENCODING 8081
SWIDTH 392 0
DWIDTH 6 0
BBX 6 10 0 -2
BITMAP
30
20
10
B0
C8
88
88
88
08
88
ENDCHAR
STARTCHAR GREEK SMALL LETTER ETA WITH PSILI AND VARIA AND YPOGEGRAMMENI
ENCODING 8082
SWIDTH 392 0
DWIDTH 6 0
BBX 6 10 0 -2
BITMAP
70
28
40
B0
C8
88
88
88
08
88
ENDCHAR
STARTCHAR GREEK SMALL LETTER ETA WITH DASIA AND VARIA AND YPOGEGRAMMENI
ENCODING 8083
SWIDTH 392 0
DWIDTH 6 0
BBX 6 10 0 -2
BITMAP
70
48
20
B0
C8
88
88
88
08
88
ENDCHAR
STARTCHAR GREEK SMALL LETTER ETA WITH PSILI AND OXIA AND YPOGEGRAMMENI
ENCODING 8084
SWIDTH 392 0
DWIDTH 6 0
BBX 6 10 0 -2
BITMAP
68
30
40
B0
C8
88
88
88
08
88
ENDCHAR
STARTCHAR GREEK SMALL LETTER ETA WITH DASIA AND OXIA AND YPOGEGRAMMENI
ENCODING 8085
SWIDTH 392 0
DWIDTH 6 0
BBX 6 10 0 -2
BITMAP
68
50
20
B0
C8
88
88
88
08
88
ENDCHAR
STARTCHAR GREEK SMALL LETTER ETA WITH PSILI AND PERISPOMENI AND YPOGEGRAMMENI
ENCODING 8086
SWIDTH 392 0
DWIDTH 6 0
BBX 6 10 0 -2
BITMAP
78
10
20
B0
C8
88
88
88
08
88
ENDCHAR
STARTCHAR GREEK SMALL LETTER ETA WITH DASIA AND PERISPOMENI AND YPOGEGRAMMENI
ENCODING 8087
SWIDTH 392 0
DWIDTH 6 0
BBX 6 10 0 -2
BITMAP
78
20
10
B0
C8
88
88
88
08
88
ENDCHAR
STARTCHAR GREEK CAPITAL LETTER ETA WITH PSILI AND PROSGEGRAMMENI
ENCODING 8088
SWIDTH 392 0
DWIDTH 6 0
BBX 6 9 0 -2
BITMAP
E4
64
A4
3C
24
24
24
00
10
ENDCHAR
STARTCHAR GREEK CAPITAL LETTER ETA WITH DASIA AND PROSGEGRAMMENI
ENCODING 8089
SWIDTH 392 0
DWIDTH 6 0
BBX 6 9 0 -2
BITMAP
E4
A4
64
3C
24
24
24
00
10
ENDCHAR
STARTCHAR GREEK CAPITAL LETTER ETA WITH PSILI AND VARIA AND PROSGEGRAMMENI
ENCODING 8090
SWIDTH 392 0
DWIDTH 6 0
BBX 6 9 0 -2
BITMAP
E4
64
A4
BC
64
24
24
00
10
ENDCHAR
STARTCHAR GREEK CAPITAL LETTER ETA WITH DASIA AND VARIA AND PROSGEGRAMMENI
ENCODING 8091
SWIDTH 392 0
DWIDTH 6 0
BBX 6 9 0 -2
BITMAP
E4
A4
64
BC
64
24
24
00
10
ENDCHAR
STARTCHAR GREEK CAPITAL LETTER ETA WITH PSILI AND OXIA AND PROSGEGRAMMENI
ENCODING 8092
SWIDTH 392 0
DWIDTH 6 0
BBX 6 9 0 -2
BITMAP
E4
64
A4
7C
A4
24
24
00
10
ENDCHAR
STARTCHAR GREEK CAPITAL LETTER ETA WITH DASIA AND OXIA AND PROSGEGRAMMENI
ENCODING 8093
SWIDTH 392 0
DWIDTH 6 0
BBX 6 9 0 -2
BITMAP
E4
A4
64
7C
A4
24
24
00
10
ENDCHAR
STARTCHAR GREEK CAPITAL LETTER ETA WITH PSILI AND PERISPOMENI AND PROSGEGRAMMENI
ENCODING 8094
SWIDTH 392 0
DWIDTH 6 0
BBX 6 9 0 -2
BITMAP
E4
24
E4
7C
A4
24
24
00
10
ENDCHAR
STARTCHAR GREEK CAPITAL LETTER ETA WITH DASIA AND PERISPOMENI AND PROSGEGRAMMENI
ENCODING 8095
SWIDTH 392 0
DWIDTH 6 0
BBX 6 9 0 -2
BITMAP
E4
24
E4
BC
64
24
24
00
10
ENDCHAR
STARTCHAR GREEK SMALL LETTER OMEGA WITH PSILI AND YPOGEGRAMMENI
ENCODING 8096
SWIDTH 392 0
DWIDTH 6 0
BBX 6 10 0 -2
BITMAP
30
10
20
88
A8
A8
A8
50
00
20
ENDCHAR
STARTCHAR GREEK SMALL LETTER OMEGA WITH DASIA AND YPOGEGRAMMENI
ENCODING 8097
SWIDTH 392 0
DWIDTH 6 0
BBX 6 10 0 -2
BITMAP
30
20
10
88
A8
A8
A8
50
00
20
ENDCHAR
STARTCHAR GREEK SMALL LETTER OMEGA WITH PSILI AND VARIA AND YPOGEGRAMMENI
ENCODING 8098
SWIDTH 392 0
DWIDTH 6 0
BBX 6 10 0 -2
BITMAP
70
28
40
88
A8
A8
A8
50
00
20
ENDCHAR
STARTCHAR GREEK SMALL LETTER OMEGA WITH DASIA AND VARIA AND YPOGEGRAMMENI
ENCODING 8099
SWIDTH 392 0
DWIDTH 6 0
BBX 6 10 0 -2
BITMAP
70
48
20
88
A8
A8
A8
50
00
20
ENDCHAR
STARTCHAR GREEK SMALL LETTER OMEGA WITH PSILI AND OXIA AND YPOGEGRAMMENI
ENCODING 8100
SWIDTH 392 0
DWIDTH 6 0
BBX 6 10 0 -2
BITMAP
68
30
40
88
A8
A8
A8
50
00
20
ENDCHAR
STARTCHAR GREEK SMALL LETTER OMEGA WITH DASIA AND OXIA AND YPOGEGRAMMENI
ENCODING 8101
SWIDTH 392 0
DWIDTH 6 0
BBX 6 10 0 -2
BITMAP
68
50
20
88
A8
A8
A8
50
00
20
ENDCHAR
STARTCHAR GREEK SMALL LETTER OMEGA WITH PSILI AND PERISPOMENI AND YPOGEGRAMMENI
ENCODING 8102
SWIDTH 392 0
DWIDTH 6 0
BBX 6 10 0 -2
BITMAP
78
10
20
88
A8
A8
A8
50
00
20
ENDCHAR
STARTCHAR GREEK SMALL LETTER OMEGA WITH DASIA AND PERISPOMENI AND YPOGEGRAMMENI
ENCODING 8103
SWIDTH 392 0
DWIDTH 6 0
BBX 6 10 0 -2
BITMAP
78
20
10
88
A8
A8
A8
50
00
20
ENDCHAR
STARTCHAR GREEK CAPITAL LETTER OMEGA WITH PSILI AND PROSGEGRAMMENI
ENCODING 8104
SWIDTH 392 0
DWIDTH 6 0
BBX 6 9 0 -2
BITMAP
D8
64
A4
24
24
18
3C
00
10
ENDCHAR
STARTCHAR GREEK CAPITAL LETTER OMEGA WITH DASIA AND PROSGEGRAMMENI
ENCODING 8105
SWIDTH 392 0
DWIDTH 6 0
BBX 6 9 0 -2
BITMAP
D8
A4
64
24
24
18
3C
00
10
ENDCHAR
STARTCHAR GREEK CAPITAL LETTER OMEGA WITH PSILI AND VARIA AND PROSGEGRAMMENI
ENCODING 8106
SWIDTH 392 0
DWIDTH 6 0
BBX 6 9 0 -2
BITMAP
D8
64
A4
A4
64
18
3C
00
10
ENDCHAR
STARTCHAR GREEK CAPITAL LETTER OMEGA WITH DASIA AND VARIA AND PROSGEGRAMMENI
ENCODING 8107
SWIDTH 392 0
DWIDTH 6 0
BBX 6 9 0 -2
BITMAP
D8
A4
64
A4
64
18
3C
00
10
ENDCHAR
STARTCHAR GREEK CAPITAL LETTER OMEGA WITH PSILI AND OXIA AND PROSGEGRAMMENI
ENCODING 8108
SWIDTH 392 0
DWIDTH 6 0
BBX 6 9 0 -2
BITMAP
D8
64
A4
64
A4
18
3C
00
10
ENDCHAR
STARTCHAR GREEK CAPITAL LETTER OMEGA WITH DASIA AND OXIA AND PROSGEGRAMMENI
ENCODING 8109
SWIDTH 392 0
DWIDTH 6 0
BBX 6 9 0 -2
BITMAP
D8
A4
64
64
A4
18
3C
00
10
ENDCHAR
STARTCHAR GREEK CAPITAL LETTER OMEGA WITH PSILI AND PERISPOMENI AND PROSGEGRAMMENI
ENCODING 8110
SWIDTH 392 0
DWIDTH 6 0
BBX 6 9 0 -2
BITMAP
D8
24
E4
64
A4
18
3C
00
10
ENDCHAR
STARTCHAR GREEK CAPITAL LETTER OMEGA WITH DASIA AND PERISPOMENI AND PROSGEGRAMMENI
ENCODING 8111
SWIDTH 392 0
DWIDTH 6 0
BBX 6 9 0 -2
BITMAP
D8
24
E4
A4
64
18
3C
00
10
ENDCHAR
STARTCHAR GREEK SMALL LETTER ALPHA WITH VRACHY
ENCODING 8112
SWIDTH 392 0
DWIDTH 6 0
BBX 5 8 0 0
BITMAP
88
70
00
70
88
88
98
68
ENDCHAR
STARTCHAR GREEK SMALL LETTER ALPHA WITH MACRON
ENCODING 8113
SWIDTH 392 0
DWIDTH 6 0
BBX 5 7 0 0
BITMAP
F8
00
70
88
88
98
68
ENDCHAR
STARTCHAR GREEK SMALL LETTER ALPHA WITH VARIA AND YPOGEGRAMMENI
ENCODING 8114
SWIDTH 392 0
DWIDTH 6 0
BBX 6 10 0 -2
BITMAP
40
20
00
70
88
88
98
68
00
20
ENDCHAR
STARTCHAR GREEK SMALL LETTER ALPHA WITH YPOGEGRAMMENI
ENCODING 8115
SWIDTH 392 0
DWIDTH 6 0
BBX 5 7 0 -2
BITMAP
70
88
88
98
68
00
20
ENDCHAR
STARTCHAR GREEK SMALL LETTER ALPHA WITH OXIA AND YPOGEGRAMMENI
ENCODING 8116
SWIDTH 392 0
DWIDTH 6 0
BBX 6 10 0 -2
BITMAP
10
20
00
70
88
88
98
68
00
20
ENDCHAR
STARTCHAR GREEK SMALL LETTER ALPHA WITH PERISPOMENI
ENCODING 8118
SWIDTH 392 0
DWIDTH 6 0
BBX 5 7 0 0
BITMAP
78
00
70
88
88
98
68
ENDCHAR
STARTCHAR GREEK SMALL LETTER ALPHA WITH PERISPOMENI AND YPOGEGRAMMENI
ENCODING 8119
SWIDTH 392 0
DWIDTH 6 0
BBX 5 9 0 -2
BITMAP
78
00
70
88
88
98
68
00
20
ENDCHAR
STARTCHAR GREEK CAPITAL LETTER ALPHA WITH VRACHY
ENCODING 8120
SWIDTH 392 0
DWIDTH 6 0
BBX 5 8 0 0
BITMAP
88
70
70
88
88
F8
88
88
ENDCHAR
STARTCHAR GREEK CAPITAL LETTER ALPHA WITH MACRON
ENCODING 8121
SWIDTH 392 0
DWIDTH 6 0
BBX 5 8 0 0
BITMAP
F8
00
70
88
88
F8
88
88
ENDCHAR
STARTCHAR GREEK CAPITAL LETTER ALPHA WITH VARIA
ENCODING 8122
SWIDTH 392 0
DWIDTH 6 0
BBX 6 7 0 0
BITMAP
98
64
24
24
3C
24
24
ENDCHAR
STARTCHAR GREEK CAPITAL LETTER ALPHA WITH OXIA
ENCODING 8123
SWIDTH 392 0
DWIDTH 6 0
BBX 6 7 0 0
BITMAP
58
A4
24
24
3C
24
24
ENDCHAR
STARTCHAR GREEK CAPITAL LETTER ALPHA WITH PROSGEGRAMMENI
ENCODING 8124
SWIDTH 392 0
DWIDTH 6 0
BBX 5 9 0 -2
BITMAP
20
50
88
88
F8
88
88
20
30
ENDCHAR
STARTCHAR GREEK KORONIS
ENCODING 8125
SWIDTH 392 0
DWIDTH 6 0
BBX 2 3 2 4
BITMAP
C0
40
80
ENDCHAR
STARTCHAR GREEK PROSGEGRAMMENI
ENCODING 8126
SWIDTH 392 0
DWIDTH 6 0
BBX 2 3 2 0
BITMAP
80
80
40
ENDCHAR
STARTCHAR GREEK PSILI
ENCODING 8127
SWIDTH 392 0
DWIDTH 6 0
BBX 2 3 2 4
BITMAP
C0
40
80
ENDCHAR
STARTCHAR GREEK PERISPOMENI
ENCODING 8128
SWIDTH 392 0
DWIDTH 6 0
BBX 4 1 1 6
BITMAP
F0
ENDCHAR
STARTCHAR GREEK DIALYTIKA AND PERISPOMENI
ENCODING 8129
SWIDTH 392 0
DWIDTH 6 0
BBX 5 3 0 4
BITMAP
F8
00
88
ENDCHAR
STARTCHAR GREEK SMALL LETTER ETA WITH VARIA AND YPOGEGRAMMENI
ENCODING 8130
SWIDTH 392 0
DWIDTH 6 0
BBX 6 10 0 -2
BITMAP
40
20
00
B0
C8
88
88
88
08
88
ENDCHAR
STARTCHAR GREEK SMALL LETTER ETA WITH YPOGEGRAMMENI
ENCODING 8131
SWIDTH 392 0
DWIDTH 6 0
BBX 5 7 0 -2
BITMAP
B0
C8
88
88
88
08
88
ENDCHAR
STARTCHAR GREEK SMALL LETTER ETA WITH OXIA AND YPOGEGRAMMENI
ENCODING 8132
SWIDTH 392 0
DWIDTH 6 0
BBX 6 10 0 -2
BITMAP
10
20
00
B0
C8
88
88
88
08
88
ENDCHAR
STARTCHAR GREEK SMALL LETTER ETA WITH PERISPOMENI
ENCODING 8134
SWIDTH 392 0
DWIDTH 6 0
BBX 5 9 0 -2
BITMAP
78
00
B0
C8
88
88
88
08
08
ENDCHAR
STARTCHAR GREEK SMALL LETTER ETA WITH PERISPOMENI AND YPOGEGRAMMENI
ENCODING 8135
SWIDTH 392 0
DWIDTH 6 0
BBX 5 9 0 -2
BITMAP
78
00
B0
C8
88
88
88
08
88
ENDCHAR
STARTCHAR GREEK CAPITAL LETTER EPSILON WITH VARIA
ENCODING 8136
SWIDTH 392 0
DWIDTH 6 0
BBX 6 7 0 0
BITMAP
BC
60
20
38
20
20
3C
ENDCHAR
STARTCHAR GREEK CAPITAL LETTER EPSILON WITH OXIA
ENCODING 8137
SWIDTH 392 0
DWIDTH 6 0
BBX 6 7 0 0
BITMAP
7C
A0
20
38
20
20
3C
ENDCHAR
STARTCHAR GREEK CAPITAL LETTER ETA WITH VARIA
ENCODING 8138
SWIDTH 392 0
DWIDTH 6 0
BBX 6 7 0 0
BITMAP
A4
64
24
3C
24
24
24
ENDCHAR
STARTCHAR GREEK CAPITAL LETTER ETA WITH OXIA
ENCODING 8139
SWIDTH 392 0
DWIDTH 6 0
BBX 6 7 0 0
BITMAP
64
A4
24
3C
24
24
24
ENDCHAR
STARTCHAR GREEK CAPITAL LETTER ETA WITH PROSGEGRAMMENI
ENCODING 8140
SWIDTH 392 0
DWIDTH 6 0
BBX 5 9 0 -2
BITMAP
88
88
88
F8
88
88
88
20
30
ENDCHAR
STARTCHAR GREEK PSILI AND VARIA
ENCODING 8141
SWIDTH 392 0
DWIDTH 6 0
BBX 4 3 1 4
BITMAP
E0
50
80
ENDCHAR
STARTCHAR GREEK PSILI AND OXIA
ENCODING 8142
SWIDTH 392 0
DWIDTH 6 0
BBX 4 3 1 4
BITMAP
D0
60
80
ENDCHAR
STARTCHAR GREEK PSILI AND PERISPOMENI
ENCODING 8143
SWIDTH 392 0
DWIDTH 6 0
BBX 4 3 1 4
BITMAP
F0
20
40
ENDCHAR
STARTCHAR GREEK SMALL LETTER IOTA WITH VRACHY
ENCODING 8144
SWIDTH 392 0
DWIDTH 6 0
BBX 5 8 0 0
BITMAP
88
70
00
20
20
20
28
10
ENDCHAR
STARTCHAR GREEK SMALL LETTER IOTA WITH MACRON
ENCODING 8145
SWIDTH 392 0
DWIDTH 6 0
BBX 5 7 0 0
BITMAP
F8
00
20
20
20
28
10
ENDCHAR
STARTCHAR GREEK SMALL LETTER IOTA WITH DIALYTIKA AND VARIA
ENCODING 8146
SWIDTH 392 0
DWIDTH 6 0
BBX 5 8 0 0
BITMAP
40
A8
00
20
20
20
28
10
ENDCHAR
STARTCHAR GREEK SMALL LETTER IOTA WITH DIALYTIKA AND OXIA
ENCODING 8147
SWIDTH 392 0
DWIDTH 6 0
BBX 5 8 0 0
BITMAP
10
A8
00
20
20
20
28
10
ENDCHAR
STARTCHAR GREEK SMALL LETTER IOTA WITH PERISPOMENI
ENCODING 8150
SWIDTH 392 0
DWIDTH 6 0
BBX 4 7 1 0
BITMAP
F0
00
40
40
40
50
20
ENDCHAR
STARTCHAR GREEK SMALL LETTER IOTA WITH DIALYTIKA AND PERISPOMENI
ENCODING 8151
SWIDTH 392 0
DWIDTH 6 0
BBX 5 8 0 0
BITMAP
F8
00
88
20
20
20
28
10
ENDCHAR
STARTCHAR GREEK CAPITAL LETTER IOTA WITH VRACHY
ENCODING 8152
SWIDTH 392 0
DWIDTH 6 0
BBX 5 8 0 0
BITMAP
88
70
70
20
20
20
20
70
ENDCHAR
STARTCHAR GREEK CAPITAL LETTER IOTA WITH MACRON
ENCODING 8153
SWIDTH 392 0
DWIDTH 6 0
BBX 5 8 0 0
BITMAP
F8
00
70
20
20
20
20
70
ENDCHAR
STARTCHAR GREEK CAPITAL LETTER IOTA WITH VARIA
ENCODING 8154
SWIDTH 392 0
DWIDTH 6 0
BBX 6 7 0 0
BITMAP
9C
48
08
08
08
08
1C
ENDCHAR
STARTCHAR GREEK CAPITAL LETTER IOTA WITH OXIA
ENCODING 8155
SWIDTH 392 0
DWIDTH 6 0
BBX 6 7 0 0
BITMAP
5C
88
08
08
08
08
1C
ENDCHAR
STARTCHAR GREEK DASIA AND VARIA
ENCODING 8157
SWIDTH 392 0
DWIDTH 6 0
BBX 4 3 1 4
BITMAP
D0
60
80
ENDCHAR
STARTCHAR GREEK DASIA AND OXIA
ENCODING 8158
SWIDTH 392 0
DWIDTH 6 0
BBX 4 3 1 4
BITMAP
D0
A0
40
ENDCHAR
STARTCHAR GREEK DASIA AND PERISPOMENI
ENCODING 8159
SWIDTH 392 0
DWIDTH 6 0
BBX 4 3 1 4
BITMAP
F0
40
20
ENDCHAR
STARTCHAR GREEK SMALL LETTER UPSILON WITH VRACHY
ENCODING 8160
SWIDTH 392 0
DWIDTH 6 0
BBX 5 8 0 0
BITMAP
88
70
00
88
88
88
88
70
ENDCHAR
STARTCHAR GREEK SMALL LETTER UPSILON WITH MACRON
ENCODING 8161
SWIDTH 392 0
DWIDTH 6 0
BBX 5 7 0 0
BITMAP
F8
00
88
88
88
88
70
ENDCHAR
STARTCHAR GREEK SMALL LETTER UPSILON WITH DIALYTIKA AND VARIA
ENCODING 8162
SWIDTH 392 0
DWIDTH 6 0
BBX 5 8 0 0
BITMAP
40
A8
00
88
88
88
88
70
ENDCHAR
STARTCHAR GREEK SMALL LETTER UPSILON WITH DIALYTIKA AND OXIA
ENCODING 8163
SWIDTH 392 0
DWIDTH 6 0
BBX 5 8 0 0
BITMAP
10
A8
00
88
88
88
88
70
ENDCHAR
STARTCHAR GREEK SMALL LETTER RHO WITH PSILI
ENCODING 8164
SWIDTH 392 0
DWIDTH 6 0
BBX 6 10 0 -2
BITMAP
30
10
20
70
88
88
88
F0
80
80
ENDCHAR
STARTCHAR GREEK SMALL LETTER RHO WITH DASIA
ENCODING 8165
SWIDTH 392 0
DWIDTH 6 0
BBX 6 10 0 -2
BITMAP
30
20
10
70
88
88
88
F0
80
80
ENDCHAR
STARTCHAR GREEK SMALL LETTER UPSILON WITH PERISPOMENI
ENCODING 8166
SWIDTH 392 0
DWIDTH 6 0
BBX 5 7 0 0
BITMAP
78
00
88
88
88
88
70
ENDCHAR
STARTCHAR GREEK SMALL LETTER UPSILON WITH DIALYTIKA AND PERISPOMENI
ENCODING 8167
SWIDTH 392 0
DWIDTH 6 0
BBX 5 8 0 0
BITMAP
F8
00
88
00
88
88
88
70
ENDCHAR
STARTCHAR GREEK CAPITAL LETTER UPSILON WITH VRACHY
ENCODING 8168
SWIDTH 392 0
DWIDTH 6 0
BBX 5 8 0 0
BITMAP
88
70
88
88
50
20
20
20
ENDCHAR
STARTCHAR GREEK CAPITAL LETTER UPSILON WITH MACRON
ENCODING 8169
SWIDTH 392 0
DWIDTH 6 0
BBX 5 8 0 0
BITMAP
F8
00
88
88
50
20
20
20
ENDCHAR
STARTCHAR GREEK CAPITAL LETTER UPSILON WITH VARIA
ENCODING 8170
SWIDTH 392 0
DWIDTH 6 0
BBX 6 7 0 0
BITMAP
94
54
14
08
08
08
08
ENDCHAR
STARTCHAR GREEK CAPITAL LETTER UPSILON WITH OXIA
ENCODING 8171
SWIDTH 392 0
DWIDTH 6 0
BBX 6 7 0 0
BITMAP
54
94
14
08
08
08
08
ENDCHAR
STARTCHAR GREEK CAPITAL LETTER RHO WITH DASIA
ENCODING 8172
SWIDTH 392 0
DWIDTH 6 0
BBX 6 7 0 0
BITMAP
F8
A4
64
38
20
20
20
ENDCHAR
STARTCHAR GREEK DIALYTIKA AND VARIA
ENCODING 8173
SWIDTH 392 0
DWIDTH 6 0
BBX 5 2 0 5
BITMAP
40
A8
ENDCHAR
STARTCHAR GREEK DIALYTIKA AND OXIA
ENCODING 8174
SWIDTH 392 0
DWIDTH 6 0
BBX 5 2 0 5
BITMAP
10
A8
ENDCHAR
STARTCHAR GREEK VARIA
ENCODING 8175
SWIDTH 392 0
DWIDTH 6 0
BBX 2 2 2 5
BITMAP
80
40
ENDCHAR
STARTCHAR GREEK SMALL LETTER OMEGA WITH VARIA AND YPOGEGRAMMENI
ENCODING 8178
SWIDTH 392 0
DWIDTH 6 0
BBX 6 10 0 -2
BITMAP
40
20
00
88
A8
A8
A8
50
00
20
ENDCHAR
STARTCHAR GREEK SMALL LETTER OMEGA WITH YPOGEGRAMMENI
ENCODING 8179
SWIDTH 392 0
DWIDTH 6 0
BBX 5 7 0 -2
BITMAP
88
A8
A8
A8
50
00
20
ENDCHAR
STARTCHAR GREEK SMALL LETTER OMEGA WITH OXIA AND YPOGEGRAMMENI
ENCODING 8180
SWIDTH 392 0
DWIDTH 6 0
BBX 6 10 0 -2
BITMAP
10
20
00
88
A8
A8
A8
50
00
20
ENDCHAR
STARTCHAR GREEK SMALL LETTER OMEGA WITH PERISPOMENI
ENCODING 8182
SWIDTH 392 0
DWIDTH 6 0
BBX 5 7 0 0
BITMAP
78
00
88
A8
A8
A8
50
ENDCHAR
STARTCHAR GREEK SMALL LETTER OMEGA WITH PERISPOMENI AND YPOGEGRAMMENI
ENCODING 8183
SWIDTH 392 0
DWIDTH 6 0
BBX 5 9 0 -2
BITMAP
78
00
88
A8
A8
A8
50
00
20
ENDCHAR
STARTCHAR GREEK CAPITAL LETTER OMICRON WITH VARIA
ENCODING 8184
SWIDTH 392 0
DWIDTH 6 0
BBX 6 7 0 0
BITMAP
98
64
24
24
24
24
18
ENDCHAR
STARTCHAR GREEK CAPITAL LETTER OMICRON WITH OXIA
ENCODING 8185
SWIDTH 392 0
DWIDTH 6 0
BBX 6 7 0 0
BITMAP
58
A4
24
24
24
24
18
ENDCHAR
STARTCHAR GREEK CAPITAL LETTER OMEGA WITH VARIA
ENCODING 8186
SWIDTH 392 0
DWIDTH 6 0
BBX 6 7 0 0
BITMAP
98
64
24
24
24
18
3C
ENDCHAR
STARTCHAR GREEK CAPITAL LETTER OMEGA WITH OXIA
ENCODING 8187
SWIDTH 392 0
DWIDTH 6 0
BBX 6 7 0 0
BITMAP
58
A4
24
24
24
18
3C
ENDCHAR
STARTCHAR GREEK CAPITAL LETTER OMEGA WITH PROSGEGRAMMENI
ENCODING 8188
SWIDTH 392 0
DWIDTH 6 0
BBX 5 9 0 -2
BITMAP
70
88
88
88
88
50
D8
20
30
ENDCHAR
STARTCHAR GREEK OXIA
ENCODING 8189
SWIDTH 392 0
DWIDTH 6 0
BBX 2 2 2 5
BITMAP
40
80
ENDCHAR
STARTCHAR GREEK DASIA
ENCODING 8190
SWIDTH 392 0
DWIDTH 6 0
BBX 2 3 2 4
BITMAP
C0
80
40
ENDCHAR
STARTCHAR HYPHEN
ENCODING 8208
SWIDTH 392 0
DWIDTH 6 0
BBX 4 1 1 3
BITMAP
F0
ENDCHAR
STARTCHAR NON-BREAKING HYPHEN
ENCODING 8209
SWIDTH 392 0
DWIDTH 6 0
BBX 4 1 1 3
BITMAP
F0
ENDCHAR
STARTCHAR FIGURE DASH
ENCODING 8210
SWIDTH 392 0
DWIDTH 6 0
BBX 5 1 0 3
BITMAP
F8
ENDCHAR
STARTCHAR EN DASH
ENCODING 8211
SWIDTH 392 0
DWIDTH 6 0
BBX 5 1 0 3
BITMAP
F8
ENDCHAR
STARTCHAR EM DASH
ENCODING 8212
SWIDTH 392 0
DWIDTH 6 0
BBX 6 1 0 3
BITMAP
FC
ENDCHAR
STARTCHAR HORIZONTAL BAR
ENCODING 8213
SWIDTH 392 0
DWIDTH 6 0
BBX 6 1 0 3
BITMAP
FC
ENDCHAR
STARTCHAR DOUBLE VERTICAL LINE
ENCODING 8214
SWIDTH 392 0
DWIDTH 6 0
BBX 3 8 1 0
BITMAP
A0
A0
A0
A0
A0
A0
A0
A0
ENDCHAR
STARTCHAR DOUBLE LOW LINE
ENCODING 8215
SWIDTH 392 0
DWIDTH 6 0
BBX 6 3 0 -2
BITMAP
FC
00
FC
ENDCHAR
STARTCHAR LEFT SINGLE QUOTATION MARK
ENCODING 8216
SWIDTH 392 0
DWIDTH 6 0
BBX 2 3 2 4
BITMAP
40
80
C0
ENDCHAR
STARTCHAR RIGHT SINGLE QUOTATION MARK
ENCODING 8217
SWIDTH 392 0
DWIDTH 6 0
BBX 2 3 2 4
BITMAP
C0
40
80
ENDCHAR
STARTCHAR SINGLE LOW-9 QUOTATION MARK
ENCODING 8218
SWIDTH 392 0
DWIDTH 6 0
BBX 2 3 2 -1
BITMAP
C0
40
80
ENDCHAR
STARTCHAR SINGLE HIGH-REVERSED-9 QUOTATION MARK
ENCODING 8219
SWIDTH 392 0
DWIDTH 6 0
BBX 2 3 2 4
BITMAP
C0
80
40
ENDCHAR
STARTCHAR LEFT DOUBLE QUOTATION MARK
ENCODING 8220
SWIDTH 392 0
DWIDTH 6 0
BBX 5 3 0 4
BITMAP
48
90
D8
ENDCHAR
STARTCHAR RIGHT DOUBLE QUOTATION MARK
ENCODING 8221
SWIDTH 392 0
DWIDTH 6 0
BBX 5 3 0 4
BITMAP
D8
48
90
ENDCHAR
STARTCHAR DOUBLE LOW-9 QUOTATION MARK
ENCODING 8222
SWIDTH 392 0
DWIDTH 6 0
BBX 5 3 0 -1
BITMAP
D8
48
90
ENDCHAR
STARTCHAR DOUBLE HIGH-REVERSED-9 QUOTATION MARK
ENCODING 8223
SWIDTH 392 0
DWIDTH 6 0
BBX 5 3 0 4
BITMAP
D8
90
48
ENDCHAR
STARTCHAR DAGGER
ENCODING 8224
SWIDTH 392 0
DWIDTH 6 0
BBX 5 7 0 0
BITMAP
20
20
F8
20
20
20
20
ENDCHAR
STARTCHAR DOUBLE DAGGER
ENCODING 8225
SWIDTH 392 0
DWIDTH 6 0
BBX 5 7 0 0
BITMAP
20
20
F8
20
F8
20
20
ENDCHAR
STARTCHAR BULLET
ENCODING 8226
SWIDTH 392 0
DWIDTH 6 0
BBX 4 4 1 1
BITMAP
60
F0
F0
60
ENDCHAR
STARTCHAR TRIANGULAR BULLET
ENCODING 8227
SWIDTH 392 0
DWIDTH 6 0
BBX 5 3 0 2
BITMAP
20
70
F8
ENDCHAR
STARTCHAR ONE DOT LEADER
ENCODING 8228
SWIDTH 392 0
DWIDTH 6 0
BBX 1 1 2 0
BITMAP
80
ENDCHAR
STARTCHAR TWO DOT LEADER
ENCODING 8229
SWIDTH 392 0
DWIDTH 6 0
BBX 5 1 0 0
BITMAP
88
ENDCHAR
STARTCHAR HORIZONTAL ELLIPSIS
ENCODING 8230
SWIDTH 392 0
DWIDTH 6 0
BBX 5 1 0 0
BITMAP
A8
ENDCHAR
STARTCHAR HYPHENATION POINT
ENCODING 8231
SWIDTH 392 0
DWIDTH 6 0
BBX 2 1 2 3
BITMAP
C0
ENDCHAR
STARTCHAR PER MILLE SIGN
ENCODING 8240
SWIDTH 392 0
DWIDTH 6 0
BBX 6 7 0 0
BITMAP
48
A8
50
20
68
D4
A8
ENDCHAR
STARTCHAR PRIME
ENCODING 8242
SWIDTH 392 0
DWIDTH 6 0
BBX 2 3 2 5
BITMAP
40
40
80
ENDCHAR
STARTCHAR DOUBLE PRIME
ENCODING 8243
SWIDTH 392 0
DWIDTH 6 0
BBX 4 3 1 5
BITMAP
50
50
A0
ENDCHAR
STARTCHAR TRIPLE PRIME
ENCODING 8244
SWIDTH 392 0
DWIDTH 6 0
BBX 6 3 0 5
BITMAP
54
54
A8
ENDCHAR
STARTCHAR REVERSED PRIME
ENCODING 8245
SWIDTH 392 0
DWIDTH 6 0
BBX 2 3 2 5
BITMAP
80
80
40
ENDCHAR
STARTCHAR REVERSED DOUBLE PRIME
ENCODING 8246
SWIDTH 392 0
DWIDTH 6 0
BBX 4 3 1 5
BITMAP
A0
A0
50
ENDCHAR
STARTCHAR REVERSED TRIPLE PRIME
ENCODING 8247
SWIDTH 392 0
DWIDTH 6 0
BBX 6 3 0 5
BITMAP
A8
A8
54
ENDCHAR
STARTCHAR SINGLE LEFT-POINTING ANGLE QUOTATION MARK
ENCODING 8249
SWIDTH 392 0
DWIDTH 6 0
BBX 3 5 1 0
BITMAP
20
40
80
40
20
ENDCHAR
STARTCHAR SINGLE RIGHT-POINTING ANGLE QUOTATION MARK
ENCODING 8250
SWIDTH 392 0
DWIDTH 6 0
BBX 3 5 1 0
BITMAP
80
40
20
40
80
ENDCHAR
STARTCHAR DOUBLE EXCLAMATION MARK
ENCODING 8252
SWIDTH 392 0
DWIDTH 6 0
BBX 3 7 1 0
BITMAP
A0
A0
A0
A0
A0
00
A0
ENDCHAR
STARTCHAR OVERLINE
ENCODING 8254
SWIDTH 392 0
DWIDTH 6 0
BBX 6 1 0 7
BITMAP
FC
ENDCHAR
STARTCHAR FRACTION SLASH
ENCODING 8260
SWIDTH 392 0
DWIDTH 6 0
BBX 5 7 0 0
BITMAP
08
08
10
20
40
80
80
ENDCHAR
STARTCHAR SUPERSCRIPT ZERO
ENCODING 8304
SWIDTH 392 0
DWIDTH 6 0
BBX 4 5 1 3
BITMAP
60
90
90
90
60
ENDCHAR
STARTCHAR SUPERSCRIPT LATIN SMALL LETTER I
ENCODING 8305
SWIDTH 392 0
DWIDTH 6 0
BBX 3 5 1 3
BITMAP
40
00
C0
40
E0
ENDCHAR
STARTCHAR SUPERSCRIPT FOUR
ENCODING 8308
SWIDTH 392 0
DWIDTH 6 0
BBX 4 5 1 3
BITMAP
20
60
A0
F0
20
ENDCHAR
STARTCHAR SUPERSCRIPT FIVE
ENCODING 8309
SWIDTH 392 0
DWIDTH 6 0
BBX 4 5 1 3
BITMAP
F0
80
E0
10
E0
ENDCHAR
STARTCHAR SUPERSCRIPT SIX
ENCODING 8310
SWIDTH 392 0
DWIDTH 6 0
BBX 4 5 1 3
BITMAP
70
80
E0
90
60
ENDCHAR
STARTCHAR SUPERSCRIPT SEVEN
ENCODING 8311
SWIDTH 392 0
DWIDTH 6 0
BBX 4 5 1 3
BITMAP
F0
10
20
40
40
ENDCHAR
STARTCHAR SUPERSCRIPT EIGHT
ENCODING 8312
SWIDTH 392 0
DWIDTH 6 0
BBX 4 5 1 3
BITMAP
60
90
60
90
60
ENDCHAR
STARTCHAR SUPERSCRIPT NINE
ENCODING 8313
SWIDTH 392 0
DWIDTH 6 0
BBX 4 5 1 3
BITMAP
60
90
70
10
60
ENDCHAR
STARTCHAR SUPERSCRIPT PLUS SIGN
ENCODING 8314
SWIDTH 392 0
DWIDTH 6 0
BBX 3 3 1 4
BITMAP
40
E0
40
ENDCHAR
STARTCHAR SUPERSCRIPT MINUS
ENCODING 8315
SWIDTH 392 0
DWIDTH 6 0
BBX 3 1 1 5
BITMAP
E0
ENDCHAR
STARTCHAR SUPERSCRIPT EQUALS SIGN
ENCODING 8316
SWIDTH 392 0
DWIDTH 6 0
BBX 4 3 1 4
BITMAP
F0
00
F0
ENDCHAR
STARTCHAR SUPERSCRIPT LEFT PARENTHESIS
ENCODING 8317
SWIDTH 392 0
DWIDTH 6 0
BBX 2 5 2 3
BITMAP
40
80
80
80
40
ENDCHAR
STARTCHAR SUPERSCRIPT RIGHT PARENTHESIS
ENCODING 8318
SWIDTH 392 0
DWIDTH 6 0
BBX 2 5 2 3
BITMAP
80
40
40
40
80
ENDCHAR
STARTCHAR SUPERSCRIPT LATIN SMALL LETTER N
ENCODING 8319
SWIDTH 392 0
DWIDTH 6 0
BBX 4 4 1 3
BITMAP
A0
D0
90
90
ENDCHAR
STARTCHAR SUBSCRIPT ZERO
ENCODING 8320
SWIDTH 392 0
DWIDTH 6 0
BBX 4 5 1 -2
BITMAP
60
90
90
90
60
ENDCHAR
STARTCHAR SUBSCRIPT ONE
ENCODING 8321
SWIDTH 392 0
DWIDTH 6 0
BBX 3 5 1 -2
BITMAP
40
C0
40
40
E0
ENDCHAR
STARTCHAR SUBSCRIPT TWO
ENCODING 8322
SWIDTH 392 0
DWIDTH 6 0
BBX 4 5 1 -2
BITMAP
60
90
20
40
F0
ENDCHAR
STARTCHAR SUBSCRIPT THREE
ENCODING 8323
SWIDTH 392 0
DWIDTH 6 0
BBX 4 5 1 -2
BITMAP
E0
10
60
10
E0
ENDCHAR
STARTCHAR SUBSCRIPT FOUR
ENCODING 8324
SWIDTH 392 0
DWIDTH 6 0
BBX 4 5 1 -2
BITMAP
20
60
A0
F0
20
ENDCHAR
STARTCHAR SUBSCRIPT FIVE
ENCODING 8325
SWIDTH 392 0
DWIDTH 6 0
BBX 4 5 1 -2
BITMAP
F0
80
E0
10
E0
ENDCHAR
STARTCHAR SUBSCRIPT SIX
ENCODING 8326
SWIDTH 392 0
DWIDTH 6 0
BBX 4 5 1 -2
BITMAP
70
80
E0
90
60
ENDCHAR
STARTCHAR SUBSCRIPT SEVEN
ENCODING 8327
SWIDTH 392 0
DWIDTH 6 0
BBX 4 5 1 -2
BITMAP
F0
10
20
40
40
ENDCHAR
STARTCHAR SUBSCRIPT EIGHT
ENCODING 8328
SWIDTH 392 0
DWIDTH 6 0
BBX 4 5 1 -2
BITMAP
60
90
60
90
60
ENDCHAR
STARTCHAR SUBSCRIPT NINE
ENCODING 8329
SWIDTH 392 0
DWIDTH 6 0
BBX 4 5 1 -2
BITMAP
60
90
70
10
60
ENDCHAR
STARTCHAR SUBSCRIPT PLUS SIGN
ENCODING 8330
SWIDTH 392 0
DWIDTH 6 0
BBX 3 3 1 -1
BITMAP
40
E0
40
ENDCHAR
STARTCHAR SUBSCRIPT MINUS
ENCODING 8331
SWIDTH 392 0
DWIDTH 6 0
BBX 3 1 1 0
BITMAP
E0
ENDCHAR
STARTCHAR SUBSCRIPT EQUALS SIGN
ENCODING 8332
SWIDTH 392 0
DWIDTH 6 0
BBX 4 3 1 -1
BITMAP
F0
00
F0
ENDCHAR
STARTCHAR SUBSCRIPT LEFT PARENTHESIS
ENCODING 8333
SWIDTH 392 0
DWIDTH 6 0
BBX 2 5 2 -2
BITMAP
40
80
80
80
40
ENDCHAR
STARTCHAR SUBSCRIPT RIGHT PARENTHESIS
ENCODING 8334
SWIDTH 392 0
DWIDTH 6 0
BBX 2 5 2 -2
BITMAP
80
40
40
40
80
ENDCHAR
STARTCHAR FRENCH FRANC SIGN
ENCODING 8355
SWIDTH 392 0
DWIDTH 6 0
BBX 5 7 0 0
BITMAP
F8
80
80
E8
B0
A0
A0
ENDCHAR
STARTCHAR LIRA SIGN
ENCODING 8356
SWIDTH 392 0
DWIDTH 6 0
BBX 5 7 0 0
BITMAP
30
48
E0
40
E0
48
B0
ENDCHAR
STARTCHAR PESETA SIGN
ENCODING 8359
SWIDTH 392 0
DWIDTH 6 0
BBX 6 7 0 0
BITMAP
70
48
FC
48
70
40
40
ENDCHAR
STARTCHAR DONG SIGN
ENCODING 8363
SWIDTH 392 0
DWIDTH 6 0
BBX 6 9 0 -2
BITMAP
08
3C
68
98
88
98
68
00
F8
ENDCHAR
STARTCHAR EURO SIGN
ENCODING 8364
SWIDTH 392 0
DWIDTH 6 0
BBX 5 7 0 0
BITMAP
30
48
E0
40
E0
48
30
ENDCHAR
STARTCHAR DRACHMA SIGN
ENCODING 8367
SWIDTH 392 0
DWIDTH 6 0
BBX 5 7 0 0
BITMAP
40
70
C8
48
48
E8
D0
ENDCHAR
STARTCHAR COMBINING LEFT HARPOON ABOVE
ENCODING 8400
SWIDTH 392 0
DWIDTH 6 0
BBX 5 2 0 6
BITMAP
40
F8
ENDCHAR
STARTCHAR COMBINING RIGHT HARPOON ABOVE
ENCODING 8401
SWIDTH 392 0
DWIDTH 6 0
BBX 5 2 0 6
BITMAP
10
F8
ENDCHAR
STARTCHAR COMBINING LONG VERTICAL LINE OVERLAY
ENCODING 8402
SWIDTH 392 0
DWIDTH 6 0
BBX 1 11 2 -2
BITMAP
80
80
80
80
80
80
80
80
80
80
80
ENDCHAR
STARTCHAR COMBINING SHORT VERTICAL LINE OVERLAY
ENCODING 8403
SWIDTH 392 0
DWIDTH 6 0
BBX 1 6 2 0
BITMAP
80
80
80
80
80
80
ENDCHAR
STARTCHAR COMBINING ANTICLOCKWISE ARROW ABOVE
ENCODING 8404
SWIDTH 392 0
DWIDTH 6 0
BBX 5 3 0 5
BITMAP
B0
C8
E0
ENDCHAR
STARTCHAR COMBINING CLOCKWISE ARROW ABOVE
ENCODING 8405
SWIDTH 392 0
DWIDTH 6 0
BBX 5 3 0 5
BITMAP
68
98
38
ENDCHAR
STARTCHAR COMBINING LEFT ARROW ABOVE
ENCODING 8406
SWIDTH 392 0
DWIDTH 6 0
BBX 5 3 0 5
BITMAP
40
F8
40
ENDCHAR
STARTCHAR COMBINING RIGHT ARROW ABOVE
ENCODING 8407
SWIDTH 392 0
DWIDTH 6 0
BBX 5 3 0 5
BITMAP
10
F8
10
ENDCHAR
STARTCHAR DOUBLE-STRUCK CAPITAL C
ENCODING 8450
SWIDTH 392 0
DWIDTH 6 0
BBX 5 7 0 0
BITMAP
70
A8
A0
A0
A0
A8
70
ENDCHAR
STARTCHAR CARE OF
ENCODING 8453
SWIDTH 392 0
DWIDTH 6 0
BBX 5 9 0 -1
BITMAP
60
80
80
60
00
30
48
48
30
ENDCHAR
STARTCHAR SCRIPT SMALL L
ENCODING 8467
SWIDTH 392 0
DWIDTH 6 0
BBX 4 7 1 0
BITMAP
20
50
50
50
60
40
B0
ENDCHAR
STARTCHAR DOUBLE-STRUCK CAPITAL N
ENCODING 8469
SWIDTH 392 0
DWIDTH 6 0
BBX 5 7 0 0
BITMAP
88
C8
C8
E8
D8
D8
C8
ENDCHAR
STARTCHAR NUMERO SIGN
ENCODING 8470
SWIDTH 392 0
DWIDTH 6 0
BBX 6 7 0 0
BITMAP
90
90
D8
B4
94
98
9C
ENDCHAR
STARTCHAR DOUBLE-STRUCK CAPITAL Q
ENCODING 8474
SWIDTH 392 0
DWIDTH 6 0
BBX 5 8 0 -1
BITMAP
70
A8
A8
A8
A8
A8
70
18
ENDCHAR
STARTCHAR DOUBLE-STRUCK CAPITAL R
ENCODING 8477
SWIDTH 392 0
DWIDTH 6 0
BBX 5 7 0 0
BITMAP
F0
A8
A8
B0
A8
A8
A8
ENDCHAR
STARTCHAR TRADE MARK SIGN
ENCODING 8482
SWIDTH 392 0
DWIDTH 6 0
BBX 6 4 0 4
BITMAP
FC
5C
54
54
ENDCHAR
STARTCHAR DOUBLE-STRUCK CAPITAL Z
ENCODING 8484
SWIDTH 392 0
DWIDTH 6 0
BBX 5 7 0 0
BITMAP
F8
28
28
50
A0
A0
F8
ENDCHAR
STARTCHAR OHM SIGN
ENCODING 8486
SWIDTH 392 0
DWIDTH 6 0
BBX 5 7 0 0
BITMAP
70
88
88
88
88
50
D8
ENDCHAR
STARTCHAR INVERTED OHM SIGN
ENCODING 8487
SWIDTH 392 0
DWIDTH 6 0
BBX 5 7 0 0
BITMAP
D8
50
88
88
88
88
70
ENDCHAR
STARTCHAR ESTIMATED SYMBOL
ENCODING 8494
SWIDTH 392 0
DWIDTH 6 0
BBX 5 5 0 0
BITMAP
70
D8
F8
C0
70
ENDCHAR
STARTCHAR VULGAR FRACTION ONE EIGHTH
ENCODING 8539
SWIDTH 392 0
DWIDTH 6 0
BBX 6 10 0 -2
BITMAP
40
C0
40
40
E0
08
14
08
14
08
ENDCHAR
STARTCHAR VULGAR FRACTION THREE EIGHTHS
ENCODING 8540
SWIDTH 392 0
DWIDTH 6 0
BBX 6 10 0 -2
BITMAP
C0
20
40
20
C0
10
28
10
28
10
ENDCHAR
STARTCHAR VULGAR FRACTION FIVE EIGHTHS
ENCODING 8541
SWIDTH 392 0
DWIDTH 6 0
BBX 6 10 0 -2
BITMAP
E0
80
C0
20
C0
10
28
10
28
10
ENDCHAR
STARTCHAR VULGAR FRACTION SEVEN EIGHTHS
ENCODING 8542
SWIDTH 392 0
DWIDTH 6 0
BBX 6 10 0 -2
BITMAP
E0
20
20
40
40
10
28
10
28
10
ENDCHAR
STARTCHAR LEFTWARDS ARROW
ENCODING 8592
SWIDTH 392 0
DWIDTH 6 0
BBX 6 5 0 0
BITMAP
20
40
FC
40
20
ENDCHAR
STARTCHAR UPWARDS ARROW
ENCODING 8593
SWIDTH 392 0
DWIDTH 6 0
BBX 5 7 0 0
BITMAP
20
70
A8
20
20
20
20
ENDCHAR
STARTCHAR RIGHTWARDS ARROW
ENCODING 8594
SWIDTH 392 0
DWIDTH 6 0
BBX 6 5 0 0
BITMAP
10
08
FC
08
10
ENDCHAR
STARTCHAR DOWNWARDS ARROW
ENCODING 8595
SWIDTH 392 0
DWIDTH 6 0
BBX 5 7 0 0
BITMAP
20
20
20
20
A8
70
20
ENDCHAR
STARTCHAR LEFT RIGHT ARROW
ENCODING 8596
SWIDTH 392 0
DWIDTH 6 0
BBX 6 3 0 1
BITMAP
48
FC
48
ENDCHAR
STARTCHAR UP DOWN ARROW
ENCODING 8597
SWIDTH 392 0
DWIDTH 6 0
BBX 5 8 0 -1
BITMAP
20
70
A8
20
20
A8
70
20
ENDCHAR
STARTCHAR NORTH WEST ARROW
ENCODING 8598
SWIDTH 392 0
DWIDTH 6 0
BBX 5 5 0 1
BITMAP
F0
C0
A0
90
08
ENDCHAR
STARTCHAR NORTH EAST ARROW
ENCODING 8599
SWIDTH 392 0
DWIDTH 6 0
BBX 5 5 0 1
BITMAP
78
18
28
48
80
ENDCHAR
STARTCHAR SOUTH EAST ARROW
ENCODING 8600
SWIDTH 392 0
DWIDTH 6 0
BBX 5 5 0 1
BITMAP
80
48
28
18
78
ENDCHAR
STARTCHAR SOUTH WEST ARROW
ENCODING 8601
SWIDTH 392 0
DWIDTH 6 0
BBX 5 5 0 1
BITMAP
08
90
A0
C0
F0
ENDCHAR
STARTCHAR LEFTWARDS ARROW FROM BAR
ENCODING 8612
SWIDTH 392 0
DWIDTH 6 0
BBX 6 5 0 0
BITMAP
24
44
FC
44
24
ENDCHAR
STARTCHAR UPWARDS ARROW FROM BAR
ENCODING 8613
SWIDTH 392 0
DWIDTH 6 0
BBX 5 7 0 0
BITMAP
20
70
A8
20
20
20
70
ENDCHAR
STARTCHAR RIGHTWARDS ARROW FROM BAR
ENCODING 8614
SWIDTH 392 0
DWIDTH 6 0
BBX 6 5 0 0
BITMAP
10
88
FC
88
10
ENDCHAR
STARTCHAR DOWNWARDS ARROW FROM BAR
ENCODING 8615
SWIDTH 392 0
DWIDTH 6 0
BBX 5 7 0 0
BITMAP
70
20
20
20
A8
70
20
ENDCHAR
STARTCHAR UP DOWN ARROW WITH BASE
ENCODING 8616
SWIDTH 392 0
DWIDTH 6 0
BBX 5 9 0 -1
BITMAP
20
70
A8
20
20
A8
70
20
F8
ENDCHAR
STARTCHAR RIGHTWARDS ARROW OVER LEFTWARDS ARROW
ENCODING 8644
SWIDTH 392 0
DWIDTH 6 0
BBX 6 9 0 -2
BITMAP
10
08
FC
08
30
40
FC
40
20
ENDCHAR
STARTCHAR LEFTWARDS ARROW OVER RIGHTWARDS ARROW
ENCODING 8646
SWIDTH 392 0
DWIDTH 6 0
BBX 6 9 0 -2
BITMAP
20
40
FC
40
30
08
FC
08
10
ENDCHAR
STARTCHAR LEFTWARDS HARPOON OVER RIGHTWARDS HARPOON
ENCODING 8651
SWIDTH 392 0
DWIDTH 6 0
BBX 6 7 0 -1
BITMAP
20
40
FC
00
FC
08
10
ENDCHAR
STARTCHAR RIGHTWARDS HARPOON OVER LEFTWARDS HARPOON
ENCODING 8652
SWIDTH 392 0
DWIDTH 6 0
BBX 6 7 0 -1
BITMAP
10
08
FC
00
FC
40
20
ENDCHAR
STARTCHAR LEFTWARDS DOUBLE ARROW
ENCODING 8656
SWIDTH 392 0
DWIDTH 6 0
BBX 6 7 0 0
BITMAP
10
20
7C
80
7C
20
10
ENDCHAR
STARTCHAR UPWARDS DOUBLE ARROW
ENCODING 8657
SWIDTH 392 0
DWIDTH 6 0
BBX 5 7 0 0
BITMAP
20
70
D8
50
50
50
50
ENDCHAR
STARTCHAR RIGHTWARDS DOUBLE ARROW
ENCODING 8658
SWIDTH 392 0
DWIDTH 6 0
BBX 6 7 0 0
BITMAP
20
10
F8
04
F8
10
20
ENDCHAR
STARTCHAR DOWNWARDS DOUBLE ARROW
ENCODING 8659
SWIDTH 392 0
DWIDTH 6 0
BBX 5 7 0 0
BITMAP
50
50
50
50
D8
70
20
ENDCHAR
STARTCHAR LEFT RIGHT DOUBLE ARROW
ENCODING 8660
SWIDTH 392 0
DWIDTH 6 0
BBX 6 3 0 2
BITMAP
78
84
78
ENDCHAR
STARTCHAR UP DOWN DOUBLE ARROW
ENCODING 8661
SWIDTH 392 0
DWIDTH 6 0
BBX 5 8 0 -1
BITMAP
20
50
D8
50
50
D8
50
20
ENDCHAR
STARTCHAR FOR ALL
ENCODING 8704
SWIDTH 392 0
DWIDTH 6 0
BBX 5 7 0 0
BITMAP
88
88
70
50
50
20
20
ENDCHAR
STARTCHAR COMPLEMENT
ENCODING 8705
SWIDTH 392 0
DWIDTH 6 0
BBX 3 7 1 0
BITMAP
40
A0
80
80
80
A0
40
ENDCHAR
STARTCHAR PARTIAL DIFFERENTIAL
ENCODING 8706
SWIDTH 392 0
DWIDTH 6 0
BBX 5 7 0 0
BITMAP
30
08
68
98
88
88
70
ENDCHAR
STARTCHAR THERE EXISTS
ENCODING 8707
SWIDTH 392 0
DWIDTH 6 0
BBX 5 7 0 0
BITMAP
F8
08
08
78
08
08
F8
ENDCHAR
STARTCHAR THERE DOES NOT EXIST
ENCODING 8708
SWIDTH 392 0
DWIDTH 6 0
BBX 5 9 0 -1
BITMAP
20
F8
28
28
78
28
28
F8
20
ENDCHAR
STARTCHAR EMPTY SET
ENCODING 8709
SWIDTH 392 0
DWIDTH 6 0
BBX 6 6 0 0
BITMAP
34
48
94
A4
48
B0
ENDCHAR
STARTCHAR INCREMENT
ENCODING 8710
SWIDTH 392 0
DWIDTH 6 0
BBX 5 6 0 0
BITMAP
20
20
50
50
88
F8
ENDCHAR
STARTCHAR NABLA
ENCODING 8711
SWIDTH 392 0
DWIDTH 6 0
BBX 5 6 0 0
BITMAP
F8
88
50
50
20
20
ENDCHAR
STARTCHAR ELEMENT OF
ENCODING 8712
SWIDTH 392 0
DWIDTH 6 0
BBX 5 7 0 0
BITMAP
78
80
80
F0
80
80
78
ENDCHAR
STARTCHAR NOT AN ELEMENT OF
ENCODING 8713
SWIDTH 392 0
DWIDTH 6 0
BBX 5 9 0 -1
BITMAP
20
78
A0
A0
F0
A0
A0
78
20
ENDCHAR
STARTCHAR CONTAINS AS MEMBER
ENCODING 8715
SWIDTH 392 0
DWIDTH 6 0
BBX 5 7 0 0
BITMAP
F0
08
08
78
08
08
F0
ENDCHAR
STARTCHAR DOES NOT CONTAIN AS MEMBER
ENCODING 8716
SWIDTH 392 0
DWIDTH 6 0
BBX 5 9 0 -1
BITMAP
20
F0
28
28
78
28
28
F0
20
ENDCHAR
STARTCHAR N-ARY PRODUCT
ENCODING 8719
SWIDTH 392 0
DWIDTH 6 0
BBX 5 9 0 -1
BITMAP
F8
50
50
50
50
50
50
50
50
ENDCHAR
STARTCHAR N-ARY SUMMATION
ENCODING 8721
SWIDTH 392 0
DWIDTH 6 0
BBX 5 9 0 -1
BITMAP
F8
80
40
20
10
20
40
80
F8
ENDCHAR
STARTCHAR MINUS SIGN
ENCODING 8722
SWIDTH 392 0
DWIDTH 6 0
BBX 5 1 0 3
BITMAP
F8
ENDCHAR
STARTCHAR MINUS-OR-PLUS SIGN
ENCODING 8723
SWIDTH 392 0
DWIDTH 6 0
BBX 5 6 0 0
BITMAP
F8
20
20
F8
20
20
ENDCHAR
STARTCHAR DIVISION SLASH
ENCODING 8725
SWIDTH 392 0
DWIDTH 6 0
BBX 5 7 0 0
BITMAP
08
08
10
20
40
80
80
ENDCHAR
STARTCHAR RING OPERATOR
ENCODING 8728
SWIDTH 392 0
DWIDTH 6 0
BBX 4 4 1 1
BITMAP
60
90
90
60
ENDCHAR
STARTCHAR BULLET OPERATOR
ENCODING 8729
SWIDTH 392 0
DWIDTH 6 0
BBX 4 4 1 1
BITMAP
60
F0
F0
60
ENDCHAR
STARTCHAR SQUARE ROOT
ENCODING 8730
SWIDTH 392 0
DWIDTH 6 0
BBX 6 6 0 0
BITMAP
0C
10
10
20
A0
40
ENDCHAR
STARTCHAR PROPORTIONAL TO
ENCODING 8733
SWIDTH 392 0
DWIDTH 6 0
BBX 4 4 1 1
BITMAP
50
A0
A0
50
ENDCHAR
STARTCHAR INFINITY
ENCODING 8734
SWIDTH 392 0
DWIDTH 6 0
BBX 5 4 0 1
BITMAP
50
A8
A8
50
ENDCHAR
STARTCHAR RIGHT ANGLE
ENCODING 8735
SWIDTH 392 0
DWIDTH 6 0
BBX 5 5 0 1
BITMAP
80
80
80
80
F8
ENDCHAR
STARTCHAR MEASURED ANGLE
ENCODING 8737
SWIDTH 392 0
DWIDTH 6 0
BBX 5 6 0 -1
BITMAP
50
20
50
90
F8
10
ENDCHAR
STARTCHAR DOES NOT DIVIDE
ENCODING 8740
SWIDTH 392 0
DWIDTH 6 0
BBX 3 7 1 0
BITMAP
40
40
60
40
C0
40
40
ENDCHAR
STARTCHAR PARALLEL TO
ENCODING 8741
SWIDTH 392 0
DWIDTH 6 0
BBX 3 7 1 0
BITMAP
A0
A0
A0
A0
A0
A0
A0
ENDCHAR
STARTCHAR NOT PARALLEL TO
ENCODING 8742
SWIDTH 392 0
DWIDTH 6 0
BBX 5 7 0 0
BITMAP
50
50
58
70
D0
50
50
ENDCHAR
STARTCHAR LOGICAL AND
ENCODING 8743
SWIDTH 392 0
DWIDTH 6 0
BBX 5 6 0 0
BITMAP
20
20
50
50
88
88
ENDCHAR
STARTCHAR LOGICAL OR
ENCODING 8744
SWIDTH 392 0
DWIDTH 6 0
BBX 5 6 0 0
BITMAP
88
88
50
50
20
20
ENDCHAR
STARTCHAR INTERSECTION
ENCODING 8745
SWIDTH 392 0
DWIDTH 6 0
BBX 5 6 0 0
BITMAP
70
88
88
88
88
88
ENDCHAR
STARTCHAR UNION
ENCODING 8746
SWIDTH 392 0
DWIDTH 6 0
BBX 5 6 0 0
BITMAP
88
88
88
88
88
70
ENDCHAR
STARTCHAR INTEGRAL
ENCODING 8747
SWIDTH 392 0
DWIDTH 6 0
BBX 6 10 0 -2
BITMAP
10
28
20
20
20
20
20
20
A0
40
ENDCHAR
STARTCHAR CONTOUR INTEGRAL
ENCODING 8750
SWIDTH 392 0
DWIDTH 6 0
BBX 6 10 0 -2
BITMAP
10
28
20
70
A8
A8
70
20
A0
40
ENDCHAR
STARTCHAR TILDE OPERATOR
ENCODING 8764
SWIDTH 392 0
DWIDTH 6 0
BBX 5 3 0 2
BITMAP
48
A8
90
ENDCHAR
STARTCHAR ASYMPTOTICALLY EQUAL TO
ENCODING 8771
SWIDTH 392 0
DWIDTH 6 0
BBX 5 5 0 0
BITMAP
40
A8
10
00
F8
ENDCHAR
STARTCHAR APPROXIMATELY EQUAL TO
ENCODING 8773
SWIDTH 392 0
DWIDTH 6 0
BBX 5 7 0 0
BITMAP
40
A8
10
00
F8
00
F8
ENDCHAR
STARTCHAR ALMOST EQUAL TO
ENCODING 8776
SWIDTH 392 0
DWIDTH 6 0
BBX 5 5 0 0
BITMAP
40
A8
50
A8
10
ENDCHAR
STARTCHAR NOT ALMOST EQUAL TO
ENCODING 8777
SWIDTH 392 0
DWIDTH 6 0
BBX 5 7 0 -1
BITMAP
20
60
A8
70
A8
30
20
ENDCHAR
STARTCHAR ESTIMATES
ENCODING 8793
SWIDTH 392 0
DWIDTH 6 0
BBX 5 6 0 0
BITMAP
20
50
00
F8
00
F8
ENDCHAR
STARTCHAR QUESTIONED EQUAL TO
ENCODING 8799
SWIDTH 392 0
DWIDTH 6 0
BBX 5 9 0 -1
BITMAP
60
10
20
00
20
00
F8
00
F8
ENDCHAR
STARTCHAR NOT EQUAL TO
ENCODING 8800
SWIDTH 392 0
DWIDTH 6 0
BBX 5 7 0 0
BITMAP
08
10
F8
20
F8
40
80
ENDCHAR
STARTCHAR IDENTICAL TO
ENCODING 8801
SWIDTH 392 0
DWIDTH 6 0
BBX 5 5 0 0
BITMAP
F8
00
F8
00
F8
ENDCHAR
STARTCHAR NOT IDENTICAL TO
ENCODING 8802
SWIDTH 392 0
DWIDTH 6 0
BBX 5 7 0 -1
BITMAP
08
F8
10
F8
20
F8
40
ENDCHAR
STARTCHAR LESS-THAN OR EQUAL TO
ENCODING 8804
SWIDTH 392 0
DWIDTH 6 0
BBX 5 7 0 0
BITMAP
18
60
80
60
18
00
F8
ENDCHAR
STARTCHAR GREATER-THAN OR EQUAL TO
ENCODING 8805
SWIDTH 392 0
DWIDTH 6 0
BBX 5 7 0 0
BITMAP
C0
30
08
30
C0
00
F8
ENDCHAR
STARTCHAR MUCH LESS-THAN
ENCODING 8810
SWIDTH 392 0
DWIDTH 6 0
BBX 6 5 0 0
BITMAP
24
48
90
48
24
ENDCHAR
STARTCHAR MUCH GREATER-THAN
ENCODING 8811
SWIDTH 392 0
DWIDTH 6 0
BBX 6 5 0 0
BITMAP
90
48
24
48
90
ENDCHAR
STARTCHAR SUBSET OF
ENCODING 8834
SWIDTH 392 0
DWIDTH 6 0
BBX 5 5 0 0
BITMAP
78
80
80
80
78
ENDCHAR
STARTCHAR SUPERSET OF
ENCODING 8835
SWIDTH 392 0
DWIDTH 6 0
BBX 5 5 0 0
BITMAP
F0
08
08
08
F0
ENDCHAR
STARTCHAR NOT A SUBSET OF
ENCODING 8836
SWIDTH 392 0
DWIDTH 6 0
BBX 5 7 0 -1
BITMAP
20
78
A0
A0
A0
78
20
ENDCHAR
STARTCHAR NOT A SUPERSET OF
ENCODING 8837
SWIDTH 392 0
DWIDTH 6 0
BBX 5 7 0 -1
BITMAP
20
F0
28
28
28
F0
20
ENDCHAR
STARTCHAR SUBSET OF OR EQUAL TO
ENCODING 8838
SWIDTH 392 0
DWIDTH 6 0
BBX 5 7 0 0
BITMAP
78
80
80
80
78
00
F8
ENDCHAR
STARTCHAR SUPERSET OF OR EQUAL TO
ENCODING 8839
SWIDTH 392 0
DWIDTH 6 0
BBX 5 7 0 0
BITMAP
F0
08
08
08
F0
00
F8
ENDCHAR
STARTCHAR NEITHER A SUBSET OF NOR EQUAL TO
ENCODING 8840
SWIDTH 392 0
DWIDTH 6 0
BBX 5 9 0 -1
BITMAP
20
78
A0
A0
A0
78
20
F8
20
ENDCHAR
STARTCHAR NEITHER A SUPERSET OF NOR EQUAL TO
ENCODING 8841
SWIDTH 392 0
DWIDTH 6 0
BBX 5 9 0 -1
BITMAP
20
F0
28
28
28
F0
20
F8
20
ENDCHAR
STARTCHAR SUBSET OF WITH NOT EQUAL TO
ENCODING 8842
SWIDTH 392 0
DWIDTH 6 0
BBX 5 8 0 -1
BITMAP
78
80
80
80
78
20
F8
20
ENDCHAR
STARTCHAR SUPERSET OF WITH NOT EQUAL TO
ENCODING 8843
SWIDTH 392 0
DWIDTH 6 0
BBX 5 8 0 -1
BITMAP
F0
08
08
08
F0
20
F8
20
ENDCHAR
STARTCHAR CIRCLED PLUS
ENCODING 8853
SWIDTH 392 0
DWIDTH 6 0
BBX 5 5 0 1
BITMAP
70
A8
F8
A8
70
ENDCHAR
STARTCHAR CIRCLED TIMES
ENCODING 8855
SWIDTH 392 0
DWIDTH 6 0
BBX 5 5 0 1
BITMAP
70
D8
A8
D8
70
ENDCHAR
STARTCHAR DOWN TACK
ENCODING 8868
SWIDTH 392 0
DWIDTH 6 0
BBX 5 7 0 0
BITMAP
F8
20
20
20
20
20
20
ENDCHAR
STARTCHAR UP TACK
ENCODING 8869
SWIDTH 392 0
DWIDTH 6 0
BBX 5 7 0 0
BITMAP
20
20
20
20
20
20
F8
ENDCHAR
STARTCHAR ASSERTION
ENCODING 8870
SWIDTH 392 0
DWIDTH 6 0
BBX 3 7 1 0
BITMAP
80
80
80
E0
80
80
80
ENDCHAR
STARTCHAR MODELS
ENCODING 8871
SWIDTH 392 0
DWIDTH 6 0
BBX 3 7 1 0
BITMAP
80
80
E0
80
E0
80
80
ENDCHAR
STARTCHAR N-ARY LOGICAL AND
ENCODING 8896
SWIDTH 392 0
DWIDTH 6 0
BBX 5 9 0 -1
BITMAP
20
20
20
50
50
50
88
88
88
ENDCHAR
STARTCHAR N-ARY LOGICAL OR
ENCODING 8897
SWIDTH 392 0
DWIDTH 6 0
BBX 5 9 0 -1
BITMAP
88
88
88
50
50
50
20
20
20
ENDCHAR
STARTCHAR N-ARY INTERSECTION
ENCODING 8898
SWIDTH 392 0
DWIDTH 6 0
BBX 5 9 0 -1
BITMAP
70
88
88
88
88
88
88
88
88
ENDCHAR
STARTCHAR N-ARY UNION
ENCODING 8899
SWIDTH 392 0
DWIDTH 6 0
BBX 5 9 0 -1
BITMAP
88
88
88
88
88
88
88
88
70
ENDCHAR
STARTCHAR DOT OPERATOR
ENCODING 8901
SWIDTH 392 0
DWIDTH 6 0
BBX 1 1 2 3
BITMAP
80
ENDCHAR
STARTCHAR VERTICAL ELLIPSIS
ENCODING 8942
SWIDTH 392 0
DWIDTH 6 0
BBX 1 7 2 0
BITMAP
80
00
00
80
00
00
80
ENDCHAR
STARTCHAR MIDLINE HORIZONTAL ELLIPSIS
ENCODING 8943
SWIDTH 392 0
DWIDTH 6 0
BBX 5 1 0 3
BITMAP
A8
ENDCHAR
STARTCHAR UP RIGHT DIAGONAL ELLIPSIS
ENCODING 8944
SWIDTH 392 0
DWIDTH 6 0
BBX 5 7 0 0
BITMAP
08
00
00
20
00
00
80
ENDCHAR
STARTCHAR DOWN RIGHT DIAGONAL ELLIPSIS
ENCODING 8945
SWIDTH 392 0
DWIDTH 6 0
BBX 5 7 0 0
BITMAP
80
00
00
20
00
00
08
ENDCHAR
STARTCHAR DIAMETER SIGN
ENCODING 8960
SWIDTH 392 0
DWIDTH 6 0
BBX 5 5 0 0
BITMAP
78
98
A8
C8
F0
ENDCHAR
STARTCHAR HOUSE
ENCODING 8962
SWIDTH 392 0
DWIDTH 6 0
BBX 5 6 0 0
BITMAP
20
50
88
88
88
F8
ENDCHAR
STARTCHAR LEFT CEILING
ENCODING 8968
SWIDTH 392 0
DWIDTH 6 0
BBX 3 7 1 0
BITMAP
E0
80
80
80
80
80
80
ENDCHAR
STARTCHAR RIGHT CEILING
ENCODING 8969
SWIDTH 392 0
DWIDTH 6 0
BBX 3 7 1 0
BITMAP
E0
20
20
20
20
20
20
ENDCHAR
STARTCHAR LEFT FLOOR
ENCODING 8970
SWIDTH 392 0
DWIDTH 6 0
BBX 3 7 1 0
BITMAP
80
80
80
80
80
80
E0
ENDCHAR
STARTCHAR RIGHT FLOOR
ENCODING 8971
SWIDTH 392 0
DWIDTH 6 0
BBX 3 7 1 0
BITMAP
20
20
20
20
20
20
E0
ENDCHAR
STARTCHAR REVERSED NOT SIGN
ENCODING 8976
SWIDTH 392 0
DWIDTH 6 0
BBX 4 2 1 2
BITMAP
F0
80
ENDCHAR
STARTCHAR TOP HALF INTEGRAL
ENCODING 8992
SWIDTH 392 0
DWIDTH 6 0
BBX 3 8 2 -2
BITMAP
40
A0
80
80
80
80
80
80
ENDCHAR
STARTCHAR BOTTOM HALF INTEGRAL
ENCODING 8993
SWIDTH 392 0
DWIDTH 6 0
BBX 3 9 0 0
BITMAP
20
20
20
20
20
20
20
A0
40
ENDCHAR
STARTCHAR HORIZONTAL SCAN LINE-1
ENCODING 9146
SWIDTH 392 0
DWIDTH 6 0
BBX 6 1 0 7
BITMAP
FC
ENDCHAR
STARTCHAR HORIZONTAL SCAN LINE-3
ENCODING 9147
SWIDTH 392 0
DWIDTH 6 0
BBX 6 1 0 5
BITMAP
FC
ENDCHAR
STARTCHAR HORIZONTAL SCAN LINE-7
ENCODING 9148
SWIDTH 392 0
DWIDTH 6 0
BBX 6 1 0 0
BITMAP
FC
ENDCHAR
STARTCHAR HORIZONTAL SCAN LINE-9
ENCODING 9149
SWIDTH 392 0
DWIDTH 6 0
BBX 6 1 0 -2
BITMAP
FC
ENDCHAR
STARTCHAR SYMBOL FOR HORIZONTAL TABULATION
ENCODING 9225
SWIDTH 392 0
DWIDTH 6 0
BBX 5 9 0 -2
BITMAP
90
90
F0
90
90
78
10
10
10
ENDCHAR
STARTCHAR SYMBOL FOR LINE FEED
ENCODING 9226
SWIDTH 392 0
DWIDTH 6 0
BBX 5 9 0 -2
BITMAP
80
80
80
F0
78
40
70
40
40
ENDCHAR
STARTCHAR SYMBOL FOR VERTICAL TABULATION
ENCODING 9227
SWIDTH 392 0
DWIDTH 6 0
BBX 5 9 0 -2
BITMAP
90
90
60
40
78
10
10
10
10
ENDCHAR
STARTCHAR SYMBOL FOR FORM FEED
ENCODING 9228
SWIDTH 392 0
DWIDTH 6 0
BBX 5 9 0 -2
BITMAP
E0
80
C0
80
B8
20
30
20
20
ENDCHAR
STARTCHAR SYMBOL FOR CARRIAGE RETURN
ENCODING 9229
SWIDTH 392 0
DWIDTH 6 0
BBX 5 9 0 -2
BITMAP
70
80
80
70
70
48
70
48
48
ENDCHAR
STARTCHAR SYMBOL FOR NEWLINE
ENCODING 9252
SWIDTH 392 0
DWIDTH 6 0
BBX 5 9 0 -2
BITMAP
90
D0
D0
B0
90
40
40
40
78
ENDCHAR
STARTCHAR BOX DRAWINGS LIGHT HORIZONTAL
ENCODING 9472
SWIDTH 392 0
DWIDTH 6 0
BBX 6 1 0 2
BITMAP
FC
ENDCHAR
STARTCHAR BOX DRAWINGS HEAVY HORIZONTAL
ENCODING 9473
SWIDTH 392 0
DWIDTH 6 0
BBX 6 2 0 2
BITMAP
FC
FC
ENDCHAR
STARTCHAR BOX DRAWINGS LIGHT VERTICAL
ENCODING 9474
SWIDTH 392 0
DWIDTH 6 0
BBX 1 11 2 -2
BITMAP
80
80
80
80
80
80
80
80
80
80
80
ENDCHAR
STARTCHAR BOX DRAWINGS HEAVY VERTICAL
ENCODING 9475
SWIDTH 392 0
DWIDTH 6 0
BBX 2 11 2 -2
BITMAP
C0
C0
C0
C0
C0
C0
C0
C0
C0
C0
C0
ENDCHAR
STARTCHAR BOX DRAWINGS LIGHT TRIPLE DASH HORIZONTAL
ENCODING 9476
SWIDTH 392 0
DWIDTH 6 0
BBX 5 1 0 2
BITMAP
A8
ENDCHAR
STARTCHAR BOX DRAWINGS HEAVY TRIPLE DASH HORIZONTAL
ENCODING 9477
SWIDTH 392 0
DWIDTH 6 0
BBX 5 2 0 2
BITMAP
A8
A8
ENDCHAR
STARTCHAR BOX DRAWINGS LIGHT TRIPLE DASH VERTICAL
ENCODING 9478
SWIDTH 392 0
DWIDTH 6 0
BBX 1 10 2 -1
BITMAP
80
80
80
00
80
80
80
00
80
80
ENDCHAR
STARTCHAR BOX DRAWINGS HEAVY TRIPLE DASH VERTICAL
ENCODING 9479
SWIDTH 392 0
DWIDTH 6 0
BBX 2 10 2 -1
BITMAP
C0
C0
C0
00
C0
C0
C0
00
C0
C0
ENDCHAR
STARTCHAR BOX DRAWINGS LIGHT QUADRUPLE DASH HORIZONTAL
ENCODING 9480
SWIDTH 392 0
DWIDTH 6 0
BBX 5 1 0 2
BITMAP
A8
ENDCHAR
STARTCHAR BOX DRAWINGS HEAVY QUADRUPLE DASH HORIZONTAL
ENCODING 9481
SWIDTH 392 0
DWIDTH 6 0
BBX 5 2 0 2
BITMAP
A8
A8
ENDCHAR
STARTCHAR BOX DRAWINGS LIGHT QUADRUPLE DASH VERTICAL
ENCODING 9482
SWIDTH 392 0
DWIDTH 6 0
BBX 1 9 2 -1
BITMAP
80
80
00
80
00
80
80
00
80
ENDCHAR
STARTCHAR BOX DRAWINGS HEAVY QUADRUPLE DASH VERTICAL
ENCODING 9483
SWIDTH 392 0
DWIDTH 6 0
BBX 2 9 2 -1
BITMAP
C0
C0
00
C0
00
C0
C0
00
C0
ENDCHAR
STARTCHAR BOX DRAWINGS LIGHT DOWN AND RIGHT
ENCODING 9484
SWIDTH 392 0
DWIDTH 6 0
BBX 4 5 2 -2
BITMAP
F0
80
80
80
80
ENDCHAR
STARTCHAR BOX DRAWINGS DOWN LIGHT AND RIGHT HEAVY
ENCODING 9485
SWIDTH 392 0
DWIDTH 6 0
BBX 4 6 2 -2
BITMAP
F0
F0
80
80
80
80
ENDCHAR
STARTCHAR BOX DRAWINGS DOWN HEAVY AND RIGHT LIGHT
ENCODING 9486
SWIDTH 392 0
DWIDTH 6 0
BBX 4 5 2 -2
BITMAP
F0
C0
C0
C0
C0
ENDCHAR
STARTCHAR BOX DRAWINGS HEAVY DOWN AND RIGHT
ENCODING 9487
SWIDTH 392 0
DWIDTH 6 0
BBX 4 6 2 -2
BITMAP
F0
F0
C0
C0
C0
C0
ENDCHAR
STARTCHAR BOX DRAWINGS LIGHT DOWN AND LEFT
ENCODING 9488
SWIDTH 392 0
DWIDTH 6 0
BBX 3 5 0 -2
BITMAP
E0
20
20
20
20
ENDCHAR
STARTCHAR BOX DRAWINGS DOWN LIGHT AND LEFT HEAVY
ENCODING 9489
SWIDTH 392 0
DWIDTH 6 0
BBX 3 6 0 -2
BITMAP
E0
E0
20
20
20
20
ENDCHAR
STARTCHAR BOX DRAWINGS DOWN HEAVY AND LEFT LIGHT
ENCODING 9490
SWIDTH 392 0
DWIDTH 6 0
BBX 4 5 0 -2
BITMAP
F0
30
30
30
30
ENDCHAR
STARTCHAR BOX DRAWINGS HEAVY DOWN AND LEFT
ENCODING 9491
SWIDTH 392 0
DWIDTH 6 0
BBX 4 6 0 -2
BITMAP
F0
F0
30
30
30
30
ENDCHAR
STARTCHAR BOX DRAWINGS LIGHT UP AND RIGHT
ENCODING 9492
SWIDTH 392 0
DWIDTH 6 0
BBX 4 7 2 2
BITMAP
80
80
80
80
80
80
F0
ENDCHAR
STARTCHAR BOX DRAWINGS UP LIGHT AND RIGHT HEAVY
ENCODING 9493
SWIDTH 392 0
DWIDTH 6 0
BBX 4 7 2 2
BITMAP
80
80
80
80
80
F0
F0
ENDCHAR
STARTCHAR BOX DRAWINGS UP HEAVY AND RIGHT LIGHT
ENCODING 9494
SWIDTH 392 0
DWIDTH 6 0
BBX 4 7 2 2
BITMAP
C0
C0
C0
C0
C0
C0
F0
ENDCHAR
STARTCHAR BOX DRAWINGS HEAVY UP AND RIGHT
ENCODING 9495
SWIDTH 392 0
DWIDTH 6 0
BBX 4 7 2 2
BITMAP
C0
C0
C0
C0
C0
F0
F0
ENDCHAR
STARTCHAR BOX DRAWINGS LIGHT UP AND LEFT
ENCODING 9496
SWIDTH 392 0
DWIDTH 6 0
BBX 3 7 0 2
BITMAP
20
20
20
20
20
20
E0
ENDCHAR
STARTCHAR BOX DRAWINGS UP LIGHT AND LEFT HEAVY
ENCODING 9497
SWIDTH 392 0
DWIDTH 6 0
BBX 3 7 0 2
BITMAP
20
20
20
20
20
E0
E0
ENDCHAR
STARTCHAR BOX DRAWINGS UP HEAVY AND LEFT LIGHT
ENCODING 9498
SWIDTH 392 0
DWIDTH 6 0
BBX 4 7 0 2
BITMAP
30
30
30
30
30
30
F0
ENDCHAR
STARTCHAR BOX DRAWINGS HEAVY UP AND LEFT
ENCODING 9499
SWIDTH 392 0
DWIDTH 6 0
BBX 4 7 0 2
BITMAP
30
30
30
30
30
F0
F0
ENDCHAR
STARTCHAR BOX DRAWINGS LIGHT VERTICAL AND RIGHT
ENCODING 9500
SWIDTH 392 0
DWIDTH 6 0
BBX 4 11 2 -2
BITMAP
80
80
80
80
80
80
F0
80
80
80
80
ENDCHAR
STARTCHAR BOX DRAWINGS VERTICAL LIGHT AND RIGHT HEAVY
ENCODING 9501
SWIDTH 392 0
DWIDTH 6 0
BBX 4 11 2 -2
BITMAP
80
80
80
80
80
F0
F0
80
80
80
80
ENDCHAR
STARTCHAR BOX DRAWINGS UP HEAVY AND RIGHT DOWN LIGHT
ENCODING 9502
SWIDTH 392 0
DWIDTH 6 0
BBX 4 11 2 -2
BITMAP
C0
C0
C0
C0
C0
C0
F0
80
80
80
80
ENDCHAR
STARTCHAR BOX DRAWINGS DOWN HEAVY AND RIGHT UP LIGHT
ENCODING 9503
SWIDTH 392 0
DWIDTH 6 0
BBX 4 11 2 -2
BITMAP
80
80
80
80
80
80
F0
C0
C0
C0
C0
ENDCHAR
STARTCHAR BOX DRAWINGS VERTICAL HEAVY AND RIGHT LIGHT
ENCODING 9504
SWIDTH 392 0
DWIDTH 6 0
BBX 4 11 2 -2
BITMAP
C0
C0
C0
C0
C0
C0
F0
C0
C0
C0
C0
ENDCHAR
STARTCHAR BOX DRAWINGS DOWN LIGHT AND RIGHT UP HEAVY
ENCODING 9505
SWIDTH 392 0
DWIDTH 6 0
BBX 4 11 2 -2
BITMAP
C0
C0
C0
C0
C0
F0
F0
80
80
80
80
ENDCHAR
STARTCHAR BOX DRAWINGS UP LIGHT AND RIGHT DOWN HEAVY
ENCODING 9506
SWIDTH 392 0
DWIDTH 6 0
BBX 4 11 2 -2
BITMAP
80
80
80
80
80
F0
F0
C0
C0
C0
C0
ENDCHAR
STARTCHAR BOX DRAWINGS HEAVY VERTICAL AND RIGHT
ENCODING 9507
SWIDTH 392 0
DWIDTH 6 0
BBX 4 11 2 -2
BITMAP
C0
C0
C0
C0
C0
F0
F0
C0
C0
C0
C0
ENDCHAR
STARTCHAR BOX DRAWINGS LIGHT VERTICAL AND LEFT
ENCODING 9508
SWIDTH 392 0
DWIDTH 6 0
BBX 3 11 0 -2
BITMAP
20
20
20
20
20
20
E0
20
20
20
20
ENDCHAR
STARTCHAR BOX DRAWINGS VERTICAL LIGHT AND LEFT HEAVY
ENCODING 9509
SWIDTH 392 0
DWIDTH 6 0
BBX 3 11 0 -2
BITMAP
20
20
20
20
20
E0
E0
20
20
20
20
ENDCHAR
STARTCHAR BOX DRAWINGS UP HEAVY AND LEFT DOWN LIGHT
ENCODING 9510
SWIDTH 392 0
DWIDTH 6 0
BBX 4 11 0 -2
BITMAP
30
30
30
30
30
30
E0
20
20
20
20
ENDCHAR
STARTCHAR BOX DRAWINGS DOWN HEAVY AND LEFT UP LIGHT
ENCODING 9511
SWIDTH 392 0
DWIDTH 6 0
BBX 4 11 0 -2
BITMAP
20
20
20
20
20
20
F0
30
30
30
30
ENDCHAR
STARTCHAR BOX DRAWINGS VERTICAL HEAVY AND LEFT LIGHT
ENCODING 9512
SWIDTH 392 0
DWIDTH 6 0
BBX 4 11 0 -2
BITMAP
30
30
30
30
30
30
F0
30
30
30
30
ENDCHAR
STARTCHAR BOX DRAWINGS DOWN LIGHT AND LEFT UP HEAVY
ENCODING 9513
SWIDTH 392 0
DWIDTH 6 0
BBX 4 11 0 -2
BITMAP
30
30
30
30
30
F0
E0
20
20
20
20
ENDCHAR
STARTCHAR BOX DRAWINGS UP LIGHT AND LEFT DOWN HEAVY
ENCODING 9514
SWIDTH 392 0
DWIDTH 6 0
BBX 4 11 0 -2
BITMAP
20
20
20
20
20
E0
F0
30
30
30
30
ENDCHAR
STARTCHAR BOX DRAWINGS HEAVY VERTICAL AND LEFT
ENCODING 9515
SWIDTH 392 0
DWIDTH 6 0
BBX 4 11 0 -2
BITMAP
30
30
30
30
30
F0
F0
30
30
30
30
ENDCHAR
STARTCHAR BOX DRAWINGS LIGHT DOWN AND HORIZONTAL
ENCODING 9516
SWIDTH 392 0
DWIDTH 6 0
BBX 6 5 0 -2
BITMAP
FC
20
20
20
20
ENDCHAR
STARTCHAR BOX DRAWINGS LEFT HEAVY AND RIGHT DOWN LIGHT
ENCODING 9517
SWIDTH 392 0
DWIDTH 6 0
BBX 6 6 0 -2
BITMAP
E0
FC
20
20
20
20
ENDCHAR
STARTCHAR BOX DRAWINGS RIGHT HEAVY AND LEFT DOWN LIGHT
ENCODING 9518
SWIDTH 392 0
DWIDTH 6 0
BBX 6 6 0 -2
BITMAP
1C
FC
20
20
20
20
ENDCHAR
STARTCHAR BOX DRAWINGS DOWN LIGHT AND HORIZONTAL HEAVY
ENCODING 9519
SWIDTH 392 0
DWIDTH 6 0
BBX 6 6 0 -2
BITMAP
FC
FC
20
20
20
20
ENDCHAR
STARTCHAR BOX DRAWINGS DOWN HEAVY AND HORIZONTAL LIGHT
ENCODING 9520
SWIDTH 392 0
DWIDTH 6 0
BBX 6 5 0 -2
BITMAP
FC
30
30
30
30
ENDCHAR
STARTCHAR BOX DRAWINGS RIGHT LIGHT AND LEFT DOWN HEAVY
ENCODING 9521
SWIDTH 392 0
DWIDTH 6 0
BBX 6 6 0 -2
BITMAP
E0
FC
30
30
30
30
ENDCHAR
STARTCHAR BOX DRAWINGS LEFT LIGHT AND RIGHT DOWN HEAVY
ENCODING 9522
SWIDTH 392 0
DWIDTH 6 0
BBX 6 6 0 -2
BITMAP
1C
FC
30
30
30
30
ENDCHAR
STARTCHAR BOX DRAWINGS HEAVY DOWN AND HORIZONTAL
ENCODING 9523
SWIDTH 392 0
DWIDTH 6 0
BBX 6 6 0 -2
BITMAP
FC
FC
30
30
30
30
ENDCHAR
STARTCHAR BOX DRAWINGS LIGHT UP AND HORIZONTAL
ENCODING 9524
SWIDTH 392 0
DWIDTH 6 0
BBX 6 7 0 2
BITMAP
20
20
20
20
20
20
FC
ENDCHAR
STARTCHAR BOX DRAWINGS LEFT HEAVY AND RIGHT UP LIGHT
ENCODING 9525
SWIDTH 392 0
DWIDTH 6 0
BBX 6 7 0 2
BITMAP
20
20
20
20
20
E0
FC
ENDCHAR
STARTCHAR BOX DRAWINGS RIGHT HEAVY AND LEFT UP LIGHT
ENCODING 9526
SWIDTH 392 0
DWIDTH 6 0
BBX 6 7 0 2
BITMAP
20
20
20
20
20
3C
FC
ENDCHAR
STARTCHAR BOX DRAWINGS UP LIGHT AND HORIZONTAL HEAVY
ENCODING 9527
SWIDTH 392 0
DWIDTH 6 0
BBX 6 7 0 2
BITMAP
20
20
20
20
20
FC
FC
ENDCHAR
STARTCHAR BOX DRAWINGS UP HEAVY AND HORIZONTAL LIGHT
ENCODING 9528
SWIDTH 392 0
DWIDTH 6 0
BBX 6 7 0 2
BITMAP
30
30
30
30
30
30
FC
ENDCHAR
STARTCHAR BOX DRAWINGS RIGHT LIGHT AND LEFT UP HEAVY
ENCODING 9529
SWIDTH 392 0
DWIDTH 6 0
BBX 6 7 0 2
BITMAP
30
30
30
30
30
F0
FC
ENDCHAR
STARTCHAR BOX DRAWINGS LEFT LIGHT AND RIGHT UP HEAVY
ENCODING 9530
SWIDTH 392 0
DWIDTH 6 0
BBX 6 7 0 2
BITMAP
30
30
30
30
30
3C
FC
ENDCHAR
STARTCHAR BOX DRAWINGS HEAVY UP AND HORIZONTAL
ENCODING 9531
SWIDTH 392 0
DWIDTH 6 0
BBX 6 7 0 2
BITMAP
30
30
30
30
30
FC
FC
ENDCHAR
STARTCHAR BOX DRAWINGS LIGHT VERTICAL AND HORIZONTAL
ENCODING 9532
SWIDTH 392 0
DWIDTH 6 0
BBX 6 11 0 -2
BITMAP
20
20
20
20
20
20
FC
20
20
20
20
ENDCHAR
STARTCHAR BOX DRAWINGS LEFT HEAVY AND RIGHT VERTICAL LIGHT
ENCODING 9533
SWIDTH 392 0
DWIDTH 6 0
BBX 6 11 0 -2
BITMAP
20
20
20
20
20
E0
FC
20
20
20
20
ENDCHAR
STARTCHAR BOX DRAWINGS RIGHT HEAVY AND LEFT VERTICAL LIGHT
ENCODING 9534
SWIDTH 392 0
DWIDTH 6 0
BBX 6 11 0 -2
BITMAP
20
20
20
20
20
3C
FC
20
20
20
20
ENDCHAR
STARTCHAR BOX DRAWINGS VERTICAL LIGHT AND HORIZONTAL HEAVY
ENCODING 9535
SWIDTH 392 0
DWIDTH 6 0
BBX 6 11 0 -2
BITMAP
20
20
20
20
20
FC
FC
20
20
20
20
ENDCHAR
STARTCHAR BOX DRAWINGS UP HEAVY AND DOWN HORIZONTAL LIGHT
ENCODING 9536
SWIDTH 392 0
DWIDTH 6 0
BBX 6 11 0 -2
BITMAP
30
30
30
30
30
30
FC
20
20
20
20
ENDCHAR
STARTCHAR BOX DRAWINGS DOWN HEAVY AND UP HORIZONTAL LIGHT
ENCODING 9537
SWIDTH 392 0
DWIDTH 6 0
BBX 6 11 0 -2
BITMAP
20
20
20
20
20
20
FC
30
30
30
30
ENDCHAR
STARTCHAR BOX DRAWINGS VERTICAL HEAVY AND HORIZONTAL LIGHT
ENCODING 9538
SWIDTH 392 0
DWIDTH 6 0
BBX 6 11 0 -2
BITMAP
30
30
30
30
30
30
FC
30
30
30
30
ENDCHAR
STARTCHAR BOX DRAWINGS LEFT UP HEAVY AND RIGHT DOWN LIGHT
ENCODING 9539
SWIDTH 392 0
DWIDTH 6 0
BBX 6 11 0 -2
BITMAP
30
30
30
30
30
F0
FC
20
20
20
20
ENDCHAR
STARTCHAR BOX DRAWINGS RIGHT UP HEAVY AND LEFT DOWN LIGHT
ENCODING 9540
SWIDTH 392 0
DWIDTH 6 0
BBX 6 11 0 -2
BITMAP
30
30
30
30
30
3C
FC
20
20
20
20
ENDCHAR
STARTCHAR BOX DRAWINGS LEFT DOWN HEAVY AND RIGHT UP LIGHT
ENCODING 9541
SWIDTH 392 0
DWIDTH 6 0
BBX 6 11 0 -2
BITMAP
20
20
20
20
20
E0
FC
30
30
30
30
ENDCHAR
STARTCHAR BOX DRAWINGS RIGHT DOWN HEAVY AND LEFT UP LIGHT
ENCODING 9542
SWIDTH 392 0
DWIDTH 6 0
BBX 6 11 0 -2
BITMAP
20
20
20
20
20
3C
FC
30
30
30
30
ENDCHAR
STARTCHAR BOX DRAWINGS DOWN LIGHT AND UP HORIZONTAL HEAVY
ENCODING 9543
SWIDTH 392 0
DWIDTH 6 0
BBX 6 11 0 -2
BITMAP
30
30
30
30
30
FC
FC
20
20
20
20
ENDCHAR
STARTCHAR BOX DRAWINGS UP LIGHT AND DOWN HORIZONTAL HEAVY
ENCODING 9544
SWIDTH 392 0
DWIDTH 6 0
BBX 6 11 0 -2
BITMAP
20
20
20
20
20
FC
FC
30
30
30
30
ENDCHAR
STARTCHAR BOX DRAWINGS RIGHT LIGHT AND LEFT VERTICAL HEAVY
ENCODING 9545
SWIDTH 392 0
DWIDTH 6 0
BBX 6 11 0 -2
BITMAP
30
30
30
30
30
F0
FC
30
30
30
30
ENDCHAR
STARTCHAR BOX DRAWINGS LEFT LIGHT AND RIGHT VERTICAL HEAVY
ENCODING 9546
SWIDTH 392 0
DWIDTH 6 0
BBX 6 11 0 -2
BITMAP
30
30
30
30
30
3C
FC
30
30
30
30
ENDCHAR
STARTCHAR BOX DRAWINGS HEAVY VERTICAL AND HORIZONTAL
ENCODING 9547
SWIDTH 392 0
DWIDTH 6 0
BBX 6 11 0 -2
BITMAP
30
30
30
30
30
FC
FC
30
30
30
30
ENDCHAR
STARTCHAR BOX DRAWINGS LIGHT DOUBLE DASH HORIZONTAL
ENCODING 9548
SWIDTH 392 0
DWIDTH 6 0
BBX 5 1 0 2
BITMAP
D8
ENDCHAR
STARTCHAR BOX DRAWINGS HEAVY DOUBLE DASH HORIZONTAL
ENCODING 9549
SWIDTH 392 0
DWIDTH 6 0
BBX 5 2 0 2
BITMAP
D8
D8
ENDCHAR
STARTCHAR BOX DRAWINGS LIGHT DOUBLE DASH VERTICAL
ENCODING 9550
SWIDTH 392 0
DWIDTH 6 0
BBX 1 9 2 -1
BITMAP
80
80
80
80
00
80
80
80
80
ENDCHAR
STARTCHAR BOX DRAWINGS HEAVY DOUBLE DASH VERTICAL
ENCODING 9551
SWIDTH 392 0
DWIDTH 6 0
BBX 2 9 2 -1
BITMAP
C0
C0
C0
C0
00
C0
C0
C0
C0
ENDCHAR
STARTCHAR BOX DRAWINGS DOUBLE HORIZONTAL
ENCODING 9552
SWIDTH 392 0
DWIDTH 6 0
BBX 6 3 0 1
BITMAP
FC
00
FC
ENDCHAR
STARTCHAR BOX DRAWINGS DOUBLE VERTICAL
ENCODING 9553
SWIDTH 392 0
DWIDTH 6 0
BBX 3 11 1 -2
BITMAP
A0
A0
A0
A0
A0
A0
A0
A0
A0
A0
A0
ENDCHAR
STARTCHAR BOX DRAWINGS DOWN SINGLE AND RIGHT DOUBLE
ENCODING 9554
SWIDTH 392 0
DWIDTH 6 0
BBX 4 6 2 -2
BITMAP
F0
80
F0
80
80
80
ENDCHAR
STARTCHAR BOX DRAWINGS DOWN DOUBLE AND RIGHT SINGLE
ENCODING 9555
SWIDTH 392 0
DWIDTH 6 0
BBX 5 5 1 -2
BITMAP
F8
A0
A0
A0
A0
ENDCHAR
STARTCHAR BOX DRAWINGS DOUBLE DOWN AND RIGHT
ENCODING 9556
SWIDTH 392 0
DWIDTH 6 0
BBX 5 6 1 -2
BITMAP
F8
80
B8
A0
A0
A0
ENDCHAR
STARTCHAR BOX DRAWINGS DOWN SINGLE AND LEFT DOUBLE
ENCODING 9557
SWIDTH 392 0
DWIDTH 6 0
BBX 3 6 0 -2
BITMAP
E0
20
E0
20
20
20
ENDCHAR
STARTCHAR BOX DRAWINGS DOWN DOUBLE AND LEFT SINGLE
ENCODING 9558
SWIDTH 392 0
DWIDTH 6 0
BBX 4 5 0 -2
BITMAP
F0
50
50
50
50
ENDCHAR
STARTCHAR BOX DRAWINGS DOUBLE DOWN AND LEFT
ENCODING 9559
SWIDTH 392 0
DWIDTH 6 0
BBX 4 6 0 -2
BITMAP
F0
10
D0
50
50
50
ENDCHAR
STARTCHAR BOX DRAWINGS UP SINGLE AND RIGHT DOUBLE
ENCODING 9560
SWIDTH 392 0
DWIDTH 6 0
BBX 4 8 2 1
BITMAP
80
80
80
80
80
F0
80
F0
ENDCHAR
STARTCHAR BOX DRAWINGS UP DOUBLE AND RIGHT SINGLE
ENCODING 9561
SWIDTH 392 0
DWIDTH 6 0
BBX 5 7 1 2
BITMAP
A0
A0
A0
A0
A0
A0
F8
ENDCHAR
STARTCHAR BOX DRAWINGS DOUBLE UP AND RIGHT
ENCODING 9562
SWIDTH 392 0
DWIDTH 6 0
BBX 5 8 1 1
BITMAP
A0
A0
A0
A0
A0
B8
80
F8
ENDCHAR
STARTCHAR BOX DRAWINGS UP SINGLE AND LEFT DOUBLE
ENCODING 9563
SWIDTH 392 0
DWIDTH 6 0
BBX 3 8 0 1
BITMAP
20
20
20
20
20
E0
20
E0
ENDCHAR
STARTCHAR BOX DRAWINGS UP DOUBLE AND LEFT SINGLE
ENCODING 9564
SWIDTH 392 0
DWIDTH 6 0
BBX 4 7 0 2
BITMAP
50
50
50
50
50
50
F0
ENDCHAR
STARTCHAR BOX DRAWINGS DOUBLE UP AND LEFT
ENCODING 9565
SWIDTH 392 0
DWIDTH 6 0
BBX 4 8 0 1
BITMAP
50
50
50
50
50
D0
10
F0
ENDCHAR
STARTCHAR BOX DRAWINGS VERTICAL SINGLE AND RIGHT DOUBLE
ENCODING 9566
SWIDTH 392 0
DWIDTH 6 0
BBX 4 11 2 -2
BITMAP
80
80
80
80
80
F0
80
F0
80
80
80
ENDCHAR
STARTCHAR BOX DRAWINGS VERTICAL DOUBLE AND RIGHT SINGLE
ENCODING 9567
SWIDTH 392 0
DWIDTH 6 0
BBX 5 11 1 -2
BITMAP
A0
A0
A0
A0
A0
A0
B8
A0
A0
A0
A0
ENDCHAR
STARTCHAR BOX DRAWINGS DOUBLE VERTICAL AND RIGHT
ENCODING 9568
SWIDTH 392 0
DWIDTH 6 0
BBX 5 11 1 -2
BITMAP
A0
A0
A0
A0
A0
B8
80
B8
A0
A0
A0
ENDCHAR
STARTCHAR BOX DRAWINGS VERTICAL SINGLE AND LEFT DOUBLE
ENCODING 9569
SWIDTH 392 0
DWIDTH 6 0
BBX 3 11 0 -2
BITMAP
20
20
20
20
20
E0
20
E0
20
20
20
ENDCHAR
STARTCHAR BOX DRAWINGS VERTICAL DOUBLE AND LEFT SINGLE
ENCODING 9570
SWIDTH 392 0
DWIDTH 6 0
BBX 4 11 0 -2
BITMAP
50
50
50
50
50
50
D0
50
50
50
50
ENDCHAR
STARTCHAR BOX DRAWINGS DOUBLE VERTICAL AND LEFT
ENCODING 9571
SWIDTH 392 0
DWIDTH 6 0
BBX 4 11 0 -2
BITMAP
50
50
50
50
50
D0
10
D0
50
50
50
ENDCHAR
STARTCHAR BOX DRAWINGS DOWN SINGLE AND HORIZONTAL DOUBLE
ENCODING 9572
SWIDTH 392 0
DWIDTH 6 0
BBX 6 6 0 -2
BITMAP
FC
00
FC
20
20
20
ENDCHAR
STARTCHAR BOX DRAWINGS DOWN DOUBLE AND HORIZONTAL SINGLE
ENCODING 9573
SWIDTH 392 0
DWIDTH 6 0
BBX 6 5 0 -2
BITMAP
FC
50
50
50
50
ENDCHAR
STARTCHAR BOX DRAWINGS DOUBLE DOWN AND HORIZONTAL
ENCODING 9574
SWIDTH 392 0
DWIDTH 6 0
BBX 6 6 0 -2
BITMAP
FC
00
DC
50
50
50
ENDCHAR
STARTCHAR BOX DRAWINGS UP SINGLE AND HORIZONTAL DOUBLE
ENCODING 9575
SWIDTH 392 0
DWIDTH 6 0
BBX 6 8 0 1
BITMAP
20
20
20
20
20
FC
00
FC
ENDCHAR
STARTCHAR BOX DRAWINGS UP DOUBLE AND HORIZONTAL SINGLE
ENCODING 9576
SWIDTH 392 0
DWIDTH 6 0
BBX 6 7 0 2
BITMAP
50
50
50
50
50
50
FC
ENDCHAR
STARTCHAR BOX DRAWINGS DOUBLE UP AND HORIZONTAL
ENCODING 9577
SWIDTH 392 0
DWIDTH 6 0
BBX 6 8 0 1
BITMAP
50
50
50
50
50
DC
00
FC
ENDCHAR
STARTCHAR BOX DRAWINGS VERTICAL SINGLE AND HORIZONTAL DOUBLE
ENCODING 9578
SWIDTH 392 0
DWIDTH 6 0
BBX 6 11 0 -2
BITMAP
20
20
20
20
20
FC
20
FC
20
20
20
ENDCHAR
STARTCHAR BOX DRAWINGS VERTICAL DOUBLE AND HORIZONTAL SINGLE
ENCODING 9579
SWIDTH 392 0
DWIDTH 6 0
BBX 6 11 0 -2
BITMAP
50
50
50
50
50
50
FC
50
50
50
50
ENDCHAR
STARTCHAR BOX DRAWINGS DOUBLE VERTICAL AND HORIZONTAL
ENCODING 9580
SWIDTH 392 0
DWIDTH 6 0
BBX 6 11 0 -2
BITMAP
50
50
50
50
50
DC
00
DC
50
50
50
ENDCHAR
STARTCHAR BOX DRAWINGS LIGHT ARC DOWN AND RIGHT
ENCODING 9581
SWIDTH 392 0
DWIDTH 6 0
BBX 4 5 2 -2
BITMAP
30
40
80
80
80
ENDCHAR
STARTCHAR BOX DRAWINGS LIGHT ARC DOWN AND LEFT
ENCODING 9582
SWIDTH 392 0
DWIDTH 6 0
BBX 3 5 0 -2
BITMAP
80
40
20
20
20
ENDCHAR
STARTCHAR BOX DRAWINGS LIGHT ARC UP AND LEFT
ENCODING 9583
SWIDTH 392 0
DWIDTH 6 0
BBX 3 7 0 2
BITMAP
20
20
20
20
20
40
80
ENDCHAR
STARTCHAR BOX DRAWINGS LIGHT ARC UP AND RIGHT
ENCODING 9584
SWIDTH 392 0
DWIDTH 6 0
BBX 4 7 2 2
BITMAP
80
80
80
80
80
40
30
ENDCHAR
STARTCHAR BOX DRAWINGS LIGHT DIAGONAL UPPER RIGHT TO LOWER LEFT
ENCODING 9585
SWIDTH 392 0
DWIDTH 6 0
BBX 6 11 0 -2
BITMAP
04
04
08
08
10
30
20
40
40
80
80
ENDCHAR
STARTCHAR BOX DRAWINGS LIGHT DIAGONAL UPPER LEFT TO LOWER RIGHT
ENCODING 9586
SWIDTH 392 0
DWIDTH 6 0
BBX 6 11 0 -2
BITMAP
80
80
40
40
20
30
10
08
08
04
04
ENDCHAR
STARTCHAR BOX DRAWINGS LIGHT DIAGONAL CROSS
ENCODING 9587
SWIDTH 392 0
DWIDTH 6 0
BBX 6 11 0 -2
BITMAP
84
84
48
48
30
30
30
48
48
84
84
ENDCHAR
STARTCHAR BOX DRAWINGS LIGHT LEFT
ENCODING 9588
SWIDTH 392 0
DWIDTH 6 0
BBX 3 1 0 2
BITMAP
E0
ENDCHAR
STARTCHAR BOX DRAWINGS LIGHT UP
ENCODING 9589
SWIDTH 392 0
DWIDTH 6 0
BBX 1 6 2 3
BITMAP
80
80
80
80
80
80
ENDCHAR
STARTCHAR BOX DRAWINGS LIGHT RIGHT
ENCODING 9590
SWIDTH 392 0
DWIDTH 6 0
BBX 3 1 3 2
BITMAP
E0
ENDCHAR
STARTCHAR BOX DRAWINGS LIGHT DOWN
ENCODING 9591
SWIDTH 392 0
DWIDTH 6 0
BBX 1 5 2 -2
BITMAP
80
80
80
80
80
ENDCHAR
STARTCHAR BOX DRAWINGS HEAVY LEFT
ENCODING 9592
SWIDTH 392 0
DWIDTH 6 0
BBX 3 2 0 2
BITMAP
E0
E0
ENDCHAR
STARTCHAR BOX DRAWINGS HEAVY UP
ENCODING 9593
SWIDTH 392 0
DWIDTH 6 0
BBX 2 6 2 3
BITMAP
C0
C0
C0
C0
C0
C0
ENDCHAR
STARTCHAR BOX DRAWINGS HEAVY RIGHT
ENCODING 9594
SWIDTH 392 0
DWIDTH 6 0
BBX 3 2 3 2
BITMAP
E0
E0
ENDCHAR
STARTCHAR BOX DRAWINGS HEAVY DOWN
ENCODING 9595
SWIDTH 392 0
DWIDTH 6 0
BBX 2 5 2 -2
BITMAP
C0
C0
C0
C0
C0
ENDCHAR
STARTCHAR BOX DRAWINGS LIGHT LEFT AND HEAVY RIGHT
ENCODING 9596
SWIDTH 392 0
DWIDTH 6 0
BBX 6 2 0 2
BITMAP
1C
FC
ENDCHAR
STARTCHAR BOX DRAWINGS LIGHT UP AND HEAVY DOWN
ENCODING 9597
SWIDTH 392 0
DWIDTH 6 0
BBX 2 11 2 -2
BITMAP
80
80
80
80
80
80
C0
C0
C0
C0
C0
ENDCHAR
STARTCHAR BOX DRAWINGS HEAVY LEFT AND LIGHT RIGHT
ENCODING 9598
SWIDTH 392 0
DWIDTH 6 0
BBX 6 2 0 2
BITMAP
E0
FC
ENDCHAR
STARTCHAR BOX DRAWINGS HEAVY UP AND LIGHT DOWN
ENCODING 9599
SWIDTH 392 0
DWIDTH 6 0
BBX 2 11 2 -2
BITMAP
C0
C0
C0
C0
C0
C0
80
80
80
80
80
ENDCHAR
STARTCHAR UPPER HALF BLOCK
ENCODING 9600
SWIDTH 392 0
DWIDTH 6 0
BBX 6 6 0 3
BITMAP
FC
FC
FC
FC
FC
FC
ENDCHAR
STARTCHAR LOWER ONE EIGHTH BLOCK
ENCODING 9601
SWIDTH 392 0
DWIDTH 6 0
BBX 6 1 0 -2
BITMAP
FC
ENDCHAR
STARTCHAR LOWER ONE QUARTER BLOCK
ENCODING 9602
SWIDTH 392 0
DWIDTH 6 0
BBX 6 2 0 -2
BITMAP
FC
FC
ENDCHAR
STARTCHAR LOWER THREE EIGHTHS BLOCK
ENCODING 9603
SWIDTH 392 0
DWIDTH 6 0
BBX 6 4 0 -2
BITMAP
FC
FC
FC
FC
ENDCHAR
STARTCHAR LOWER HALF BLOCK
ENCODING 9604
SWIDTH 392 0
DWIDTH 6 0
BBX 6 5 0 -2
BITMAP
FC
FC
FC
FC
FC
ENDCHAR
STARTCHAR LOWER FIVE EIGHTHS BLOCK
ENCODING 9605
SWIDTH 392 0
DWIDTH 6 0
BBX 6 6 0 -2
BITMAP
FC
FC
FC
FC
FC
FC
ENDCHAR
STARTCHAR LOWER THREE QUARTERS BLOCK
ENCODING 9606
SWIDTH 392 0
DWIDTH 6 0
BBX 6 8 0 -2
BITMAP
FC
FC
FC
FC
FC
FC
FC
FC
ENDCHAR
STARTCHAR LOWER SEVEN EIGHTHS BLOCK
ENCODING 9607
SWIDTH 392 0
DWIDTH 6 0
BBX 6 9 0 -2
BITMAP
FC
FC
FC
FC
FC
FC
FC
FC
FC
ENDCHAR
STARTCHAR FULL BLOCK
ENCODING 9608
SWIDTH 392 0
DWIDTH 6 0
BBX 6 11 0 -2
BITMAP
FC
FC
FC
FC
FC
FC
FC
FC
FC
FC
FC
ENDCHAR
STARTCHAR LEFT SEVEN EIGHTHS BLOCK
ENCODING 9609
SWIDTH 392 0
DWIDTH 6 0
BBX 5 11 0 -2
BITMAP
F8
F8
F8
F8
F8
F8
F8
F8
F8
F8
F8
ENDCHAR
STARTCHAR LEFT THREE QUARTERS BLOCK
ENCODING 9610
SWIDTH 392 0
DWIDTH 6 0
BBX 4 11 0 -2
BITMAP
F0
F0
F0
F0
F0
F0
F0
F0
F0
F0
F0
ENDCHAR
STARTCHAR LEFT FIVE EIGHTHS BLOCK
ENCODING 9611
SWIDTH 392 0
DWIDTH 6 0
BBX 4 11 0 -2
BITMAP
F0
F0
F0
F0
F0
F0
F0
F0
F0
F0
F0
ENDCHAR
STARTCHAR LEFT HALF BLOCK
ENCODING 9612
SWIDTH 392 0
DWIDTH 6 0
BBX 3 11 0 -2
BITMAP
E0
E0
E0
E0
E0
E0
E0
E0
E0
E0
E0
ENDCHAR
STARTCHAR LEFT THREE EIGHTHS BLOCK
ENCODING 9613
SWIDTH 392 0
DWIDTH 6 0
BBX 2 11 0 -2
BITMAP
C0
C0
C0
C0
C0
C0
C0
C0
C0
C0
C0
ENDCHAR
STARTCHAR LEFT ONE QUARTER BLOCK
ENCODING 9614
SWIDTH 392 0
DWIDTH 6 0
BBX 2 11 0 -2
BITMAP
C0
C0
C0
C0
C0
C0
C0
C0
C0
C0
C0
ENDCHAR
STARTCHAR LEFT ONE EIGHTH BLOCK
ENCODING 9615
SWIDTH 392 0
DWIDTH 6 0
BBX 1 11 0 -2
BITMAP
80
80
80
80
80
80
80
80
80
80
80
ENDCHAR
STARTCHAR RIGHT HALF BLOCK
ENCODING 9616
SWIDTH 392 0
DWIDTH 6 0
BBX 3 11 3 -2
BITMAP
E0
E0
E0
E0
E0
E0
E0
E0
E0
E0
E0
ENDCHAR
STARTCHAR LIGHT SHADE
ENCODING 9617
SWIDTH 392 0
DWIDTH 6 0
BBX 6 9 0 -1
BITMAP
A8
00
54
00
A8
00
54
00
A8
ENDCHAR
STARTCHAR MEDIUM SHADE
ENCODING 9618
SWIDTH 392 0
DWIDTH 6 0
BBX 6 11 0 -2
BITMAP
54
A8
54
A8
54
A8
54
A8
54
A8
54
ENDCHAR
STARTCHAR DARK SHADE
ENCODING 9619
SWIDTH 392 0
DWIDTH 6 0
BBX 6 11 0 -2
BITMAP
FC
A8
FC
54
FC
A8
FC
54
FC
A8
FC
ENDCHAR
STARTCHAR UPPER ONE EIGHTH BLOCK
ENCODING 9620
SWIDTH 392 0
DWIDTH 6 0
BBX 6 1 0 8
BITMAP
FC
ENDCHAR
STARTCHAR RIGHT ONE EIGHTH BLOCK
ENCODING 9621
SWIDTH 392 0
DWIDTH 6 0
BBX 1 11 5 -2
BITMAP
80
80
80
80
80
80
80
80
80
80
80
ENDCHAR
STARTCHAR QUADRANT LOWER LEFT
ENCODING 9622
SWIDTH 392 0
DWIDTH 6 0
BBX 3 5 0 -2
BITMAP
E0
E0
E0
E0
E0
ENDCHAR
STARTCHAR QUADRANT LOWER RIGHT
ENCODING 9623
SWIDTH 392 0
DWIDTH 6 0
BBX 3 5 3 -2
BITMAP
E0
E0
E0
E0
E0
ENDCHAR
STARTCHAR QUADRANT UPPER LEFT
ENCODING 9624
SWIDTH 392 0
DWIDTH 6 0
BBX 3 6 0 3
BITMAP
E0
E0
E0
E0
E0
E0
ENDCHAR
STARTCHAR QUADRANT UPPER LEFT AND LOWER LEFT AND LOWER RIGHT
ENCODING 9625
SWIDTH 392 0
DWIDTH 6 0
BBX 6 11 0 -2
BITMAP
E0
E0
E0
E0
E0
E0
FC
FC
FC
FC
FC
ENDCHAR
STARTCHAR QUADRANT UPPER LEFT AND LOWER RIGHT
ENCODING 9626
SWIDTH 392 0
DWIDTH 6 0
BBX 6 11 0 -2
BITMAP
E0
E0
E0
E0
E0
E0
1C
1C
1C
1C
1C
ENDCHAR
STARTCHAR QUADRANT UPPER LEFT AND UPPER RIGHT AND LOWER LEFT
ENCODING 9627
SWIDTH 392 0
DWIDTH 6 0
BBX 6 11 0 -2
BITMAP
FC
FC
FC
FC
FC
FC
E0
E0
E0
E0
E0
ENDCHAR
STARTCHAR QUADRANT UPPER LEFT AND UPPER RIGHT AND LOWER RIGHT
ENCODING 9628
SWIDTH 392 0
DWIDTH 6 0
BBX 6 11 0 -2
BITMAP
FC
FC
FC
FC
FC
FC
1C
1C
1C
1C
1C
ENDCHAR
STARTCHAR QUADRANT UPPER RIGHT
ENCODING 9629
SWIDTH 392 0
DWIDTH 6 0
BBX 3 6 3 3
BITMAP
E0
E0
E0
E0
E0
E0
ENDCHAR
STARTCHAR QUADRANT UPPER RIGHT AND LOWER LEFT
ENCODING 9630
SWIDTH 392 0
DWIDTH 6 0
BBX 6 11 0 -2
BITMAP
1C
1C
1C
1C
1C
1C
E0
E0
E0
E0
E0
ENDCHAR
STARTCHAR QUADRANT UPPER RIGHT AND LOWER LEFT AND LOWER RIGHT
ENCODING 9631
SWIDTH 392 0
DWIDTH 6 0
BBX 6 11 0 -2
BITMAP
1C
1C
1C
1C
1C
1C
FC
FC
FC
FC
FC
ENDCHAR
STARTCHAR BLACK SQUARE
ENCODING 9632
SWIDTH 392 0
DWIDTH 6 0
BBX 5 5 0 0
BITMAP
F8
F8
F8
F8
F8
ENDCHAR
STARTCHAR WHITE SQUARE
ENCODING 9633
SWIDTH 392 0
DWIDTH 6 0
BBX 5 5 0 0
BITMAP
F8
88
88
88
F8
ENDCHAR
STARTCHAR BLACK SMALL SQUARE
ENCODING 9642
SWIDTH 392 0
DWIDTH 6 0
BBX 4 4 1 0
BITMAP
F0
F0
F0
F0
ENDCHAR
STARTCHAR WHITE SMALL SQUARE
ENCODING 9643
SWIDTH 392 0
DWIDTH 6 0
BBX 4 4 1 0
BITMAP
F0
90
90
F0
ENDCHAR
STARTCHAR BLACK RECTANGLE
ENCODING 9644
SWIDTH 392 0
DWIDTH 6 0
BBX 6 4 0 0
BITMAP
FC
FC
FC
FC
ENDCHAR
STARTCHAR BLACK VERTICAL RECTANGLE
ENCODING 9646
SWIDTH 392 0
DWIDTH 6 0
BBX 4 6 1 -1
BITMAP
F0
F0
F0
F0
F0
F0
ENDCHAR
STARTCHAR BLACK UP-POINTING TRIANGLE
ENCODING 9650
SWIDTH 392 0
DWIDTH 6 0
BBX 5 6 0 0
BITMAP
20
20
70
70
F8
F8
ENDCHAR
STARTCHAR WHITE UP-POINTING TRIANGLE
ENCODING 9651
SWIDTH 392 0
DWIDTH 6 0
BBX 5 6 0 0
BITMAP
20
20
50
50
88
F8
ENDCHAR
STARTCHAR BLACK RIGHT-POINTING POINTER
ENCODING 9658
SWIDTH 392 0
DWIDTH 6 0
BBX 6 5 0 0
BITMAP
C0
F0
FC
F0
C0
ENDCHAR
STARTCHAR WHITE RIGHT-POINTING POINTER
ENCODING 9659
SWIDTH 392 0
DWIDTH 6 0
BBX 6 5 0 0
BITMAP
C0
B0
8C
B0
C0
ENDCHAR
STARTCHAR BLACK DOWN-POINTING TRIANGLE
ENCODING 9660
SWIDTH 392 0
DWIDTH 6 0
BBX 5 6 0 0
BITMAP
F8
F8
70
70
20
20
ENDCHAR
STARTCHAR WHITE DOWN-POINTING TRIANGLE
ENCODING 9661
SWIDTH 392 0
DWIDTH 6 0
BBX 5 6 0 0
BITMAP
F8
88
50
50
20
20
ENDCHAR
STARTCHAR BLACK LEFT-POINTING POINTER
ENCODING 9668
SWIDTH 392 0
DWIDTH 6 0
BBX 6 5 0 0
BITMAP
0C
3C
FC
3C
0C
ENDCHAR
STARTCHAR WHITE LEFT-POINTING POINTER
ENCODING 9669
SWIDTH 392 0
DWIDTH 6 0
BBX 6 5 0 0
BITMAP
0C
34
C4
34
0C
ENDCHAR
STARTCHAR BLACK DIAMOND
ENCODING 9670
SWIDTH 392 0
DWIDTH 6 0
BBX 5 5 0 1
BITMAP
20
70
F8
70
20
ENDCHAR
STARTCHAR LOZENGE
ENCODING 9674
SWIDTH 392 0
DWIDTH 6 0
BBX 5 7 0 0
BITMAP
20
50
50
88
50
50
20
ENDCHAR
STARTCHAR WHITE CIRCLE
ENCODING 9675
SWIDTH 392 0
DWIDTH 6 0
BBX 5 5 0 0
BITMAP
70
88
88
88
70
ENDCHAR
STARTCHAR DOTTED CIRCLE
ENCODING 9676
SWIDTH 392 0
DWIDTH 6 0
BBX 5 5 0 0
BITMAP
70
F8
F8
F8
70
ENDCHAR
STARTCHAR BLACK CIRCLE
ENCODING 9679
SWIDTH 392 0
DWIDTH 6 0
BBX 5 5 0 0
BITMAP
70
F8
F8
F8
70
ENDCHAR
STARTCHAR INVERSE BULLET
ENCODING 9688
SWIDTH 392 0
DWIDTH 6 0
BBX 6 11 0 -2
BITMAP
FC
FC
FC
FC
CC
84
84
CC
FC
FC
FC
ENDCHAR
STARTCHAR INVERSE WHITE CIRCLE
ENCODING 9689
SWIDTH 392 0
DWIDTH 6 0
BBX 6 11 0 -2
BITMAP
FC
FC
FC
FC
CC
B4
B4
CC
FC
FC
FC
ENDCHAR
STARTCHAR WHITE BULLET
ENCODING 9702
SWIDTH 392 0
DWIDTH 6 0
BBX 4 4 1 1
BITMAP
60
90
90
60
ENDCHAR
STARTCHAR BLACK SUN WITH RAYS
ENCODING 9728
SWIDTH 392 0
DWIDTH 6 0
BBX 6 8 0 -1
BITMAP
10
54
00
B0
34
00
A8
20
ENDCHAR
STARTCHAR WHITE SMILING FACE
ENCODING 9786
SWIDTH 392 0
DWIDTH 6 0
BBX 6 7 0 -1
BITMAP
78
84
CC
84
B4
84
78
ENDCHAR
STARTCHAR BLACK SMILING FACE
ENCODING 9787
SWIDTH 392 0
DWIDTH 6 0
BBX 5 7 0 0
BITMAP
70
F8
A8
F8
A8
D8
70
ENDCHAR
STARTCHAR WHITE SUN WITH RAYS
ENCODING 9788
SWIDTH 392 0
DWIDTH 6 0
BBX 6 8 0 -1
BITMAP
10
54
00
B0
34
00
A8
20
ENDCHAR
STARTCHAR MERCURY
ENCODING 9791
SWIDTH 392 0
DWIDTH 6 0
BBX 5 9 0 -2
BITMAP
88
70
88
88
88
70
20
70
20
ENDCHAR
STARTCHAR FEMALE SIGN
ENCODING 9792
SWIDTH 392 0
DWIDTH 6 0
BBX 5 8 0 -2
BITMAP
70
88
88
88
70
20
70
20
ENDCHAR
STARTCHAR EARTH
ENCODING 9793
SWIDTH 392 0
DWIDTH 6 0
BBX 5 8 0 0
BITMAP
20
70
20
70
88
88
88
70
ENDCHAR
STARTCHAR MALE SIGN
ENCODING 9794
SWIDTH 392 0
DWIDTH 6 0
BBX 6 7 0 0
BITMAP
1C
0C
74
88
88
88
70
ENDCHAR
STARTCHAR BLACK SPADE SUIT
ENCODING 9824
SWIDTH 392 0
DWIDTH 6 0
BBX 5 7 0 0
BITMAP
20
20
70
F8
F8
20
70
ENDCHAR
STARTCHAR WHITE HEART SUIT
ENCODING 9825
SWIDTH 392 0
DWIDTH 6 0
BBX 5 6 0 0
BITMAP
50
A8
A8
88
50
20
ENDCHAR
STARTCHAR WHITE DIAMOND SUIT
ENCODING 9826
SWIDTH 392 0
DWIDTH 6 0
BBX 5 8 0 0
BITMAP
20
50
50
88
88
50
50
20
ENDCHAR
STARTCHAR BLACK CLUB SUIT
ENCODING 9827
SWIDTH 392 0
DWIDTH 6 0
BBX 5 7 0 0
BITMAP
70
20
A8
F8
A8
20
70
ENDCHAR
STARTCHAR WHITE SPADE SUIT
ENCODING 9828
SWIDTH 392 0
DWIDTH 6 0
BBX 5 7 0 0
BITMAP
20
20
50
88
D8
20
70
ENDCHAR
STARTCHAR BLACK HEART SUIT
ENCODING 9829
SWIDTH 392 0
DWIDTH 6 0
BBX 5 6 0 0
BITMAP
50
F8
F8
F8
70
20
ENDCHAR
STARTCHAR BLACK DIAMOND SUIT
ENCODING 9830
SWIDTH 392 0
DWIDTH 6 0
BBX 5 8 0 0
BITMAP
20
70
70
F8
F8
70
70
20
ENDCHAR
STARTCHAR EIGHTH NOTE
ENCODING 9834
SWIDTH 392 0
DWIDTH 6 0
BBX 5 6 0 0
BITMAP
30
28
20
60
E0
60
ENDCHAR
STARTCHAR BEAMED EIGHTH NOTES
ENCODING 9835
SWIDTH 392 0
DWIDTH 6 0
BBX 5 7 0 0
BITMAP
60
50
48
48
C8
D8
18
ENDCHAR
STARTCHAR BEAMED SIXTEENTH NOTES
ENCODING 9836
SWIDTH 392 0
DWIDTH 6 0
BBX 5 7 0 0
BITMAP
60
50
68
58
C8
D8
18
ENDCHAR
STARTCHAR MUSIC FLAT SIGN
ENCODING 9837
SWIDTH 392 0
DWIDTH 6 0
BBX 4 7 1 0
BITMAP
80
80
A0
D0
90
A0
C0
ENDCHAR
STARTCHAR MUSIC NATURAL SIGN
ENCODING 9838
SWIDTH 392 0
DWIDTH 6 0
BBX 4 8 1 -1
BITMAP
80
90
B0
D0
B0
D0
90
10
ENDCHAR
STARTCHAR MUSIC SHARP SIGN
ENCODING 9839
SWIDTH 392 0
DWIDTH 6 0
BBX 5 8 0 -1
BITMAP
10
58
70
D0
58
70
D0
40
ENDCHAR
STARTCHAR MATHEMATICAL LEFT ANGLE BRACKET
ENCODING 10216
SWIDTH 392 0
DWIDTH 6 0
BBX 3 7 1 0
BITMAP
20
40
40
80
40
40
20
ENDCHAR
STARTCHAR MATHEMATICAL RIGHT ANGLE BRACKET
ENCODING 10217
SWIDTH 392 0
DWIDTH 6 0
BBX 3 7 1 0
BITMAP
80
40
40
20
40
40
80
ENDCHAR
STARTCHAR BRAILLE PATTERN BLANK
ENCODING 10240
SWIDTH 392 0
DWIDTH 6 0
BBX 0 0 0 0
BITMAP
ENDCHAR
STARTCHAR BRAILLE PATTERN DOTS-1
ENCODING 10241
SWIDTH 392 0
DWIDTH 6 0
BBX 1 1 1 6
BITMAP
80
ENDCHAR
STARTCHAR BRAILLE PATTERN DOTS-2
ENCODING 10242
SWIDTH 392 0
DWIDTH 6 0
BBX 1 1 1 4
BITMAP
80
ENDCHAR
STARTCHAR BRAILLE PATTERN DOTS-12
ENCODING 10243
SWIDTH 392 0
DWIDTH 6 0
BBX 1 3 1 4
BITMAP
80
00
80
ENDCHAR
STARTCHAR BRAILLE PATTERN DOTS-3
ENCODING 10244
SWIDTH 392 0
DWIDTH 6 0
BBX 1 1 1 2
BITMAP
80
ENDCHAR
STARTCHAR BRAILLE PATTERN DOTS-13
ENCODING 10245
SWIDTH 392 0
DWIDTH 6 0
BBX 1 5 1 2
BITMAP
80
00
00
00
80
ENDCHAR
STARTCHAR BRAILLE PATTERN DOTS-23
ENCODING 10246
SWIDTH 392 0
DWIDTH 6 0
BBX 1 3 1 2
BITMAP
80
00
80
ENDCHAR
STARTCHAR BRAILLE PATTERN DOTS-123
ENCODING 10247
SWIDTH 392 0
DWIDTH 6 0
BBX 1 5 1 2
BITMAP
80
00
80
00
80
ENDCHAR
STARTCHAR BRAILLE PATTERN DOTS-4
ENCODING 10248
SWIDTH 392 0
DWIDTH 6 0
BBX 1 1 3 6
BITMAP
80
ENDCHAR
STARTCHAR BRAILLE PATTERN DOTS-14
ENCODING 10249
SWIDTH 392 0
DWIDTH 6 0
BBX 3 1 1 6
BITMAP
A0
ENDCHAR
STARTCHAR BRAILLE PATTERN DOTS-24
ENCODING 10250
SWIDTH 392 0
DWIDTH 6 0
BBX 3 3 1 4
BITMAP
20
00
80
ENDCHAR
STARTCHAR BRAILLE PATTERN DOTS-124
ENCODING 10251
SWIDTH 392 0
DWIDTH 6 0
BBX 3 3 1 4
BITMAP
A0
00
80
ENDCHAR
STARTCHAR BRAILLE PATTERN DOTS-34
ENCODING 10252
SWIDTH 392 0
DWIDTH 6 0
BBX 3 5 1 2
BITMAP
20
00
00
00
80
ENDCHAR
STARTCHAR BRAILLE PATTERN DOTS-134
ENCODING 10253
SWIDTH 392 0
DWIDTH 6 0
BBX 3 5 1 2
BITMAP
A0
00
00
00
80
ENDCHAR
STARTCHAR BRAILLE PATTERN DOTS-234
ENCODING 10254
SWIDTH 392 0
DWIDTH 6 0
BBX 3 5 1 2
BITMAP
20
00
80
00
80
ENDCHAR
STARTCHAR BRAILLE PATTERN DOTS-1234
ENCODING 10255
SWIDTH 392 0
DWIDTH 6 0
BBX 3 5 1 2
BITMAP
A0
00
80
00
80
ENDCHAR
STARTCHAR BRAILLE PATTERN DOTS-5
ENCODING 10256
SWIDTH 392 0
DWIDTH 6 0
BBX 1 1 3 4
BITMAP
80
ENDCHAR
STARTCHAR BRAILLE PATTERN DOTS-15
ENCODING 10257
SWIDTH 392 0
DWIDTH 6 0
BBX 3 3 1 4
BITMAP
80
00
20
ENDCHAR
STARTCHAR BRAILLE PATTERN DOTS-25
ENCODING 10258
SWIDTH 392 0
DWIDTH 6 0
BBX 3 1 1 4
BITMAP
A0
ENDCHAR
STARTCHAR BRAILLE PATTERN DOTS-125
ENCODING 10259
SWIDTH 392 0
DWIDTH 6 0
BBX 3 3 1 4
BITMAP
80
00
A0
ENDCHAR
STARTCHAR BRAILLE PATTERN DOTS-35
ENCODING 10260
SWIDTH 392 0
DWIDTH 6 0
BBX 3 3 1 2
BITMAP
20
00
80
ENDCHAR
STARTCHAR BRAILLE PATTERN DOTS-135
ENCODING 10261
SWIDTH 392 0
DWIDTH 6 0
BBX 3 5 1 2
BITMAP
80
00
20
00
80
ENDCHAR
STARTCHAR BRAILLE PATTERN DOTS-235
ENCODING 10262
SWIDTH 392 0
DWIDTH 6 0
BBX 3 3 1 2
BITMAP
A0
00
80
ENDCHAR
STARTCHAR BRAILLE PATTERN DOTS-1235
ENCODING 10263
SWIDTH 392 0
DWIDTH 6 0
BBX 3 5 1 2
BITMAP
80
00
A0
00
80
ENDCHAR
STARTCHAR BRAILLE PATTERN DOTS-45
ENCODING 10264
SWIDTH 392 0
DWIDTH 6 0
BBX 1 3 3 4
BITMAP
80
00
80
ENDCHAR
STARTCHAR BRAILLE PATTERN DOTS-145
ENCODING 10265
SWIDTH 392 0
DWIDTH 6 0
BBX 3 3 1 4
BITMAP
A0
00
20
ENDCHAR
STARTCHAR BRAILLE PATTERN DOTS-245
ENCODING 10266
SWIDTH 392 0
DWIDTH 6 0
BBX 3 3 1 4
BITMAP
20
00
A0
ENDCHAR
STARTCHAR BRAILLE PATTERN DOTS-1245
ENCODING 10267
SWIDTH 392 0
DWIDTH 6 0
BBX 3 3 1 4
BITMAP
A0
00
A0
ENDCHAR
STARTCHAR BRAILLE PATTERN DOTS-345
ENCODING 10268
SWIDTH 392 0
DWIDTH 6 0
BBX 3 5 1 2
BITMAP
20
00
20
00
80
ENDCHAR
STARTCHAR BRAILLE PATTERN DOTS-1345
ENCODING 10269
SWIDTH 392 0
DWIDTH 6 0
BBX 3 5 1 2
BITMAP
A0
00
20
00
80
ENDCHAR
STARTCHAR BRAILLE PATTERN DOTS-2345
ENCODING 10270
SWIDTH 392 0
DWIDTH 6 0
BBX 3 5 1 2
BITMAP
20
00
A0
00
80
ENDCHAR
STARTCHAR BRAILLE PATTERN DOTS-12345
ENCODING 10271
SWIDTH 392 0
DWIDTH 6 0
BBX 3 5 1 2
BITMAP
A0
00
A0
00
80
ENDCHAR
STARTCHAR BRAILLE PATTERN DOTS-6
ENCODING 10272
SWIDTH 392 0
DWIDTH 6 0
BBX 1 1 3 2
BITMAP
80
ENDCHAR
STARTCHAR BRAILLE PATTERN DOTS-16
ENCODING 10273
SWIDTH 392 0
DWIDTH 6 0
BBX 3 5 1 2
BITMAP
80
00
00
00
20
ENDCHAR
STARTCHAR BRAILLE PATTERN DOTS-26
ENCODING 10274
SWIDTH 392 0
DWIDTH 6 0
BBX 3 3 1 2
BITMAP
80
00
20
ENDCHAR
STARTCHAR BRAILLE PATTERN DOTS-126
ENCODING 10275
SWIDTH 392 0
DWIDTH 6 0
BBX 3 5 1 2
BITMAP
80
00
80
00
20
ENDCHAR
STARTCHAR BRAILLE PATTERN DOTS-36
ENCODING 10276
SWIDTH 392 0
DWIDTH 6 0
BBX 3 1 1 2
BITMAP
A0
ENDCHAR
STARTCHAR BRAILLE PATTERN DOTS-136
ENCODING 10277
SWIDTH 392 0
DWIDTH 6 0
BBX 3 5 1 2
BITMAP
80
00
00
00
A0
ENDCHAR
STARTCHAR BRAILLE PATTERN DOTS-236
ENCODING 10278
SWIDTH 392 0
DWIDTH 6 0
BBX 3 3 1 2
BITMAP
80
00
A0
ENDCHAR
STARTCHAR BRAILLE PATTERN DOTS-1236
ENCODING 10279
SWIDTH 392 0
DWIDTH 6 0
BBX 3 5 1 2
BITMAP
80
00
80
00
A0
ENDCHAR
STARTCHAR BRAILLE PATTERN DOTS-46
ENCODING 10280
SWIDTH 392 0
DWIDTH 6 0
BBX 1 5 3 2
BITMAP
80
00
00
00
80
ENDCHAR
STARTCHAR BRAILLE PATTERN DOTS-146
ENCODING 10281
SWIDTH 392 0
DWIDTH 6 0
BBX 3 5 1 2
BITMAP
A0
00
00
00
20
ENDCHAR
STARTCHAR BRAILLE PATTERN DOTS-246
ENCODING 10282
SWIDTH 392 0
DWIDTH 6 0
BBX 3 5 1 2
BITMAP
20
00
80
00
20
ENDCHAR
STARTCHAR BRAILLE PATTERN DOTS-1246
ENCODING 10283
SWIDTH 392 0
DWIDTH 6 0
BBX 3 5 1 2
BITMAP
A0
00
80
00
20
ENDCHAR
STARTCHAR BRAILLE PATTERN DOTS-346
ENCODING 10284
SWIDTH 392 0
DWIDTH 6 0
BBX 3 5 1 2
BITMAP
20
00
00
00
A0
ENDCHAR
STARTCHAR BRAILLE PATTERN DOTS-1346
ENCODING 10285
SWIDTH 392 0
DWIDTH 6 0
BBX 3 5 1 2
BITMAP
A0
00
00
00
A0
ENDCHAR
STARTCHAR BRAILLE PATTERN DOTS-2346
ENCODING 10286
SWIDTH 392 0
DWIDTH 6 0
BBX 3 5 1 2
BITMAP
20
00
80
00
A0
ENDCHAR
STARTCHAR BRAILLE PATTERN DOTS-12346
ENCODING 10287
SWIDTH 392 0
DWIDTH 6 0
BBX 3 5 1 2
BITMAP
A0
00
80
00
A0
ENDCHAR
STARTCHAR BRAILLE PATTERN DOTS-56
ENCODING 10288
SWIDTH 392 0
DWIDTH 6 0
BBX 1 3 3 2
BITMAP
80
00
80
ENDCHAR
STARTCHAR BRAILLE PATTERN DOTS-156
ENCODING 10289
SWIDTH 392 0
DWIDTH 6 0
BBX 3 5 1 2
BITMAP
80
00
20
00
20
ENDCHAR
STARTCHAR BRAILLE PATTERN DOTS-256
ENCODING 10290
SWIDTH 392 0
DWIDTH 6 0
BBX 3 3 1 2
BITMAP
A0
00
20
ENDCHAR
STARTCHAR BRAILLE PATTERN DOTS-1256
ENCODING 10291
SWIDTH 392 0
DWIDTH 6 0
BBX 3 5 1 2
BITMAP
80
00
A0
00
20
ENDCHAR
STARTCHAR BRAILLE PATTERN DOTS-356
ENCODING 10292
SWIDTH 392 0
DWIDTH 6 0
BBX 3 3 1 2
BITMAP
20
00
A0
ENDCHAR
STARTCHAR BRAILLE PATTERN DOTS-1356
ENCODING 10293
SWIDTH 392 0
DWIDTH 6 0
BBX 3 5 1 2
BITMAP
80
00
20
00
A0
ENDCHAR
STARTCHAR BRAILLE PATTERN DOTS-2356
ENCODING 10294
SWIDTH 392 0
DWIDTH 6 0
BBX 3 3 1 2
BITMAP
A0
00
A0
ENDCHAR
STARTCHAR BRAILLE PATTERN DOTS-12356
ENCODING 10295
SWIDTH 392 0
DWIDTH 6 0
BBX 3 5 1 2
BITMAP
80
00
A0
00
A0
ENDCHAR
STARTCHAR BRAILLE PATTERN DOTS-456
ENCODING 10296
SWIDTH 392 0
DWIDTH 6 0
BBX 1 5 3 2
BITMAP
80
00
80
00
80
ENDCHAR
STARTCHAR BRAILLE PATTERN DOTS-1456
ENCODING 10297
SWIDTH 392 0
DWIDTH 6 0
BBX 3 5 1 2
BITMAP
A0
00
20
00
20
ENDCHAR
STARTCHAR BRAILLE PATTERN DOTS-2456
ENCODING 10298
SWIDTH 392 0
DWIDTH 6 0
BBX 3 5 1 2
BITMAP
20
00
A0
00
20
ENDCHAR
STARTCHAR BRAILLE PATTERN DOTS-12456
ENCODING 10299
SWIDTH 392 0
DWIDTH 6 0
BBX 3 5 1 2
BITMAP
A0
00
A0
00
20
ENDCHAR
STARTCHAR BRAILLE PATTERN DOTS-3456
ENCODING 10300
SWIDTH 392 0
DWIDTH 6 0
BBX 3 5 1 2
BITMAP
20
00
20
00
A0
ENDCHAR
STARTCHAR BRAILLE PATTERN DOTS-13456
ENCODING 10301
SWIDTH 392 0
DWIDTH 6 0
BBX 3 5 1 2
BITMAP
A0
00
20
00
A0
ENDCHAR
STARTCHAR BRAILLE PATTERN DOTS-23456
ENCODING 10302
SWIDTH 392 0
DWIDTH 6 0
BBX 3 5 1 2
BITMAP
20
00
A0
00
A0
ENDCHAR
STARTCHAR BRAILLE PATTERN DOTS-123456
ENCODING 10303
SWIDTH 392 0
DWIDTH 6 0
BBX 3 5 1 2
BITMAP
A0
00
A0
00
A0
ENDCHAR
STARTCHAR BRAILLE PATTERN DOTS-7
ENCODING 10304
SWIDTH 392 0
DWIDTH 6 0
BBX 1 1 1 0
BITMAP
80
ENDCHAR
STARTCHAR BRAILLE PATTERN DOTS-17
ENCODING 10305
SWIDTH 392 0
DWIDTH 6 0
BBX 1 7 1 0
BITMAP
80
00
00
00
00
00
80
ENDCHAR
STARTCHAR BRAILLE PATTERN DOTS-27
ENCODING 10306
SWIDTH 392 0
DWIDTH 6 0
BBX 1 5 1 0
BITMAP
80
00
00
00
80
ENDCHAR
STARTCHAR BRAILLE PATTERN DOTS-127
ENCODING 10307
SWIDTH 392 0
DWIDTH 6 0
BBX 1 7 1 0
BITMAP
80
00
80
00
00
00
80
ENDCHAR
STARTCHAR BRAILLE PATTERN DOTS-37
ENCODING 10308
SWIDTH 392 0
DWIDTH 6 0
BBX 1 3 1 0
BITMAP
80
00
80
ENDCHAR
STARTCHAR BRAILLE PATTERN DOTS-137
ENCODING 10309
SWIDTH 392 0
DWIDTH 6 0
BBX 1 7 1 0
BITMAP
80
00
00
00
80
00
80
ENDCHAR
STARTCHAR BRAILLE PATTERN DOTS-237
ENCODING 10310
SWIDTH 392 0
DWIDTH 6 0
BBX 1 5 1 0
BITMAP
80
00
80
00
80
ENDCHAR
STARTCHAR BRAILLE PATTERN DOTS-1237
ENCODING 10311
SWIDTH 392 0
DWIDTH 6 0
BBX 1 7 1 0
BITMAP
80
00
80
00
80
00
80
ENDCHAR
STARTCHAR BRAILLE PATTERN DOTS-47
ENCODING 10312
SWIDTH 392 0
DWIDTH 6 0
BBX 3 7 1 0
BITMAP
20
00
00
00
00
00
80
ENDCHAR
STARTCHAR BRAILLE PATTERN DOTS-147
ENCODING 10313
SWIDTH 392 0
DWIDTH 6 0
BBX 3 7 1 0
BITMAP
A0
00
00
00
00
00
80
ENDCHAR
STARTCHAR BRAILLE PATTERN DOTS-247
ENCODING 10314
SWIDTH 392 0
DWIDTH 6 0
BBX 3 7 1 0
BITMAP
20
00
80
00
00
00
80
ENDCHAR
STARTCHAR BRAILLE PATTERN DOTS-1247
ENCODING 10315
SWIDTH 392 0
DWIDTH 6 0
BBX 3 7 1 0
BITMAP
A0
00
80
00
00
00
80
ENDCHAR
STARTCHAR BRAILLE PATTERN DOTS-347
ENCODING 10316
SWIDTH 392 0
DWIDTH 6 0
BBX 3 7 1 0
BITMAP
20
00
00
00
80
00
80
ENDCHAR
STARTCHAR BRAILLE PATTERN DOTS-1347
ENCODING 10317
SWIDTH 392 0
DWIDTH 6 0
BBX 3 7 1 0
BITMAP
A0
00
00
00
80
00
80
ENDCHAR
STARTCHAR BRAILLE PATTERN DOTS-2347
ENCODING 10318
SWIDTH 392 0
DWIDTH 6 0
BBX 3 7 1 0
BITMAP
20
00
80
00
80
00
80
ENDCHAR
STARTCHAR BRAILLE PATTERN DOTS-12347
ENCODING 10319
SWIDTH 392 0
DWIDTH 6 0
BBX 3 7 1 0
BITMAP
A0
00
80
00
80
00
80
ENDCHAR
STARTCHAR BRAILLE PATTERN DOTS-57
ENCODING 10320
SWIDTH 392 0
DWIDTH 6 0
BBX 3 5 1 0
BITMAP
20
00
00
00
80
ENDCHAR
STARTCHAR BRAILLE PATTERN DOTS-157
ENCODING 10321
SWIDTH 392 0
DWIDTH 6 0
BBX 3 7 1 0
BITMAP
80
00
20
00
00
00
80
ENDCHAR
STARTCHAR BRAILLE PATTERN DOTS-257
ENCODING 10322
SWIDTH 392 0
DWIDTH 6 0
BBX 3 5 1 0
BITMAP
A0
00
00
00
80
ENDCHAR
STARTCHAR BRAILLE PATTERN DOTS-1257
ENCODING 10323
SWIDTH 392 0
DWIDTH 6 0
BBX 3 7 1 0
BITMAP
80
00
A0
00
00
00
80
ENDCHAR
STARTCHAR BRAILLE PATTERN DOTS-357
ENCODING 10324
SWIDTH 392 0
DWIDTH 6 0
BBX 3 5 1 0
BITMAP
20
00
80
00
80
ENDCHAR
STARTCHAR BRAILLE PATTERN DOTS-1357
ENCODING 10325
SWIDTH 392 0
DWIDTH 6 0
BBX 3 7 1 0
BITMAP
80
00
20
00
80
00
80
ENDCHAR
STARTCHAR BRAILLE PATTERN DOTS-2357
ENCODING 10326
SWIDTH 392 0
DWIDTH 6 0
BBX 3 5 1 0
BITMAP
A0
00
80
00
80
ENDCHAR
STARTCHAR BRAILLE PATTERN DOTS-12357
ENCODING 10327
SWIDTH 392 0
DWIDTH 6 0
BBX 3 7 1 0
BITMAP
80
00
A0
00
80
00
80
ENDCHAR
STARTCHAR BRAILLE PATTERN DOTS-457
ENCODING 10328
SWIDTH 392 0
DWIDTH 6 0
BBX 3 7 1 0
BITMAP
20
00
20
00
00
00
80
ENDCHAR
STARTCHAR BRAILLE PATTERN DOTS-1457
ENCODING 10329
SWIDTH 392 0
DWIDTH 6 0
BBX 3 7 1 0
BITMAP
A0
00
20
00
00
00
80
ENDCHAR
STARTCHAR BRAILLE PATTERN DOTS-2457
ENCODING 10330
SWIDTH 392 0
DWIDTH 6 0
BBX 3 7 1 0
BITMAP
20
00
A0
00
00
00
80
ENDCHAR
STARTCHAR BRAILLE PATTERN DOTS-12457
ENCODING 10331
SWIDTH 392 0
DWIDTH 6 0
BBX 3 7 1 0
BITMAP
A0
00
A0
00
00
00
80
ENDCHAR
STARTCHAR BRAILLE PATTERN DOTS-3457
ENCODING 10332
SWIDTH 392 0
DWIDTH 6 0
BBX 3 7 1 0
BITMAP
20
00
20
00
80
00
80
ENDCHAR
STARTCHAR BRAILLE PATTERN DOTS-13457
ENCODING 10333
SWIDTH 392 0
DWIDTH 6 0
BBX 3 7 1 0
BITMAP
A0
00
20
00
80
00
80
ENDCHAR
STARTCHAR BRAILLE PATTERN DOTS-23457
ENCODING 10334
SWIDTH 392 0
DWIDTH 6 0
BBX 3 7 1 0
BITMAP
20
00
A0
00
80
00
80
ENDCHAR
STARTCHAR BRAILLE PATTERN DOTS-123457
ENCODING 10335
SWIDTH 392 0
DWIDTH 6 0
BBX 3 7 1 0
BITMAP
A0
00
A0
00
80
00
80
ENDCHAR
STARTCHAR BRAILLE PATTERN DOTS-67
ENCODING 10336
SWIDTH 392 0
DWIDTH 6 0
BBX 3 3 1 0
BITMAP
20
00
80
ENDCHAR
STARTCHAR BRAILLE PATTERN DOTS-167
ENCODING 10337
SWIDTH 392 0
DWIDTH 6 0
BBX 3 7 1 0
BITMAP
80
00
00
00
20
00
80
ENDCHAR
STARTCHAR BRAILLE PATTERN DOTS-267
ENCODING 10338
SWIDTH 392 0
DWIDTH 6 0
BBX 3 5 1 0
BITMAP
80
00
20
00
80
ENDCHAR
STARTCHAR BRAILLE PATTERN DOTS-1267
ENCODING 10339
SWIDTH 392 0
DWIDTH 6 0
BBX 3 7 1 0
BITMAP
80
00
80
00
20
00
80
ENDCHAR
STARTCHAR BRAILLE PATTERN DOTS-367
ENCODING 10340
SWIDTH 392 0
DWIDTH 6 0
BBX 3 3 1 0
BITMAP
A0
00
80
ENDCHAR
STARTCHAR BRAILLE PATTERN DOTS-1367
ENCODING 10341
SWIDTH 392 0
DWIDTH 6 0
BBX 3 7 1 0
BITMAP
80
00
00
00
A0
00
80
ENDCHAR
STARTCHAR BRAILLE PATTERN DOTS-2367
ENCODING 10342
SWIDTH 392 0
DWIDTH 6 0
BBX 3 5 1 0
BITMAP
80
00
A0
00
80
ENDCHAR
STARTCHAR BRAILLE PATTERN DOTS-12367
ENCODING 10343
SWIDTH 392 0
DWIDTH 6 0
BBX 3 7 1 0
BITMAP
80
00
80
00
A0
00
80
ENDCHAR
STARTCHAR BRAILLE PATTERN DOTS-467
ENCODING 10344
SWIDTH 392 0
DWIDTH 6 0
BBX 3 7 1 0
BITMAP
20
00
00
00
20
00
80
ENDCHAR
STARTCHAR BRAILLE PATTERN DOTS-1467
ENCODING 10345
SWIDTH 392 0
DWIDTH 6 0
BBX 3 7 1 0
BITMAP
A0
00
00
00
20
00
80
ENDCHAR
STARTCHAR BRAILLE PATTERN DOTS-2467
ENCODING 10346
SWIDTH 392 0
DWIDTH 6 0
BBX 3 7 1 0
BITMAP
20
00
80
00
20
00
80
ENDCHAR
STARTCHAR BRAILLE PATTERN DOTS-12467
ENCODING 10347
SWIDTH 392 0
DWIDTH 6 0
BBX 3 7 1 0
BITMAP
A0
00
80
00
20
00
80
ENDCHAR
STARTCHAR BRAILLE PATTERN DOTS-3467
ENCODING 10348
SWIDTH 392 0
DWIDTH 6 0
BBX 3 7 1 0
BITMAP
20
00
00
00
A0
00
80
ENDCHAR
STARTCHAR BRAILLE PATTERN DOTS-13467
ENCODING 10349
SWIDTH 392 0
DWIDTH 6 0
BBX 3 7 1 0
BITMAP
A0
00
00
00
A0
00
80
ENDCHAR
STARTCHAR BRAILLE PATTERN DOTS-23467
ENCODING 10350
SWIDTH 392 0
DWIDTH 6 0
BBX 3 7 1 0
BITMAP
20
00
80
00
A0
00
80
ENDCHAR
STARTCHAR BRAILLE PATTERN DOTS-123467
ENCODING 10351
SWIDTH 392 0
DWIDTH 6 0
BBX 3 7 1 0
BITMAP
A0
00
80
00
A0
00
80
ENDCHAR
STARTCHAR BRAILLE PATTERN DOTS-567
ENCODING 10352
SWIDTH 392 0
DWIDTH 6 0
BBX 3 5 1 0
BITMAP
20
00
20
00
80
ENDCHAR
STARTCHAR BRAILLE PATTERN DOTS-1567
ENCODING 10353
SWIDTH 392 0
DWIDTH 6 0
BBX 3 7 1 0
BITMAP
80
00
20
00
20
00
80
ENDCHAR
STARTCHAR BRAILLE PATTERN DOTS-2567
ENCODING 10354
SWIDTH 392 0
DWIDTH 6 0
BBX 3 5 1 0
BITMAP
A0
00
20
00
80
ENDCHAR
STARTCHAR BRAILLE PATTERN DOTS-12567
ENCODING 10355
SWIDTH 392 0
DWIDTH 6 0
BBX 3 7 1 0
BITMAP
80
00
A0
00
20
00
80
ENDCHAR
STARTCHAR BRAILLE PATTERN DOTS-3567
ENCODING 10356
SWIDTH 392 0
DWIDTH 6 0
BBX 3 5 1 0
BITMAP
20
00
A0
00
80
ENDCHAR
STARTCHAR BRAILLE PATTERN DOTS-13567
ENCODING 10357
SWIDTH 392 0
DWIDTH 6 0
BBX 3 7 1 0
BITMAP
80
00
20
00
A0
00
80
ENDCHAR
STARTCHAR BRAILLE PATTERN DOTS-23567
ENCODING 10358
SWIDTH 392 0
DWIDTH 6 0
BBX 3 5 1 0
BITMAP
A0
00
A0
00
80
ENDCHAR
STARTCHAR BRAILLE PATTERN DOTS-123567
ENCODING 10359
SWIDTH 392 0
DWIDTH 6 0
BBX 3 7 1 0
BITMAP
80
00
A0
00
A0
00
80
ENDCHAR
STARTCHAR BRAILLE PATTERN DOTS-4567
ENCODING 10360
SWIDTH 392 0
DWIDTH 6 0
BBX 3 7 1 0
BITMAP
20
00
20
00
20
00
80
ENDCHAR
STARTCHAR BRAILLE PATTERN DOTS-14567
ENCODING 10361
SWIDTH 392 0
DWIDTH 6 0
BBX 3 7 1 0
BITMAP
A0
00
20
00
20
00
80
ENDCHAR
STARTCHAR BRAILLE PATTERN DOTS-24567
ENCODING 10362
SWIDTH 392 0
DWIDTH 6 0
BBX 3 7 1 0
BITMAP
20
00
A0
00
20
00
80
ENDCHAR
STARTCHAR BRAILLE PATTERN DOTS-124567
ENCODING 10363
SWIDTH 392 0
DWIDTH 6 0
BBX 3 7 1 0
BITMAP
A0
00
A0
00
20
00
80
ENDCHAR
STARTCHAR BRAILLE PATTERN DOTS-34567
ENCODING 10364
SWIDTH 392 0
DWIDTH 6 0
BBX 3 7 1 0
BITMAP
20
00
20
00
A0
00
80
ENDCHAR
STARTCHAR BRAILLE PATTERN DOTS-134567
ENCODING 10365
SWIDTH 392 0
DWIDTH 6 0
BBX 3 7 1 0
BITMAP
A0
00
20
00
A0
00
80
ENDCHAR
STARTCHAR BRAILLE PATTERN DOTS-234567
ENCODING 10366
SWIDTH 392 0
DWIDTH 6 0
BBX 3 7 1 0
BITMAP
20
00
A0
00
A0
00
80
ENDCHAR
STARTCHAR BRAILLE PATTERN DOTS-1234567
ENCODING 10367
SWIDTH 392 0
DWIDTH 6 0
BBX 3 7 1 0
BITMAP
A0
00
A0
00
A0
00
80
ENDCHAR
STARTCHAR BRAILLE PATTERN DOTS-8
ENCODING 10368
SWIDTH 392 0
DWIDTH 6 0
BBX 1 1 3 0
BITMAP
80
ENDCHAR
STARTCHAR BRAILLE PATTERN DOTS-18
ENCODING 10369
SWIDTH 392 0
DWIDTH 6 0
BBX 3 7 1 0
BITMAP
80
00
00
00
00
00
20
ENDCHAR
STARTCHAR BRAILLE PATTERN DOTS-28
ENCODING 10370
SWIDTH 392 0
DWIDTH 6 0
BBX 3 5 1 0
BITMAP
80
00
00
00
20
ENDCHAR
STARTCHAR BRAILLE PATTERN DOTS-128
ENCODING 10371
SWIDTH 392 0
DWIDTH 6 0
BBX 3 7 1 0
BITMAP
80
00
80
00
00
00
20
ENDCHAR
STARTCHAR BRAILLE PATTERN DOTS-38
ENCODING 10372
SWIDTH 392 0
DWIDTH 6 0
BBX 3 3 1 0
BITMAP
80
00
20
ENDCHAR
STARTCHAR BRAILLE PATTERN DOTS-138
ENCODING 10373
SWIDTH 392 0
DWIDTH 6 0
BBX 3 7 1 0
BITMAP
80
00
00
00
80
00
20
ENDCHAR
STARTCHAR BRAILLE PATTERN DOTS-238
ENCODING 10374
SWIDTH 392 0
DWIDTH 6 0
BBX 3 5 1 0
BITMAP
80
00
80
00
20
ENDCHAR
STARTCHAR BRAILLE PATTERN DOTS-1238
ENCODING 10375
SWIDTH 392 0
DWIDTH 6 0
BBX 3 7 1 0
BITMAP
80
00
80
00
80
00
20
ENDCHAR
STARTCHAR BRAILLE PATTERN DOTS-48
ENCODING 10376
SWIDTH 392 0
DWIDTH 6 0
BBX 1 7 3 0
BITMAP
80
00
00
00
00
00
80
ENDCHAR
STARTCHAR BRAILLE PATTERN DOTS-148
ENCODING 10377
SWIDTH 392 0
DWIDTH 6 0
BBX 3 7 1 0
BITMAP
A0
00
00
00
00
00
20
ENDCHAR
STARTCHAR BRAILLE PATTERN DOTS-248
ENCODING 10378
SWIDTH 392 0
DWIDTH 6 0
BBX 3 7 1 0
BITMAP
20
00
80
00
00
00
20
ENDCHAR
STARTCHAR BRAILLE PATTERN DOTS-1248
ENCODING 10379
SWIDTH 392 0
DWIDTH 6 0
BBX 3 7 1 0
BITMAP
A0
00
80
00
00
00
20
ENDCHAR
STARTCHAR BRAILLE PATTERN DOTS-348
ENCODING 10380
SWIDTH 392 0
DWIDTH 6 0
BBX 3 7 1 0
BITMAP
20
00
00
00
80
00
20
ENDCHAR
STARTCHAR BRAILLE PATTERN DOTS-1348
ENCODING 10381
SWIDTH 392 0
DWIDTH 6 0
BBX 3 7 1 0
BITMAP
A0
00
00
00
80
00
20
ENDCHAR
STARTCHAR BRAILLE PATTERN DOTS-2348
ENCODING 10382
SWIDTH 392 0
DWIDTH 6 0
BBX 3 7 1 0
BITMAP
20
00
80
00
80
00
20
ENDCHAR
STARTCHAR BRAILLE PATTERN DOTS-12348
ENCODING 10383
SWIDTH 392 0
DWIDTH 6 0
BBX 3 7 1 0
BITMAP
A0
00
80
00
80
00
20
ENDCHAR
STARTCHAR BRAILLE PATTERN DOTS-58
ENCODING 10384
SWIDTH 392 0
DWIDTH 6 0
BBX 1 5 3 0
BITMAP
80
00
00
00
80
ENDCHAR
STARTCHAR BRAILLE PATTERN DOTS-158
ENCODING 10385
SWIDTH 392 0
DWIDTH 6 0
BBX 3 7 1 0
BITMAP
80
00
20
00
00
00
20
ENDCHAR
STARTCHAR BRAILLE PATTERN DOTS-258
ENCODING 10386
SWIDTH 392 0
DWIDTH 6 0
BBX 3 5 1 0
BITMAP
A0
00
00
00
20
ENDCHAR
STARTCHAR BRAILLE PATTERN DOTS-1258
ENCODING 10387
SWIDTH 392 0
DWIDTH 6 0
BBX 3 7 1 0
BITMAP
80
00
A0
00
00
00
20
ENDCHAR
STARTCHAR BRAILLE PATTERN DOTS-358
ENCODING 10388
SWIDTH 392 0
DWIDTH 6 0
BBX 3 5 1 0
BITMAP
20
00
80
00
20
ENDCHAR
STARTCHAR BRAILLE PATTERN DOTS-1358
ENCODING 10389
SWIDTH 392 0
DWIDTH 6 0
BBX 3 7 1 0
BITMAP
80
00
20
00
80
00
20
ENDCHAR
STARTCHAR BRAILLE PATTERN DOTS-2358
ENCODING 10390
SWIDTH 392 0
DWIDTH 6 0
BBX 3 5 1 0
BITMAP
A0
00
80
00
20
ENDCHAR
STARTCHAR BRAILLE PATTERN DOTS-12358
ENCODING 10391
SWIDTH 392 0
DWIDTH 6 0
BBX 3 7 1 0
BITMAP
80
00
A0
00
80
00
20
ENDCHAR
STARTCHAR BRAILLE PATTERN DOTS-458
ENCODING 10392
SWIDTH 392 0
DWIDTH 6 0
BBX 1 7 3 0
BITMAP
80
00
80
00
00
00
80
ENDCHAR
STARTCHAR BRAILLE PATTERN DOTS-1458
ENCODING 10393
SWIDTH 392 0
DWIDTH 6 0
BBX 3 7 1 0
BITMAP
A0
00
20
00
00
00
20
ENDCHAR
STARTCHAR BRAILLE PATTERN DOTS-2458
ENCODING 10394
SWIDTH 392 0
DWIDTH 6 0
BBX 3 7 1 0
BITMAP
20
00
A0
00
00
00
20
ENDCHAR
STARTCHAR BRAILLE PATTERN DOTS-12458
ENCODING 10395
SWIDTH 392 0
DWIDTH 6 0
BBX 3 7 1 0
BITMAP
A0
00
A0
00
00
00
20
ENDCHAR
STARTCHAR BRAILLE PATTERN DOTS-3458
ENCODING 10396
SWIDTH 392 0
DWIDTH 6 0
BBX 3 7 1 0
BITMAP
20
00
20
00
80
00
20
ENDCHAR
STARTCHAR BRAILLE PATTERN DOTS-13458
ENCODING 10397
SWIDTH 392 0
DWIDTH 6 0
BBX 3 7 1 0
BITMAP
A0
00
20
00
80
00
20
ENDCHAR
STARTCHAR BRAILLE PATTERN DOTS-23458
ENCODING 10398
SWIDTH 392 0
DWIDTH 6 0
BBX 3 7 1 0
BITMAP
20
00
A0
00
80
00
20
ENDCHAR
STARTCHAR BRAILLE PATTERN DOTS-123458
ENCODING 10399
SWIDTH 392 0
DWIDTH 6 0
BBX 3 7 1 0
BITMAP
A0
00
A0
00
80
00
20
ENDCHAR
STARTCHAR BRAILLE PATTERN DOTS-68
ENCODING 10400
SWIDTH 392 0
DWIDTH 6 0
BBX 1 3 3 0
BITMAP
80
00
80
ENDCHAR
STARTCHAR BRAILLE PATTERN DOTS-168
ENCODING 10401
SWIDTH 392 0
DWIDTH 6 0
BBX 3 7 1 0
BITMAP
80
00
00
00
20
00
20
ENDCHAR
STARTCHAR BRAILLE PATTERN DOTS-268
ENCODING 10402
SWIDTH 392 0
DWIDTH 6 0
BBX 3 5 1 0
BITMAP
80
00
20
00
20
ENDCHAR
STARTCHAR BRAILLE PATTERN DOTS-1268
ENCODING 10403
SWIDTH 392 0
DWIDTH 6 0
BBX 3 7 1 0
BITMAP
80
00
80
00
20
00
20
ENDCHAR
STARTCHAR BRAILLE PATTERN DOTS-368
ENCODING 10404
SWIDTH 392 0
DWIDTH 6 0
BBX 3 3 1 0
BITMAP
A0
00
20
ENDCHAR
STARTCHAR BRAILLE PATTERN DOTS-1368
ENCODING 10405
SWIDTH 392 0
DWIDTH 6 0
BBX 3 7 1 0
BITMAP
80
00
00
00
A0
00
20
ENDCHAR
STARTCHAR BRAILLE PATTERN DOTS-2368
ENCODING 10406
SWIDTH 392 0
DWIDTH 6 0
BBX 3 5 1 0
BITMAP
80
00
A0
00
20
ENDCHAR
STARTCHAR BRAILLE PATTERN DOTS-12368
ENCODING 10407
SWIDTH 392 0
DWIDTH 6 0
BBX 3 7 1 0
BITMAP
80
00
80
00
A0
00
20
ENDCHAR
STARTCHAR BRAILLE PATTERN DOTS-468
ENCODING 10408
SWIDTH 392 0
DWIDTH 6 0
BBX 1 7 3 0
BITMAP
80
00
00
00
80
00
80
ENDCHAR
STARTCHAR BRAILLE PATTERN DOTS-1468
ENCODING 10409
SWIDTH 392 0
DWIDTH 6 0
BBX 3 7 1 0
BITMAP
A0
00
00
00
20
00
20
ENDCHAR
STARTCHAR BRAILLE PATTERN DOTS-2468
ENCODING 10410
SWIDTH 392 0
DWIDTH 6 0
BBX 3 7 1 0
BITMAP
20
00
80
00
20
00
20
ENDCHAR
STARTCHAR BRAILLE PATTERN DOTS-12468
ENCODING 10411
SWIDTH 392 0
DWIDTH 6 0
BBX 3 7 1 0
BITMAP
A0
00
80
00
20
00
20
ENDCHAR
STARTCHAR BRAILLE PATTERN DOTS-3468
ENCODING 10412
SWIDTH 392 0
DWIDTH 6 0
BBX 3 7 1 0
BITMAP
20
00
00
00
A0
00
20
ENDCHAR
STARTCHAR BRAILLE PATTERN DOTS-13468
ENCODING 10413
SWIDTH 392 0
DWIDTH 6 0
BBX 3 7 1 0
BITMAP
A0
00
00
00
A0
00
20
ENDCHAR
STARTCHAR BRAILLE PATTERN DOTS-23468
ENCODING 10414
SWIDTH 392 0
DWIDTH 6 0
BBX 3 7 1 0
BITMAP
20
00
80
00
A0
00
20
ENDCHAR
STARTCHAR BRAILLE PATTERN DOTS-123468
ENCODING 10415
SWIDTH 392 0
DWIDTH 6 0
BBX 3 7 1 0
BITMAP
A0
00
80
00
A0
00
20
ENDCHAR
STARTCHAR BRAILLE PATTERN DOTS-568
ENCODING 10416
SWIDTH 392 0
DWIDTH 6 0
BBX 1 5 3 0
BITMAP
80
00
80
00
80
ENDCHAR
STARTCHAR BRAILLE PATTERN DOTS-1568
ENCODING 10417
SWIDTH 392 0
DWIDTH 6 0
BBX 3 7 1 0
BITMAP
80
00
20
00
20
00
20
ENDCHAR
STARTCHAR BRAILLE PATTERN DOTS-2568
ENCODING 10418
SWIDTH 392 0
DWIDTH 6 0
BBX 3 5 1 0
BITMAP
A0
00
20
00
20
ENDCHAR
STARTCHAR BRAILLE PATTERN DOTS-12568
ENCODING 10419
SWIDTH 392 0
DWIDTH 6 0
BBX 3 7 1 0
BITMAP
80
00
A0
00
20
00
20
ENDCHAR
STARTCHAR BRAILLE PATTERN DOTS-3568
ENCODING 10420
SWIDTH 392 0
DWIDTH 6 0
BBX 3 5 1 0
BITMAP
20
00
A0
00
20
ENDCHAR
STARTCHAR BRAILLE PATTERN DOTS-13568
ENCODING 10421
SWIDTH 392 0
DWIDTH 6 0
BBX 3 7 1 0
BITMAP
80
00
20
00
A0
00
20
ENDCHAR
STARTCHAR BRAILLE PATTERN DOTS-23568
ENCODING 10422
SWIDTH 392 0
DWIDTH 6 0
BBX 3 5 1 0
BITMAP
A0
00
A0
00
20
ENDCHAR
STARTCHAR BRAILLE PATTERN DOTS-123568
ENCODING 10423
SWIDTH 392 0
DWIDTH 6 0
BBX 3 7 1 0
BITMAP
80
00
A0
00
A0
00
20
ENDCHAR
STARTCHAR BRAILLE PATTERN DOTS-4568
ENCODING 10424
SWIDTH 392 0
DWIDTH 6 0
BBX 1 7 3 0
BITMAP
80
00
80
00
80
00
80
ENDCHAR
STARTCHAR BRAILLE PATTERN DOTS-14568
ENCODING 10425
SWIDTH 392 0
DWIDTH 6 0
BBX 3 7 1 0
BITMAP
A0
00
20
00
20
00
20
ENDCHAR
STARTCHAR BRAILLE PATTERN DOTS-24568
ENCODING 10426
SWIDTH 392 0
DWIDTH 6 0
BBX 3 7 1 0
BITMAP
20
00
A0
00
20
00
20
ENDCHAR
STARTCHAR BRAILLE PATTERN DOTS-124568
ENCODING 10427
SWIDTH 392 0
DWIDTH 6 0
BBX 3 7 1 0
BITMAP
A0
00
A0
00
20
00
20
ENDCHAR
STARTCHAR BRAILLE PATTERN DOTS-34568
ENCODING 10428
SWIDTH 392 0
DWIDTH 6 0
BBX 3 7 1 0
BITMAP
20
00
20
00
A0
00
20
ENDCHAR
STARTCHAR BRAILLE PATTERN DOTS-134568
ENCODING 10429
SWIDTH 392 0
DWIDTH 6 0
BBX 3 7 1 0
BITMAP
A0
00
20
00
A0
00
20
ENDCHAR
STARTCHAR BRAILLE PATTERN DOTS-234568
ENCODING 10430
SWIDTH 392 0
DWIDTH 6 0
BBX 3 7 1 0
BITMAP
20
00
A0
00
A0
00
20
ENDCHAR
STARTCHAR BRAILLE PATTERN DOTS-1234568
ENCODING 10431
SWIDTH 392 0
DWIDTH 6 0
BBX 3 7 1 0
BITMAP
A0
00
A0
00
A0
00
20
ENDCHAR
STARTCHAR BRAILLE PATTERN DOTS-78
ENCODING 10432
SWIDTH 392 0
DWIDTH 6 0
BBX 3 1 1 0
BITMAP
A0
ENDCHAR
STARTCHAR BRAILLE PATTERN DOTS-178
ENCODING 10433
SWIDTH 392 0
DWIDTH 6 0
BBX 3 7 1 0
BITMAP
80
00
00
00
00
00
A0
ENDCHAR
STARTCHAR BRAILLE PATTERN DOTS-278
ENCODING 10434
SWIDTH 392 0
DWIDTH 6 0
BBX 3 5 1 0
BITMAP
80
00
00
00
A0
ENDCHAR
STARTCHAR BRAILLE PATTERN DOTS-1278
ENCODING 10435
SWIDTH 392 0
DWIDTH 6 0
BBX 3 7 1 0
BITMAP
80
00
80
00
00
00
A0
ENDCHAR
STARTCHAR BRAILLE PATTERN DOTS-378
ENCODING 10436
SWIDTH 392 0
DWIDTH 6 0
BBX 3 3 1 0
BITMAP
80
00
A0
ENDCHAR
STARTCHAR BRAILLE PATTERN DOTS-1378
ENCODING 10437
SWIDTH 392 0
DWIDTH 6 0
BBX 3 7 1 0
BITMAP
80
00
00
00
80
00
A0
ENDCHAR
STARTCHAR BRAILLE PATTERN DOTS-2378
ENCODING 10438
SWIDTH 392 0
DWIDTH 6 0
BBX 3 5 1 0
BITMAP
80
00
80
00
A0
ENDCHAR
STARTCHAR BRAILLE PATTERN DOTS-12378
ENCODING 10439
SWIDTH 392 0
DWIDTH 6 0
BBX 3 7 1 0
BITMAP
80
00
80
00
80
00
A0
ENDCHAR
STARTCHAR BRAILLE PATTERN DOTS-478
ENCODING 10440
SWIDTH 392 0
DWIDTH 6 0
BBX 3 7 1 0
BITMAP
20
00
00
00
00
00
A0
ENDCHAR
STARTCHAR BRAILLE PATTERN DOTS-1478
ENCODING 10441
SWIDTH 392 0
DWIDTH 6 0
BBX 3 7 1 0
BITMAP
A0
00
00
00
00
00
A0
ENDCHAR
STARTCHAR BRAILLE PATTERN DOTS-2478
ENCODING 10442
SWIDTH 392 0
DWIDTH 6 0
BBX 3 7 1 0
BITMAP
20
00
80
00
00
00
A0
ENDCHAR
STARTCHAR BRAILLE PATTERN DOTS-12478
ENCODING 10443
SWIDTH 392 0
DWIDTH 6 0
BBX 3 7 1 0
BITMAP
A0
00
80
00
00
00
A0
ENDCHAR
STARTCHAR BRAILLE PATTERN DOTS-3478
ENCODING 10444
SWIDTH 392 0
DWIDTH 6 0
BBX 3 7 1 0
BITMAP
20
00
00
00
80
00
A0
ENDCHAR
STARTCHAR BRAILLE PATTERN DOTS-13478
ENCODING 10445
SWIDTH 392 0
DWIDTH 6 0
BBX 3 7 1 0
BITMAP
A0
00
00
00
80
00
A0
ENDCHAR
STARTCHAR BRAILLE PATTERN DOTS-23478
ENCODING 10446
SWIDTH 392 0
DWIDTH 6 0
BBX 3 7 1 0
BITMAP
20
00
80
00
80
00
A0
ENDCHAR
STARTCHAR BRAILLE PATTERN DOTS-123478
ENCODING 10447
SWIDTH 392 0
DWIDTH 6 0
BBX 3 7 1 0
BITMAP
A0
00
80
00
80
00
A0
ENDCHAR
STARTCHAR BRAILLE PATTERN DOTS-578
ENCODING 10448
SWIDTH 392 0
DWIDTH 6 0
BBX 3 5 1 0
BITMAP
20
00
00
00
A0
ENDCHAR
STARTCHAR BRAILLE PATTERN DOTS-1578
ENCODING 10449
SWIDTH 392 0
DWIDTH 6 0
BBX 3 7 1 0
BITMAP
80
00
20
00
00
00
A0
ENDCHAR
STARTCHAR BRAILLE PATTERN DOTS-2578
ENCODING 10450
SWIDTH 392 0
DWIDTH 6 0
BBX 3 5 1 0
BITMAP
A0
00
00
00
A0
ENDCHAR
STARTCHAR BRAILLE PATTERN DOTS-12578
ENCODING 10451
SWIDTH 392 0
DWIDTH 6 0
BBX 3 7 1 0
BITMAP
80
00
A0
00
00
00
A0
ENDCHAR
STARTCHAR BRAILLE PATTERN DOTS-3578
ENCODING 10452
SWIDTH 392 0
DWIDTH 6 0
BBX 3 5 1 0
BITMAP
20
00
80
00
A0
ENDCHAR
STARTCHAR BRAILLE PATTERN DOTS-13578
ENCODING 10453
SWIDTH 392 0
DWIDTH 6 0
BBX 3 7 1 0
BITMAP
80
00
20
00
80
00
A0
ENDCHAR
STARTCHAR BRAILLE PATTERN DOTS-23578
ENCODING 10454
SWIDTH 392 0
DWIDTH 6 0
BBX 3 5 1 0
BITMAP
A0
00
80
00
A0
ENDCHAR
STARTCHAR BRAILLE PATTERN DOTS-123578
ENCODING 10455
SWIDTH 392 0
DWIDTH 6 0
BBX 3 7 1 0
BITMAP
80
00
A0
00
80
00
A0
ENDCHAR
STARTCHAR BRAILLE PATTERN DOTS-4578
ENCODING 10456
SWIDTH 392 0
DWIDTH 6 0
BBX 3 7 1 0
BITMAP
20
00
20
00
00
00
A0
ENDCHAR
STARTCHAR BRAILLE PATTERN DOTS-14578
ENCODING 10457
SWIDTH 392 0
DWIDTH 6 0
BBX 3 7 1 0
BITMAP
A0
00
20
00
00
00
A0
ENDCHAR
STARTCHAR BRAILLE PATTERN DOTS-24578
ENCODING 10458
SWIDTH 392 0
DWIDTH 6 0
BBX 3 7 1 0
BITMAP
20
00
A0
00
00
00
A0
ENDCHAR
STARTCHAR BRAILLE PATTERN DOTS-124578
ENCODING 10459
SWIDTH 392 0
DWIDTH 6 0
BBX 3 7 1 0
BITMAP
A0
00
A0
00
00
00
A0
ENDCHAR
STARTCHAR BRAILLE PATTERN DOTS-34578
ENCODING 10460
SWIDTH 392 0
DWIDTH 6 0
BBX 3 7 1 0
BITMAP
20
00
20
00
80
00
A0
ENDCHAR
STARTCHAR BRAILLE PATTERN DOTS-134578
ENCODING 10461
SWIDTH 392 0
DWIDTH 6 0
BBX 3 7 1 0
BITMAP
A0
00
20
00
80
00
A0
ENDCHAR
STARTCHAR BRAILLE PATTERN DOTS-234578
ENCODING 10462
SWIDTH 392 0
DWIDTH 6 0
BBX 3 7 1 0
BITMAP
20
00
A0
00
80
00
A0
ENDCHAR
STARTCHAR BRAILLE PATTERN DOTS-1234578
ENCODING 10463
SWIDTH 392 0
DWIDTH 6 0
BBX 3 7 1 0
BITMAP
A0
00
A0
00
80
00
A0
ENDCHAR
STARTCHAR BRAILLE PATTERN DOTS-678
ENCODING 10464
SWIDTH 392 0
DWIDTH 6 0
BBX 3 3 1 0
BITMAP
20
00
A0
ENDCHAR
STARTCHAR BRAILLE PATTERN DOTS-1678
ENCODING 10465
SWIDTH 392 0
DWIDTH 6 0
BBX 3 7 1 0
BITMAP
80
00
00
00
20
00
A0
ENDCHAR
STARTCHAR BRAILLE PATTERN DOTS-2678
ENCODING 10466
SWIDTH 392 0
DWIDTH 6 0
BBX 3 5 1 0
BITMAP
80
00
20
00
A0
ENDCHAR
STARTCHAR BRAILLE PATTERN DOTS-12678
ENCODING 10467
SWIDTH 392 0
DWIDTH 6 0
BBX 3 7 1 0
BITMAP
80
00
80
00
20
00
A0
ENDCHAR
STARTCHAR BRAILLE PATTERN DOTS-3678
ENCODING 10468
SWIDTH 392 0
DWIDTH 6 0
BBX 3 3 1 0
BITMAP
A0
00
A0
ENDCHAR
STARTCHAR BRAILLE PATTERN DOTS-13678
ENCODING 10469
SWIDTH 392 0
DWIDTH 6 0
BBX 3 7 1 0
BITMAP
80
00
00
00
A0
00
A0
ENDCHAR
STARTCHAR BRAILLE PATTERN DOTS-23678
ENCODING 10470
SWIDTH 392 0
DWIDTH 6 0
BBX 3 5 1 0
BITMAP
80
00
A0
00
A0
ENDCHAR
STARTCHAR BRAILLE PATTERN DOTS-123678
ENCODING 10471
SWIDTH 392 0
DWIDTH 6 0
BBX 3 7 1 0
BITMAP
80
00
80
00
A0
00
A0
ENDCHAR
STARTCHAR BRAILLE PATTERN DOTS-4678
ENCODING 10472
SWIDTH 392 0
DWIDTH 6 0
BBX 3 7 1 0
BITMAP
20
00
00
00
20
00
A0
ENDCHAR
STARTCHAR BRAILLE PATTERN DOTS-14678
ENCODING 10473
SWIDTH 392 0
DWIDTH 6 0
BBX 3 7 1 0
BITMAP
A0
00
00
00
20
00
A0
ENDCHAR
STARTCHAR BRAILLE PATTERN DOTS-24678
ENCODING 10474
SWIDTH 392 0
DWIDTH 6 0
BBX 3 7 1 0
BITMAP
20
00
80
00
20
00
A0
ENDCHAR
STARTCHAR BRAILLE PATTERN DOTS-124678
ENCODING 10475
SWIDTH 392 0
DWIDTH 6 0
BBX 3 7 1 0
BITMAP
A0
00
80
00
20
00
A0
ENDCHAR
STARTCHAR BRAILLE PATTERN DOTS-34678
ENCODING 10476
SWIDTH 392 0
DWIDTH 6 0
BBX 3 7 1 0
BITMAP
20
00
00
00
A0
00
A0
ENDCHAR
STARTCHAR BRAILLE PATTERN DOTS-134678
ENCODING 10477
SWIDTH 392 0
DWIDTH 6 0
BBX 3 7 1 0
BITMAP
A0
00
00
00
A0
00
A0
ENDCHAR
STARTCHAR BRAILLE PATTERN DOTS-234678
ENCODING 10478
SWIDTH 392 0
DWIDTH 6 0
BBX 3 7 1 0
BITMAP
20
00
80
00
A0
00
A0
ENDCHAR
STARTCHAR BRAILLE PATTERN DOTS-1234678
ENCODING 10479
SWIDTH 392 0
DWIDTH 6 0
BBX 3 7 1 0
BITMAP
A0
00
80
00
A0
00
A0
ENDCHAR
STARTCHAR BRAILLE PATTERN DOTS-5678
ENCODING 10480
SWIDTH 392 0
DWIDTH 6 0
BBX 3 5 1 0
BITMAP
20
00
20
00
A0
ENDCHAR
STARTCHAR BRAILLE PATTERN DOTS-15678
ENCODING 10481
SWIDTH 392 0
DWIDTH 6 0
BBX 3 7 1 0
BITMAP
80
00
20
00
20
00
A0
ENDCHAR
STARTCHAR BRAILLE PATTERN DOTS-25678
ENCODING 10482
SWIDTH 392 0
DWIDTH 6 0
BBX 3 5 1 0
BITMAP
A0
00
20
00
A0
ENDCHAR
STARTCHAR BRAILLE PATTERN DOTS-125678
ENCODING 10483
SWIDTH 392 0
DWIDTH 6 0
BBX 3 7 1 0
BITMAP
80
00
A0
00
20
00
A0
ENDCHAR
STARTCHAR BRAILLE PATTERN DOTS-35678
ENCODING 10484
SWIDTH 392 0
DWIDTH 6 0
BBX 3 5 1 0
BITMAP
20
00
A0
00
A0
ENDCHAR
STARTCHAR BRAILLE PATTERN DOTS-135678
ENCODING 10485
SWIDTH 392 0
DWIDTH 6 0
BBX 3 7 1 0
BITMAP
80
00
20
00
A0
00
A0
ENDCHAR
STARTCHAR BRAILLE PATTERN DOTS-235678
ENCODING 10486
SWIDTH 392 0
DWIDTH 6 0
BBX 3 5 1 0
BITMAP
A0
00
A0
00
A0
ENDCHAR
STARTCHAR BRAILLE PATTERN DOTS-1235678
ENCODING 10487
SWIDTH 392 0
DWIDTH 6 0
BBX 3 7 1 0
BITMAP
80
00
A0
00
A0
00
A0
ENDCHAR
STARTCHAR BRAILLE PATTERN DOTS-45678
ENCODING 10488
SWIDTH 392 0
DWIDTH 6 0
BBX 3 7 1 0
BITMAP
20
00
20
00
20
00
A0
ENDCHAR
STARTCHAR BRAILLE PATTERN DOTS-145678
ENCODING 10489
SWIDTH 392 0
DWIDTH 6 0
BBX 3 7 1 0
BITMAP
A0
00
20
00
20
00
A0
ENDCHAR
STARTCHAR BRAILLE PATTERN DOTS-245678
ENCODING 10490
SWIDTH 392 0
DWIDTH 6 0
BBX 3 7 1 0
BITMAP
20
00
A0
00
20
00
A0
ENDCHAR
STARTCHAR BRAILLE PATTERN DOTS-1245678
ENCODING 10491
SWIDTH 392 0
DWIDTH 6 0
BBX 3 7 1 0
BITMAP
A0
00
A0
00
20
00
A0
ENDCHAR
STARTCHAR BRAILLE PATTERN DOTS-345678
ENCODING 10492
SWIDTH 392 0
DWIDTH 6 0
BBX 3 7 1 0
BITMAP
20
00
20
00
A0
00
A0
ENDCHAR
STARTCHAR BRAILLE PATTERN DOTS-1345678
ENCODING 10493
SWIDTH 392 0
DWIDTH 6 0
BBX 3 7 1 0
BITMAP
A0
00
20
00
A0
00
A0
ENDCHAR
STARTCHAR BRAILLE PATTERN DOTS-2345678
ENCODING 10494
SWIDTH 392 0
DWIDTH 6 0
BBX 3 7 1 0
BITMAP
20
00
A0
00
A0
00
A0
ENDCHAR
STARTCHAR BRAILLE PATTERN DOTS-12345678
ENCODING 10495
SWIDTH 392 0
DWIDTH 6 0
BBX 3 7 1 0
BITMAP
A0
00
A0
00
A0
00
A0
ENDCHAR
ENDFONT
